<svg xmlns="http://www.w3.org/2000/svg" width="23.505" height="22.391" viewBox="0 0 23.505 22.391">
  <g id="Attempted" transform="translate(-181.411 -745.62)">
    <path id="Path_1315" data-name="Path 1315" d="M225.7,108.556l-11.3,10.316-4.105-4.478a1.076,1.076,0,1,0-1.6,1.44l4.825,5.278a1.1,1.1,0,0,0,1.519.08l12.1-11.062a1.113,1.113,0,0,0,.08-1.519,1.086,1.086,0,0,0-1.519-.053Z" transform="translate(-22.56 640.369)" fill="#38a146"/>
    <path id="Path_1316" data-name="Path 1316" d="M126,67.191a11.194,11.194,0,0,0,11.2-11.2,9.825,9.825,0,0,0-.107-1.546,1.063,1.063,0,0,0-2.106.293A10.2,10.2,0,0,1,135.06,56a9.067,9.067,0,1,1-3.225-6.93,1.06,1.06,0,0,0,1.359-1.626A11.189,11.189,0,1,0,126,67.191Z" transform="translate(66.609 700.82)" fill="#38a146"/>
  </g>
</svg>
