<svg xmlns="http://www.w3.org/2000/svg" width="257.24" height="246.655" viewBox="0 0 257.24 246.655">
  <g id="Appreciation-cuate" transform="translate(-41.38 -54.19)">
    <g id="freepik--background-complete--inject-19" transform="translate(46.966 54.436)">
      <path id="Path_2214" data-name="Path 2214" d="M88.775,325.573l-8.083.166-4.106.074c-1.369,0-2.75,0-4.125.031h-.271v-.271l-.031-6.9v-.314h.308l8.163.037c2.719,0,5.444.068,8.163.1h.173v.166c0,1.165-.049,2.33-.08,3.483Zm0,0-.068-3.49c0-1.147-.068-2.281-.08-3.409l.166.166c-2.719.031-5.444.1-8.163.1l-8.163.043.308-.308-.037,6.9-.271-.277c1.344,0,2.688,0,4.032.031l4.057.074Z" transform="translate(-58.769 -155.738)" fill="#ebebeb"/>
      <path id="Path_2215" data-name="Path 2215" d="M74.013,339.683l-8.1.166-4.106.074c-1.369,0-2.75,0-4.125.031H57.41V332.47h.308l8.163.037c2.719,0,5.438.068,8.163.1h.166v.191c0,1.165-.049,2.33-.08,3.483Zm0,0-.086-3.49c0-1.147-.074-2.281-.08-3.409l.166.166c-2.725.031-5.444.1-8.163.1l-8.163.037.308-.3-.037,6.9-.271-.277H61.72l4.057.074Z" transform="translate(-53.113 -161.149)" fill="#ebebeb"/>
      <path id="Path_2216" data-name="Path 2216" d="M437.555,181.353l-8.089.166-4.106.074c-1.375,0-2.75,0-4.131.031h-.253v-.271l-.037-6.9v-.314h.308l8.163.037c2.725,0,5.444.068,8.163.1h.173v.166c0,1.165-.055,2.33-.08,3.483Zm0,0-.086-3.49c0-1.147-.068-2.281-.08-3.409l.166.166c-2.719.031-5.438.1-8.163.1l-8.163.043.308-.308-.031,6.9-.277-.277c1.35,0,2.688,0,4.038.037l4.057.068Z" transform="translate(-192.516 -100.434)" fill="#ebebeb"/>
      <path id="Path_2217" data-name="Path 2217" d="M422.774,195.513l-8.089.166-4.106.074h-4.4v-.24l-.037-6.9V188.3h.308l8.163.037c2.725,0,5.444.068,8.163.1h.173v.166c0,1.165-.055,2.33-.086,3.483Zm0,0-.086-3.49c0-1.147-.068-2.281-.08-3.409l.166.166c-2.719.031-5.438.1-8.163.1l-8.163.043.308-.308-.031,6.9-.277-.277c1.344,0,2.688,0,4.038.031l4.057.074Z" transform="translate(-186.841 -105.864)" fill="#ebebeb"/>
      <path id="Path_2218" data-name="Path 2218" d="M408.068,181.353l-8.1.166-4.106.074c-1.369,0-2.75,0-4.125.031h-.271v-.271l-.031-6.9v-.314h.308l8.163.037c2.719,0,5.444.068,8.163.1h.166v.166c0,1.165-.049,2.33-.08,3.483Zm0,0-.086-3.49c0-1.147-.074-2.281-.08-3.409l.166.166c-2.719.031-5.444.1-8.163.1l-8.163.043.308-.308-.037,6.9-.271-.277c1.344,0,2.688,0,4.032.037l4.057.068Z" transform="translate(-181.204 -100.434)" fill="#ebebeb"/>
      <path id="Path_2219" data-name="Path 2219" d="M88.764,66l-8.083.166-4.106.074c-1.369,0-2.75,0-4.125.031h-.271V66L72.13,59.1V58.79h.308l8.163.037c2.719,0,5.444.068,8.163.1h.173v.166c0,1.171-.049,2.33-.08,3.483Zm0,0-.068-3.49c0-1.147-.068-2.281-.08-3.409l.166.166c-2.719,0-5.444.1-8.163.1l-8.163.043.308-.308L72.728,66l-.29-.3c1.344,0,2.688,0,4.032.037l4.057.068Z" transform="translate(-58.758 -56.201)" fill="#ebebeb"/>
      <path id="Path_2220" data-name="Path 2220" d="M73.363,191.779a14.322,14.322,0,1,1,19.587,5.148A14.322,14.322,0,0,1,73.363,191.779Z" transform="translate(-58.48 -98.936)" fill="#ebebeb"/>
      <path id="Path_2221" data-name="Path 2221" d="M96.794,188.23c-.832,4.8-5.025,8.749-5.025,8.749s-5.672-1.017-8.989-4.587c-2.762-2.972-2.787-7.072-.308-8.705,3.557-2.343,6.585,4.168,6.585,4.168s-1.017-7.1,3.243-7.084C95.271,180.782,97.516,184.229,96.794,188.23Z" transform="translate(-62.028 -102.976)" fill="#fff"/>
      <path id="Path_2222" data-name="Path 2222" d="M389.8,228.818a11.961,11.961,0,1,1,11.406,12.491A11.961,11.961,0,0,1,389.8,228.818Z" transform="translate(-180.571 -117.023)" fill="#ebebeb"/>
      <path id="Path_2223" data-name="Path 2223" d="M410.64,235.889c-2.756,2.99-7.491,3.853-7.491,3.853s-3.514-3.28-4.223-7.287c-.617-3.335,1.233-6.221,3.73-6.245,3.557-.031,2.731,5.906,2.731,5.906s2.5-5.444,5.481-3.5C412.952,229.971,412.946,233.392,410.64,235.889Z" transform="translate(-184.029 -120.401)" fill="#fff"/>
      <g id="freepik--xsrjP0--inject-19" transform="translate(87.627 21.122)">
        <path id="Path_2224" data-name="Path 2224" d="M211.347,115.453c-.66-.413-1.233-1.011-2.109-.925-.339.037-.265-.24-.271-.425l-.037-9.914c0-.24,0-.438.271-.573,2.522-1.282,3.607-3.792,5.148-5.937a9.864,9.864,0,0,0,1.806-7.5c-.1-.746.24-1.079.906-1.233a1.671,1.671,0,0,1,1.893.586,13.4,13.4,0,0,1,1.455,4.316,15.49,15.49,0,0,1-.45,3.7c-.111.906-.321,1.806-.487,2.725.222.16.475.074.715.08h8.379c1.178,0,1.751.327,1.917,1.11a2.238,2.238,0,0,1-1.233,2.423c-.21.1-.617,0-.617.339s.364.3.561.432c1.011.691.826,2.121-.339,2.953-.277.2-.826.111-.838.524s.506.321.74.555a1.9,1.9,0,0,1-.8,2.922,3.083,3.083,0,0,0-.487.191c-.142.092-.277.2,0,.388a1.644,1.644,0,0,1,0,2.941l-.364.265a2.411,2.411,0,0,1-1.467.327l-13.138.043a1.547,1.547,0,0,1-1.153-.308Z" transform="translate(-198.844 -88.85)" fill="#ebebeb" fill-rule="evenodd"/>
        <path id="Path_2225" data-name="Path 2225" d="M192.6,118.317c0-2.1,0-4.2-.031-6.3,0-.425.043-.617.567-.617q3.835.037,7.682,0c.5,0,.58.166.58.617q0,6.338.043,12.676c0,.543-.142.691-.678.684-2.466,0-4.969,0-7.454.031-.617,0-.7-.2-.7-.746C192.638,122.516,192.607,120.4,192.6,118.317Z" transform="translate(-192.57 -97.497)" fill="#ebebeb" fill-rule="evenodd"/>
      </g>
      <g id="freepik--xsrjp0--inject-19-2" data-name="freepik--xsrjp0--inject-19" transform="translate(139.835 115.368)">
        <path id="Path_2226" data-name="Path 2226" d="M288.265,257.341c-.382-.24-.721-.617-1.233-.543-.2,0-.154-.142-.154-.253v-5.82c0-.142,0-.259.16-.339,1.48-.752,2.121-2.226,3.027-3.483a5.826,5.826,0,0,0,1.06-4.408c-.068-.438.136-.617.53-.727a.986.986,0,0,1,1.11.345,7.966,7.966,0,0,1,.857,2.546,9.114,9.114,0,0,1-.265,2.183c-.068.53-.185,1.06-.29,1.6.136.092.284.043.425.049h4.932c.691,0,1.03.2,1.128.654a1.326,1.326,0,0,1-.709,1.424c-.123.062-.345,0-.364.2s.216.173.333.253c.617.4.487,1.233-.2,1.732-.16.117-.481.062-.487.308s.3.185.432.321a1.116,1.116,0,0,1-.469,1.72,2.013,2.013,0,0,0-.29.111c-.08.055-.16.117,0,.228a.962.962,0,0,1,0,1.726l-.21.154a1.375,1.375,0,0,1-.863.191q-3.853,0-7.719.031A.931.931,0,0,1,288.265,257.341Z" transform="translate(-280.94 -241.714)" fill="#ebebeb" fill-rule="evenodd"/>
        <path id="Path_2227" data-name="Path 2227" d="M277.25,259.009v-3.7c0-.253,0-.37.327-.37h4.513c.3,0,.345.1.339.358q0,3.7.031,7.448c0,.314-.086.407-.4.4h-4.377c-.364,0-.413-.123-.413-.438C277.275,261.481,277.256,260.248,277.25,259.009Z" transform="translate(-277.25 -246.786)" fill="#ebebeb" fill-rule="evenodd"/>
      </g>
      <circle id="Ellipse_72" data-name="Ellipse 72" cx="17.605" cy="17.605" r="17.605" transform="matrix(0.778, -0.628, 0.628, 0.778, 197.93, 26.07)" fill="#ebebeb"/>
      <circle id="Ellipse_73" data-name="Ellipse 73" cx="16.751" cy="16.751" r="16.751" transform="translate(198.697 28.379) rotate(-45)" fill="#dbdbdb"/>
      <circle id="Ellipse_74" data-name="Ellipse 74" cx="15.697" cy="15.697" r="15.697" transform="translate(203.522 16.679) rotate(-13.21)" fill="#fff"/>
      <path id="Path_2228" data-name="Path 2228" d="M417.482,88.647c-7.146,4.316-18.89,11.43-25.456,15.327a15.7,15.7,0,0,1-4.316-5.765l21.757-20.13A15.721,15.721,0,0,1,417.482,88.647Z" transform="translate(-179.774 -63.598)" fill="#ebebeb" opacity="0.5"/>
      <path id="Path_2229" data-name="Path 2229" d="M422.237,101.51a15.708,15.708,0,0,1-1.036,5.1l-19.575,9.248a14.951,14.951,0,0,1-2.466-1.067C405.066,111.387,415.868,105.172,422.237,101.51Z" transform="translate(-184.164 -72.582)" fill="#ebebeb" opacity="0.5"/>
      <rect id="Rectangle_431" data-name="Rectangle 431" width="0.302" height="2.38" transform="translate(222.234 13.823)" fill="#c7c7c7"/>
      <rect id="Rectangle_432" data-name="Rectangle 432" width="0.302" height="2.38" transform="translate(214.97 15.829) rotate(-30)" fill="#c7c7c7"/>
      <rect id="Rectangle_433" data-name="Rectangle 433" width="0.302" height="2.38" transform="translate(209.697 21.22) rotate(-60)" fill="#c7c7c7"/>
      <rect id="Rectangle_434" data-name="Rectangle 434" width="2.38" height="0.302" transform="translate(207.832 28.225)" fill="#c7c7c7"/>
      <rect id="Rectangle_435" data-name="Rectangle 435" width="2.38" height="0.302" transform="translate(209.716 35.54) rotate(-30)" fill="#c7c7c7"/>
      <rect id="Rectangle_436" data-name="Rectangle 436" width="2.38" height="0.302" transform="translate(214.995 40.924) rotate(-60.03)" fill="#c7c7c7"/>
      <rect id="Rectangle_437" data-name="Rectangle 437" width="0.302" height="2.38" transform="translate(222.234 40.555)" fill="#c7c7c7"/>
      <rect id="Rectangle_438" data-name="Rectangle 438" width="0.302" height="2.38" transform="translate(228.346 38.997) rotate(-30)" fill="#c7c7c7"/>
      <rect id="Rectangle_439" data-name="Rectangle 439" width="0.302" height="2.38" transform="translate(232.869 34.608) rotate(-59.99)" fill="#c7c7c7"/>
      <rect id="Rectangle_440" data-name="Rectangle 440" width="2.38" height="0.302" transform="translate(234.564 28.225)" fill="#c7c7c7"/>
      <rect id="Rectangle_441" data-name="Rectangle 441" width="2.38" height="0.302" transform="translate(232.863 22.16) rotate(-30.01)" fill="#c7c7c7"/>
      <rect id="Rectangle_442" data-name="Rectangle 442" width="2.38" height="0.302" transform="translate(228.35 17.756) rotate(-60.03)" fill="#c7c7c7"/>
      <path id="Path_2230" data-name="Path 2230" d="M410.914,78.756l.518,14.538-1.492-.018.567-14.525Z" transform="translate(-188.298 -63.855)" fill="#c7c7c7"/>
      <path id="Path_2231" data-name="Path 2231" d="M419.683,92.178,409.9,98.417l-.709-1.307,10.3-5.29Z" transform="translate(-188.011 -68.867)" fill="#a6a6a6"/>
      <path id="Path_2232" data-name="Path 2232" d="M411.371,100.306a.506.506,0,1,1-.506-.506A.506.506,0,0,1,411.371,100.306Z" transform="translate(-188.459 -71.927)" fill="#c7c7c7"/>
      <rect id="Rectangle_443" data-name="Rectangle 443" width="68.94" height="4.094" transform="translate(68.94 34.526) rotate(180)" fill="#ebebeb"/>
      <rect id="Rectangle_444" data-name="Rectangle 444" width="4.094" height="13.539" transform="translate(59.618 34.526)" fill="#ebebeb"/>
      <rect id="Rectangle_445" data-name="Rectangle 445" width="4.094" height="4.186" transform="translate(59.618 34.526)" fill="#dbdbdb"/>
      <rect id="Rectangle_446" data-name="Rectangle 446" width="4.094" height="13.539" transform="translate(5.234 34.526)" fill="#ebebeb"/>
      <rect id="Rectangle_447" data-name="Rectangle 447" width="4.094" height="4.186" transform="translate(5.234 34.526)" fill="#dbdbdb"/>
      <rect id="Rectangle_448" data-name="Rectangle 448" width="26.091" height="6.572" transform="translate(51.517 4.347) rotate(90)" fill="#c7c7c7"/>
      <rect id="Rectangle_449" data-name="Rectangle 449" width="2.867" height="6.572" transform="translate(51.523 2.947) rotate(90)" fill="#dbdbdb"/>
      <rect id="Rectangle_450" data-name="Rectangle 450" width="1.067" height="6.572" transform="translate(51.517 9.488) rotate(90)" fill="#dbdbdb"/>
      <rect id="Rectangle_451" data-name="Rectangle 451" width="2.867" height="7.386" transform="translate(51.523 24.143) rotate(90)" fill="#dbdbdb"/>
      <rect id="Rectangle_452" data-name="Rectangle 452" width="30.432" height="4.593" transform="translate(44.951 0) rotate(90)" fill="#dbdbdb"/>
      <rect id="Rectangle_453" data-name="Rectangle 453" width="11.708" height="2.756" transform="translate(44.051 2.861) rotate(90)" fill="#ebebeb"/>
      <rect id="Rectangle_454" data-name="Rectangle 454" width="30.432" height="4.593" transform="matrix(-0.711, 0.703, -0.703, -0.711, 32.565, 9.05)" fill="#c7c7c7"/>
      <rect id="Rectangle_455" data-name="Rectangle 455" width="11.708" height="2.756" transform="matrix(-0.711, 0.703, -0.703, -0.711, 23.669, 16.535)" fill="#dbdbdb"/>
      <rect id="Rectangle_456" data-name="Rectangle 456" width="23.114" height="7.799" transform="translate(40.364 7.324) rotate(90)" fill="#a6a6a6"/>
      <rect id="Rectangle_457" data-name="Rectangle 457" width="2.152" height="7.799" transform="translate(40.364 25.839) rotate(90)" fill="#c7c7c7"/>
      <rect id="Rectangle_458" data-name="Rectangle 458" width="0.838" height="7.799" transform="translate(40.358 23.588) rotate(90)" fill="#c7c7c7"/>
      <rect id="Rectangle_459" data-name="Rectangle 459" width="21.726" height="5.388" transform="translate(56.912 8.712) rotate(90)" fill="#a6a6a6"/>
      <rect id="Rectangle_460" data-name="Rectangle 460" width="2.022" height="5.388" transform="translate(56.912 26.11) rotate(90)" fill="#c7c7c7"/>
      <rect id="Rectangle_461" data-name="Rectangle 461" width="2.022" height="5.388" transform="translate(56.906 13.194) rotate(90)" fill="#c7c7c7"/>
      <rect id="Rectangle_462" data-name="Rectangle 462" width="0.783" height="5.388" transform="translate(56.906 16.603) rotate(90)" fill="#c7c7c7"/>
      <path id="Path_2233" data-name="Path 2233" d="M337.742,361.152h69.341l2.232-44h-73.8Z" transform="translate(-159.756 -155.274)" fill="#ebebeb"/>
      <path id="Path_2234" data-name="Path 2234" d="M404.866,340.339H343.725L342.88,325h62.96Zm-60.562-.617h59.982l.937-14.106H343.57Z" transform="translate(-162.583 -158.285)" fill="#dbdbdb"/>
      <path id="Path_2235" data-name="Path 2235" d="M405.236,369.76h-58.57L346,355.9h60.112Zm-57.954-.617h57.393l.789-12.626H346.617Z" transform="translate(-163.779 -170.134)" fill="#dbdbdb"/>
      <path id="Path_2236" data-name="Path 2236" d="M396.886,337.841H383.871l-.481-3.761h13.983Zm-12.472-.617h11.93l.327-2.528H384.087Z" transform="translate(-178.117 -161.767)" fill="#dbdbdb"/>
      <path id="Path_2237" data-name="Path 2237" d="M396.886,367.851H383.871l-.481-3.761h13.983Zm-12.472-.617h11.93l.327-2.528H384.087Z" transform="translate(-178.117 -173.275)" fill="#dbdbdb"/>
      <path id="Path_2238" data-name="Path 2238" d="M351.819,388.52l-.672,4.79-1.356,9.63H347.14V388.52Z" transform="translate(-164.216 -182.643)" fill="#ebebeb"/>
      <path id="Path_2239" data-name="Path 2239" d="M351.819,388.52l-.672,4.79H347.14v-4.79Z" transform="translate(-164.216 -182.643)" fill="#dbdbdb"/>
      <path id="Path_2240" data-name="Path 2240" d="M436.01,388.52l.672,4.79,1.356,9.63h2.645V388.52Z" transform="translate(-198.295 -182.643)" fill="#ebebeb"/>
      <path id="Path_2241" data-name="Path 2241" d="M436.01,388.52l.672,4.79h4v-4.79Z" transform="translate(-198.295 -182.643)" fill="#dbdbdb"/>
    </g>
    <g id="freepik--Shadow--inject-19" transform="translate(69.703 279.451)">
      <ellipse id="Ellipse_75" data-name="Ellipse 75" cx="100.297" cy="10.697" rx="100.297" ry="10.697" transform="translate(0 0)" fill="#ebebeb"/>
    </g>
    <g id="freepik--Floor--inject-19" transform="translate(41.38 274.426)">
      <path id="Path_2242" data-name="Path 2242" d="M41.38,411.718l32.158-.148,32.152-.056,64.31-.1,64.31.1,32.152.056,32.158.148-32.158.154-32.152.055-64.31.1-64.31-.1-32.152-.049Z" transform="translate(-41.38 -411.41)" fill="#263238"/>
    </g>
    <g id="freepik--Plant--inject-19" transform="translate(148.744 183.05)">
      <path id="Path_2243" data-name="Path 2243" d="M248.238,310.364a35.914,35.914,0,0,0-1.147,6.492c.055.1.043.512,0,.4,0,.358-.555.29-.555-.062v-.678c-1.233-1.578-3.083-2.577-4.6-3.946a8.632,8.632,0,0,1-2.522-4.014c-1.233-4.254-.074-8.767-1.56-13.009-1.282-3.662-3.582-6.85-5.549-10.167a23.8,23.8,0,0,1-3.7-11.3c-.117-3.144.253-7.337,2.651-9.692,2.54-2.5,5.691-.617,7.633,1.6,5.641,6.467,8.249,14.649,9.3,23.009a91.3,91.3,0,0,1,1.048,13.958,37.949,37.949,0,0,1-1,7.4Z" transform="translate(-220.534 -263.199)" fill="#fff"/>
      <path id="Path_2244" data-name="Path 2244" d="M250.8,325.626a80.2,80.2,0,0,0-.154-13.107v-.049c.074-3.545.351-7.072.216-10.623a63.4,63.4,0,0,0-1.56-11.393c0-.043-.08-.031-.068,0a75.118,75.118,0,0,1,1.233,11.141c.068,2,.056,4.007-.049,6.011-.037.647-.1,1.307-.142,1.961h0a70.186,70.186,0,0,0-10.543-27.9c-.074-.111-.277,0-.2.129a73.065,73.065,0,0,1,8.582,20.685c-2.713-5.019-6.782-9.149-9.864-13.977H238.2c2.731,5.376,7.238,9.612,10.117,14.908q.752,3.237,1.233,6.529A72.028,72.028,0,0,1,250.2,319a103.7,103.7,0,0,1-4.716-9.31c-.037-.086-.16,0-.13.062a36.208,36.208,0,0,0,4.858,9.938c0,2.146-.055,4.316-.179,6.437-.339,5.728-1.319,11.375-1.769,17.078a.136.136,0,0,0,.265.031,132.647,132.647,0,0,0,2.269-17.614Z" transform="translate(-224.218 -270.262)" fill="#263238"/>
      <path id="Path_2245" data-name="Path 2245" d="M248.742,281.371a.031.031,0,1,0-.062,0c1.042,2.892,1.634,5.82,2.392,8.786a.111.111,0,0,0,.216-.037A31.48,31.48,0,0,0,248.742,281.371Z" transform="translate(-228.238 -270.156)" fill="#263238"/>
      <path id="Path_2246" data-name="Path 2246" d="M279,299a43.451,43.451,0,0,1-2.4,4.932c-1.88,3.422-3.847,6.554-4.2,10.53a24.115,24.115,0,0,1-.752,5.278,15.729,15.729,0,0,1-2.1,4.131c-2.041,2.972-4.593,5.549-6.486,8.631a36.306,36.306,0,0,0-4.316,10.382c-.049.2-.364.148-.314-.049v-.049a.056.056,0,0,1,0-.043,74.574,74.574,0,0,1,2.984-25.315,87.162,87.162,0,0,1,4.131-10.512,24.84,24.84,0,0,1,5.58-8.015c1.591-1.436,5.037-4.143,7.294-2.713C279.51,296.866,279.424,297.957,279,299Z" transform="translate(-231.947 -275.694)" fill="#fff"/>
      <path id="Path_2247" data-name="Path 2247" d="M269.083,322.906a70.775,70.775,0,0,1-4.963,7.133c-.826,1.079-1.665,2.152-2.466,3.231-.388.512-.826,1.017-1.184,1.566.228-.9.444-1.794.672-2.694a107.8,107.8,0,0,1,3.8-12.811,86.856,86.856,0,0,1,5.925-11.615c.062-.1-.1-.173-.16-.074-1.8,2.965-3.631,5.925-5.148,9.057a47.118,47.118,0,0,0-2.189,5.37,83.264,83.264,0,0,1,2.91-11.48c0-.031-.037-.055-.049,0a39.3,39.3,0,0,0-3.021,11.942h0c-.37,1.11-.709,2.232-1.03,3.354-1.344,4.778-2.522,9.606-3.619,14.445a51.665,51.665,0,0,1,.826-9.495.056.056,0,1,0-.111,0,30.068,30.068,0,0,0-.826,10.006q-.617,2.762-1.233,5.549c-.838,3.933-1.85,7.941-2.361,11.936a.08.08,0,0,0,.154,0c.586-2.152.943-4.383,1.418-6.566s.98-4.371,1.486-6.548q1.11-4.76,2.312-9.507a16.534,16.534,0,0,1,2.312-3.163c.845-1.073,1.683-2.139,2.5-3.224a48.189,48.189,0,0,0,4.106-6.356C269.182,322.888,269.126,322.857,269.083,322.906Z" transform="translate(-230.608 -280.224)" fill="#263238"/>
      <path id="Path_2248" data-name="Path 2248" d="M275.5,326.491a44.588,44.588,0,0,0-4.858,7.707c0,.037.037.074.062.043,1.634-2.565,3.237-5.142,4.871-7.707C275.6,326.5,275.529,326.454,275.5,326.491Z" transform="translate(-236.659 -287.465)" fill="#263238"/>
      <path id="Path_2249" data-name="Path 2249" d="M218.024,308.2c1.1,1.905,2.367,4.192,1.893,6.48-.3,1.449-1.363,2.62-1.554,4.1-.425,3.261,2.824,5.413,5.173,6.954,5.863,3.847,13.9,7.275,14.969,15.13.037.277.518.2.487-.068a.146.146,0,0,0,0-.049s0,0,0-.049a29.975,29.975,0,0,0-.111-11.991,37.972,37.972,0,0,0-4.723-11.239c-3.527-6.017-7.263-12.183-12.6-16.794-1.48-1.27-4.5-3.564-5.678-.684S216.668,305.875,218.024,308.2Z" transform="translate(-215.524 -276.774)" fill="#fff"/>
      <path id="Path_2250" data-name="Path 2250" d="M228.231,329.679c3.884,4.2,10.062,6.566,13.409,11.276A47.171,47.171,0,0,0,231.332,321.6a.154.154,0,0,1,.216-.216,38.133,38.133,0,0,1,8.422,12.2,54.337,54.337,0,0,0-3.625-9.248c-.055-.117.1-.216.173-.1a35.4,35.4,0,0,1,3.909,10.426c4.408,10.672,4.815,23.188,3.89,34.433,0,.16-.259.166-.253,0,.253-8.866.111-17.879-2.016-26.511-.043-.185-.092-.364-.136-.543-3.638-5.074-9.79-7.4-13.749-12.238C228.126,329.7,228.188,329.63,228.231,329.679Z" transform="translate(-220.366 -285.498)" fill="#263238"/>
      <path id="Path_2251" data-name="Path 2251" d="M226.757,329c2.041,1.85,4.051,3.785,6.091,5.654v.043a29.883,29.883,0,0,1-6.165-5.549.086.086,0,0,1,.074-.148Z" transform="translate(-219.792 -288.431)" fill="#263238"/>
      <path id="Path_2252" data-name="Path 2252" d="M226.222,315.828a63.5,63.5,0,0,0,6.1,8.391.039.039,0,0,1-.055.055,29.668,29.668,0,0,1-6.165-8.385.066.066,0,0,1,.117-.062Z" transform="translate(-219.578 -283.367)" fill="#263238"/>
      <path id="Path_2253" data-name="Path 2253" d="M241.19,396.648h17.873l-2.411-24.038H243.946Z" transform="translate(-225.366 -305.155)" fill="#455a64"/>
      <path id="Path_2254" data-name="Path 2254" d="M244.93,376.519h13.551l-.395-3.909H245.38Z" transform="translate(-226.8 -305.155)" fill="#263238"/>
      <rect id="Rectangle_463" data-name="Rectangle 463" width="16.751" height="3.841" transform="translate(33.136 68.626) rotate(180)" fill="#455a64"/>
    </g>
    <g id="freepik--Sparkles--inject-19" transform="translate(179.464 66.533)">
      <path id="Path_2255" data-name="Path 2255" d="M293.36,205.53l3.477.641.777,3.675.777-3.675,3.483-.641-3.465-.845-.8-3.465-.789,3.465Z" transform="translate(-276.091 -122.915)" fill="#fff"/>
      <path id="Path_2256" data-name="Path 2256" d="M290.75,98.556l3.477.641.777,3.668.777-3.668,3.483-.647L295.8,97.7,295,94.24l-.789,3.465Z" transform="translate(-275.09 -81.891)" fill="#fff"/>
      <path id="Path_2257" data-name="Path 2257" d="M375.3,174.746l3.477.641.777,3.668.777-3.668,3.483-.647-3.465-.845-.8-3.465-.789,3.465Z" transform="translate(-307.513 -111.108)" fill="#fff"/>
      <path id="Path_2258" data-name="Path 2258" d="M336.35,90.931l1.948.358.432,2.047.438-2.047,1.942-.364-1.936-.469-.444-1.936-.444,1.936Z" transform="translate(-292.577 -79.697)" fill="#fff"/>
      <path id="Path_2259" data-name="Path 2259" d="M371.44,126.051l1.942.358.438,2.053.432-2.053,1.942-.358-1.936-.475-.438-1.936-.444,1.936Z" transform="translate(-306.033 -93.165)" fill="#fff"/>
      <path id="Path_2260" data-name="Path 2260" d="M269.88,167.641l1.948.364.432,2.047.432-2.047,1.948-.364-1.936-.475-.444-1.936-.444,1.936Z" transform="translate(-267.087 -109.114)" fill="#fff"/>
      <path id="Path_2261" data-name="Path 2261" d="M282,222.291l1.942.358.438,2.053.432-2.053,1.948-.358-1.936-.475-.444-1.936-.444,1.936Z" transform="translate(-271.735 -130.07)" fill="#fff"/>
      <path id="Path_2262" data-name="Path 2262" d="M280.82,87.021l1.948.358.432,2.053.432-2.053,1.948-.358-1.936-.475L283.2,84.61l-.444,1.936Z" transform="translate(-271.282 -78.198)" fill="#fff"/>
      <path id="Path_2263" data-name="Path 2263" d="M378.34,243.161l1.948.358.432,2.047.432-2.047,1.948-.358-1.936-.475-.444-1.936-.444,1.936Z" transform="translate(-308.678 -138.073)" fill="#fff"/>
      <path id="Path_2264" data-name="Path 2264" d="M393.67,188.9l1.942.358.438,2.053.438-2.053,1.942-.358-1.936-.475-.444-1.936-.444,1.936Z" transform="translate(-314.557 -117.266)" fill="#fff"/>
      <path id="Path_2265" data-name="Path 2265" d="M311.394,79.13a.567.567,0,1,1-.508.564.567.567,0,0,1,.508-.564Z" transform="translate(-282.812 -76.097)" fill="#fff"/>
      <path id="Path_2266" data-name="Path 2266" d="M385.744,216.19a.567.567,0,1,1-.508.564A.567.567,0,0,1,385.744,216.19Z" transform="translate(-311.323 -128.655)" fill="#fff"/>
      <path id="Path_2267" data-name="Path 2267" d="M362.5,125.31a.561.561,0,1,1-.561.561.561.561,0,0,1,.561-.561Z" transform="translate(-302.39 -93.805)" fill="#fff"/>
      <path id="Path_2268" data-name="Path 2268" d="M265.751,189.75a.4.4,0,1,1-.4.4.4.4,0,0,1,.4-.4Z" transform="translate(-265.35 -118.516)" fill="#fff"/>
      <path id="Path_2269" data-name="Path 2269" d="M290.782,237.06a.4.4,0,1,1-.351.4.4.4,0,0,1,.351-.4Z" transform="translate(-274.968 -136.658)" fill="#fff"/>
      <path id="Path_2270" data-name="Path 2270" d="M366.591,114.76a.4.4,0,1,1-.4.4.4.4,0,0,1,.4-.4Z" transform="translate(-304.019 -89.76)" fill="#fff"/>
      <path id="Path_2271" data-name="Path 2271" d="M319.949,74.21a1.079,1.079,0,1,1-1.079,1.079,1.079,1.079,0,0,1,1.079-1.079Z" transform="translate(-285.873 -74.21)" fill="#fff"/>
    </g>
    <g id="freepik--character-2--inject-19" transform="translate(182.593 81.854)">
      <path id="Path_2272" data-name="Path 2272" d="M271.062,412.909c1.356.438,39.982-.062,41.437-1.017.561-.351.814-5.986.931-12.8,0-.074-.049-25.173-.049-25.173l-25.185.259.327,25.167s-14.7,6.782-16.19,8.015S269.706,412.478,271.062,412.909Z" transform="translate(-270.437 -204.462)" fill="#eb9481"/>
      <path id="Path_2273" data-name="Path 2273" d="M290.27,419.392c.1-.031.148-.062.154-.092Z" transform="translate(-278.035 -221.864)" fill="#fff"/>
      <path id="Path_2274" data-name="Path 2274" d="M313.32,420.51c-.136,5.13-.388,8.958-.851,9.248-1.455.956-40.074,1.455-41.437,1.017s-.21-4.316,1.27-5.549A79.358,79.358,0,0,1,280.453,421C274.972,424.141,270.835,428.463,313.32,420.51Z" transform="translate(-270.425 -222.328)" fill="#263238"/>
      <path id="Path_2275" data-name="Path 2275" d="M330.363,420.51c-.136,5.13-.388,8.958-.851,9.248-.573.376-7.01.69-14.643.894l9.328-9.014Q327.114,421.133,330.363,420.51Z" transform="translate(-287.468 -222.328)" fill="#37474f"/>
      <path id="Path_2276" data-name="Path 2276" d="M332.321,193.45s-6.523,65.759-7.472,70.74c-.216,1.134.376,6.813.284,14.741-.2,17.3-.654,48.508-.654,48.508H299.43s-.8-54.07.407-64.014,8.915-69.976,8.915-69.976Z" transform="translate(-281.449 -135.257)" fill="#eb9481"/>
      <path id="Path_2277" data-name="Path 2277" d="M331.091,278.942c-.049,4.081-.111,8.94-.173,13.971L314.71,193.46h23.57s-6.529,65.753-7.472,70.734C330.586,265.31,331.177,271.007,331.091,278.942Z" transform="translate(-287.407 -135.261)" fill="#263238"/>
      <path id="Path_2278" data-name="Path 2278" d="M322.281,414.879c1.387.345,39.877-2.892,41.264-3.946.53-.395.388-6.03,0-12.836,0-.068-2.67-25.037-2.67-25.037l-24.76,2.01,2.6,25.043s-14.18,7.83-15.58,9.149S320.9,414.546,322.281,414.879Z" transform="translate(-290.04 -204.132)" fill="#eb9481"/>
      <path id="Path_2279" data-name="Path 2279" d="M363.548,428c-1.387,1.054-39.877,4.316-41.264,3.946s-.518-4.316.875-5.61a109.5,109.5,0,0,1,9.963-6.011c-5.413,3.557-15.728,11.282,30.567-2.762C363.967,423.244,364.016,427.653,363.548,428Z" transform="translate(-290.042 -221.197)" fill="#263238"/>
      <path id="Path_2280" data-name="Path 2280" d="M335.774,328.421l24.858-1.85s-6.455-57.954-6.6-61.653c-.2-5.45-2.281-28.5-4.476-46.727,0,0,2.4-13.144-3.631-24.772H314.67s2.1,14.18,5.678,23.175a42.15,42.15,0,0,1,6.954,3.175s2.571,41.172,2.688,46.24C330.219,276.035,335.774,328.421,335.774,328.421Z" transform="translate(-287.392 -135.245)" fill="#eb9481"/>
      <path id="Path_2281" data-name="Path 2281" d="M308.138,193.4s-9.864,67.2-10.265,73.435a51.864,51.864,0,0,0-.173,7.941s13.8,4.316,21.024,4.371c16.061.148,31.326-5.888,31.326-5.888s-6.523-54.92-6.566-55.056a38.015,38.015,0,0,0-3.465-24.84Z" transform="translate(-280.859 -135.222)" fill="#37474f"/>
      <path id="Path_2282" data-name="Path 2282" d="M311.717,193.42l-4.735,41.609-2.5,21.714-.617,5.432c-.191,1.813-.419,3.625-.536,5.438-.117,2.725-.111,5.456-.049,8.188h0c-.068-2.725-.092-5.456,0-8.181.117-1.819.333-3.631.524-5.444l.617-5.438,2.423-21.72Z" transform="translate(-283.002 -135.245)" fill="#455a64"/>
      <path id="Path_2283" data-name="Path 2283" d="M373.452,273.915h0c-.709-4.236-1.233-8.508-1.813-12.774q-.943-7.183-1.813-14.39-1.794-14.39-3.4-28.8h0a30.676,30.676,0,0,0,.647-6.461,47.686,47.686,0,0,0-.617-6.48,62.18,62.18,0,0,0-1.43-6.35c-.506-1.776-1.06-3.539-1.72-5.271h0c.666,1.726,1.233,3.49,1.739,5.265a61.991,61.991,0,0,1,1.449,6.356,46.66,46.66,0,0,1,.617,6.48,30.165,30.165,0,0,1-.617,6.486l3.4,28.761c.58,4.8,1.159,9.605,1.776,14.4C372.237,265.4,372.755,269.673,373.452,273.915Z" transform="translate(-306.044 -135.234)" fill="#455a64"/>
      <path id="Path_2284" data-name="Path 2284" d="M330.825,193.4l-1.7,42.947-.956,22.565-.24,5.641c-.08,1.85-.191,3.755-.179,5.635,0,2.941.055,5.888.142,8.829h0c-.092-2.941-.16-5.882-.166-8.823,0-1.88.086-3.761.16-5.641l.216-5.641L329,236.354l1.85-42.947Z" transform="translate(-292.4 -135.238)" fill="#455a64"/>
      <path id="Path_2285" data-name="Path 2285" d="M367.757,275.216h0l-2.768-27.2Q363.453,233,362,217.952h0a43.233,43.233,0,0,0-.055-6.443c-.142-2.152-.407-4.316-.7-6.418s-.666-4.254-1.067-6.375c-.339-1.782-.7-3.564-1.1-5.327h0c.407,1.763.771,3.545,1.116,5.327.407,2.115.777,4.236,1.085,6.369s.58,4.273.734,6.418a44.231,44.231,0,0,1,.068,6.455q1.535,15.031,3.009,30.062Z" transform="translate(-304.418 -135.234)" fill="#455a64"/>
      <path id="Path_2286" data-name="Path 2286" d="M317.4,193.41l-3.3,42.682-1.739,22.133-.407,5.549c-.068.919-.129,1.85-.179,2.768l-.068,2.774-.179,7.811h0l.16-7.805.062-2.774c.049-.925.1-1.85.173-2.774l.395-5.549,1.665-22.14,3.385-42.676Z" transform="translate(-286.188 -135.241)" fill="#455a64"/>
      <path id="Path_2287" data-name="Path 2287" d="M323.958,193.4l-2.6,42.7-1.418,22.14-.358,5.549c-.092,1.85-.271,3.7-.29,5.549-.074,2.959-.068,5.919,0,8.872h0c-.062-2.953-.074-5.906,0-8.866,0-1.85.185-3.7.284-5.549l.333-5.549,1.35-22.146,2.725-42.695Z" transform="translate(-289.146 -135.238)" fill="#455a64"/>
      <path id="Path_2288" data-name="Path 2288" d="M337.417,259.13c0,3.7-.086,7.46-.037,11.19.037,2.935.08,5.863.148,8.792h0c-.068-2.928-.129-5.863-.166-8.8-.068-3.73,0-7.46,0-11.19l.123-22.374.364-43.33h0l-.24,43.33Z" transform="translate(-296.082 -135.245)" fill="#455a64"/>
      <path id="Path_2289" data-name="Path 2289" d="M361.277,276.449h0l-2.349-27.627q-1.295-15.167-2.509-30.339h0a30.515,30.515,0,0,0-.117-3.268c-.08-1.091-.173-2.183-.277-3.268-.2-2.176-.419-4.353-.66-6.529-.425-4.007-.894-8.015-1.375-12.028h0q.74,6,1.406,12.028.37,3.255.684,6.523c.1,1.091.2,2.176.284,3.268a30.583,30.583,0,0,1,.129,3.28q1.282,15.167,2.528,30.327Z" transform="translate(-302.47 -135.234)" fill="#455a64"/>
      <path id="Path_2290" data-name="Path 2290" d="M353.865,277.653h0l-2.158-41.924-.53-10.956-.271-5.475-.333-5.481L349.34,193.33h0l1.319,20.487.351,5.475.277,5.481.573,10.95Z" transform="translate(-300.687 -135.211)" fill="#455a64"/>
      <path id="Path_2291" data-name="Path 2291" d="M345.775,278.6h-.006l-1.091-42.485-.968-42.725,1.1,42.725Z" transform="translate(-298.528 -135.234)" fill="#455a64"/>
      <path id="Path_2292" data-name="Path 2292" d="M326.643,102.31c3.785,3.453,5.086,9.34,5.086,9.34s3.742,5.832,2.91,9.118a5.931,5.931,0,0,1-3.588,4.168l.265-1.813s-1.067,2.355-4.932,3.459-9.063.129-11.8-1.11a10.3,10.3,0,0,1-4.088-3.292l1.116,2.565a7.75,7.75,0,0,1-6.208-3.89c-2.417-3.921,3.779-9.988,4.273-11.258s.789-10.376,10.4-9.248C320.089,100.375,324.053,99.937,326.643,102.31Z" transform="translate(-283.625 -99.519)" fill="#263238"/>
      <path id="Path_2293" data-name="Path 2293" d="M348.509,130.992a6.116,6.116,0,0,0,2.4-2.756,5.549,5.549,0,0,0,.45-3.6,12.385,12.385,0,0,0-1.973-3.952c-.832-1.27-1.763-2.466-2.577-3.767-.043-.074.062-.136.117-.08a32.758,32.758,0,0,1,2.509,3.021,16.129,16.129,0,0,1,2.01,3.12,5.974,5.974,0,0,1,.617,3.323,5.85,5.85,0,0,1-1.079,2.565,12.471,12.471,0,0,1-2.392,2.2C348.509,131.109,348.447,131.023,348.509,130.992Z" transform="translate(-299.714 -105.87)" fill="#263238"/>
      <path id="Path_2294" data-name="Path 2294" d="M304,118.62c1-3.391,3.909-5.641,5.61-8.631a28.669,28.669,0,0,1,2.842-4.827.044.044,0,0,1,.068.055,22.325,22.325,0,0,0-2.257,4.236,24.531,24.531,0,0,1-2.663,4.063c-1.794,2.355-3.946,5.136-3.372,8.292a4.2,4.2,0,0,0,2.725,3.434c.062,0,.031.111,0,.086a4.7,4.7,0,0,1-2.737-2.515A6.023,6.023,0,0,1,304,118.62Z" transform="translate(-283.193 -101.395)" fill="#263238"/>
      <path id="Path_2295" data-name="Path 2295" d="M303.971,122.7a6.166,6.166,0,0,1,.678-3.662,8.705,8.705,0,0,1,2.62-2.663,9.584,9.584,0,0,0,3.083-2.947c0-.055.1,0,.08.049-1.116,2.133-3.36,3.2-4.834,5.012a6.36,6.36,0,0,0-.24,7.22,10.2,10.2,0,0,0,3.342,3.329v.037C306.369,127.686,304.279,125.485,303.971,122.7Z" transform="translate(-283.271 -104.561)" fill="#263238"/>
      <path id="Path_2296" data-name="Path 2296" d="M314.435,144.088c-.764,3.255-11.572,27.066-20.056,30.888-4.877,2.2-13.107,2.651-10.74-6.991,1.572-6.406,15.524-18.064,23.477-24.439C310.366,140.943,315.366,140.117,314.435,144.088Z" transform="translate(-275.332 -115.278)" fill="#eb9481"/>
      <path id="Path_2297" data-name="Path 2297" d="M319.1,159.62l-6.887-12.244a90.487,90.487,0,0,1,8.335-6.88c4.932-3.613,7.583-2.022,5.056,5.82A52.355,52.355,0,0,1,319.1,159.62Z" transform="translate(-286.448 -114.245)" fill="#fff"/>
      <path id="Path_2298" data-name="Path 2298" d="M315.074,151.152c.617.851,1.1,1.794,1.646,2.694s1.03,1.714,1.517,2.583c1.011,1.813,1.985,3.638,2.922,5.493,0,.031-.037.062-.055.031q-1.6-2.626-3.12-5.3c-.506-.882-.993-1.782-1.474-2.682s-1.067-1.85-1.492-2.787C315.006,151.152,315.056,151.121,315.074,151.152Z" transform="translate(-287.525 -119.032)" fill="#263238"/>
      <path id="Path_2299" data-name="Path 2299" d="M326.569,146.6a52.226,52.226,0,0,1-6.5,13.3l-5.321-9.47,12.1-11.03C327.808,140.335,327.851,142.7,326.569,146.6Z" transform="translate(-287.422 -114.534)" fill="#263238"/>
      <path id="Path_2300" data-name="Path 2300" d="M315.978,163.671l-1.517,8.015,31.856-.055s-5.851-24.26-13.471-32.337c-3.465-3.7-6.837-3.083-9.692-.709-.647.543-7.929,12.836-8.934,17C313.407,158.991,315.978,163.671,315.978,163.671Z" transform="translate(-287.159 -113.48)" fill="#fff"/>
      <path id="Path_2301" data-name="Path 2301" d="M327.781,178.64a27.591,27.591,0,0,0-4.155.3c-.678.111-1.35.253-2.022.407-.339.074-.672.142-1.011.2a4.5,4.5,0,0,1-1.073.1v.049a7.057,7.057,0,0,0,1.017.074,7.52,7.52,0,0,0,.986-.092c.69-.1,1.381-.24,2.072-.351,1.393-.228,2.793-.45,4.2-.573a.062.062,0,0,0-.012-.117Z" transform="translate(-289.252 -129.577)" fill="#263238"/>
      <path id="Path_2302" data-name="Path 2302" d="M334,180.8a29.938,29.938,0,0,0-3.4-.481c-.573-.043-1.141-.055-1.714-.055h-.82c-.271,0-.617.062-.906.068v.049c.284,0,.567.049.851.074s.573.031.857.055l1.708.111c1.147.068,2.281.148,3.422.253A.049.049,0,1,0,334,180.8Z" transform="translate(-292.181 -130.199)" fill="#263238"/>
      <path id="Path_2303" data-name="Path 2303" d="M339.442,144.635c.814,3.218,7.4,26.6,7.343,27.8,0,0,13.194,8.015,15.592.475,1.56-4.932-11.418-25.66-17.879-31.887C341.47,138.162,337.728,137.884,339.442,144.635Z" transform="translate(-296.725 -114.42)" fill="#eb9481"/>
      <path id="Path_2304" data-name="Path 2304" d="M355.437,152.928l-14,1.233a89.618,89.618,0,0,1-2.848-10.425c-1.264-5.98,1.276-7.75,7.4-2.22a52.485,52.485,0,0,1,9.445,11.412Z" transform="translate(-296.445 -114.063)" fill="#fff"/>
      <path id="Path_2305" data-name="Path 2305" d="M343.091,160.106c1.023-.21,2.09-.271,3.132-.395s1.985-.234,2.978-.321c2.072-.179,4.131-.308,6.208-.4a.031.031,0,0,1,0,.062c-2.035.253-4.075.469-6.116.666-1.017.1-2.035.166-3.052.24s-2.1.216-3.15.21a.031.031,0,1,1,0-.062Z" transform="translate(-298.279 -122.042)" fill="#263238"/>
      <path id="Path_2306" data-name="Path 2306" d="M341.531,159.212c-.166-.487-.314-.974-.456-1.467a1.114,1.114,0,0,0-.086-.3,17.92,17.92,0,0,1-.838-1.732s0-.037.031,0a14.632,14.632,0,0,1,.684,1.307,20.874,20.874,0,0,1-.543-2.287h.037c.345.968.617,1.954.943,2.935.154.469.851,2.818.875,2.818a3.224,3.224,0,0,1,.438,0c.086,0,.037.037,0,.043l-.617.142S341.673,159.619,341.531,159.212Z" transform="translate(-297.163 -120.409)" fill="#263238"/>
      <path id="Path_2307" data-name="Path 2307" d="M284.454,147.189c1.128-1.233,12.867-4.47,13.225-2.016,1.769,12.041-3.785,27.3-7.9,30.925-3.564,3.132-6.369-.382-7.448-3.348C281.346,170.038,283.344,148.422,284.454,147.189Z" transform="translate(-274.888 -116.401)" fill="#eb9481"/>
      <path id="Path_2308" data-name="Path 2308" d="M284.119,139.658a38.532,38.532,0,0,1-1.677-6.085,17.608,17.608,0,0,1,7.645-17.67c3.083-2.109,5.937-.851,3.083,1.911-2,1.942-3.551,3.12-4.02,3.94,0,0,4.242-.425,5.869,1.437a45.619,45.619,0,0,1,3.9,5.167,8.721,8.721,0,0,1-.9.82s1.517,4.482-.08,7.6Z" transform="translate(-274.935 -105.114)" fill="#eb9481"/>
      <path id="Path_2309" data-name="Path 2309" d="M282.25,132.188a27.173,27.173,0,0,1,5.265-7.207c2.787-2.466,8.816-6.48,10.623-4.408,1.319,1.523-.851,3.255-.851,3.255s2.842-1.128,3.736.506c.814,1.492-.943,2.731-.943,2.731s1.85-.388,2.349,1.2c.617,1.911-3.348,2.411-4.4,4.883C297.793,133.7,282.25,132.188,282.25,132.188Z" transform="translate(-274.96 -107.09)" fill="#eb9481"/>
      <path id="Path_2310" data-name="Path 2310" d="M294.278,130.83a14.8,14.8,0,0,1,7.577-4.55c.08,0,.129,0,.062.062a36.166,36.166,0,0,0-7.62,4.519S294.266,130.848,294.278,130.83Z" transform="translate(-279.571 -109.499)" fill="#263238"/>
      <path id="Path_2311" data-name="Path 2311" d="M298.4,135.454a16.639,16.639,0,0,1,7.842-4.094c.074,0,.123.043.055.068a38.842,38.842,0,0,0-7.873,4.057S298.386,135.454,298.4,135.454Z" transform="translate(-281.151 -111.447)" fill="#263238"/>
      <path id="Path_2312" data-name="Path 2312" d="M286.71,120.944a20.344,20.344,0,0,1,3.212-3.872,9.34,9.34,0,0,1,4.377-2.466,2.047,2.047,0,0,1,1.307.123.95.95,0,0,1,.456.536,1.56,1.56,0,0,1,.092.672,2.244,2.244,0,0,1-.512,1.233,5.546,5.546,0,0,1-.912.912c-.617.536-1.233,1.1-1.85,1.677l-.894.875a10.037,10.037,0,0,0-.826.9l-.234-.234c.974-.617,1.948-1.233,2.947-1.782a22.65,22.65,0,0,1,3.083-1.547,3.7,3.7,0,0,1,1.776-.191,2.152,2.152,0,0,1,1.566.912,1.511,1.511,0,0,1,.2.931,2.361,2.361,0,0,1-.284.875,5.856,5.856,0,0,1-1.1,1.381l-.173-.277a7,7,0,0,1,1.813-.358,3.477,3.477,0,0,1,.943.062,1.757,1.757,0,0,1,.869.444,1.726,1.726,0,0,1,.444.875,2.028,2.028,0,0,1,0,.962,2.953,2.953,0,0,1-1.091,1.517l-.1-.234a3.249,3.249,0,0,1,1.171.08,1.794,1.794,0,0,1,1,.617,1.738,1.738,0,0,1,.253.543,1.627,1.627,0,0,1,.074.617,1.517,1.517,0,0,1-.617,1.017,17.591,17.591,0,0,1-1.911,1.233,5.8,5.8,0,0,0-1.658,1.486h0c.1.481.179.962.234,1.455a6.492,6.492,0,0,1,0,1.467,6.51,6.51,0,0,0-.068-1.467c-.068-.481-.16-.962-.271-1.437h0a5.728,5.728,0,0,1,1.646-1.554q.955-.57,1.85-1.233a1.233,1.233,0,0,0,.438-1.406,1.443,1.443,0,0,0-.228-.469,2.158,2.158,0,0,0-1.954-.617l-.462.049.37-.29a2.67,2.67,0,0,0,.962-1.375,1.782,1.782,0,0,0,0-.826,1.523,1.523,0,0,0-.364-.715,2.127,2.127,0,0,0-1.578-.407,6.824,6.824,0,0,0-1.72.351l-.684.228.518-.506a5.45,5.45,0,0,0,1.023-1.3,1.5,1.5,0,0,0,.092-1.467,1.85,1.85,0,0,0-1.319-.74,3.465,3.465,0,0,0-1.6.185,24.109,24.109,0,0,0-3.046,1.51q-1.486.839-2.935,1.757l-.789.5.555-.734a10.939,10.939,0,0,1,.875-.949c.3-.3.617-.617.906-.875.617-.58,1.233-1.141,1.887-1.683a5.2,5.2,0,0,0,.875-.851,1.96,1.96,0,0,0,.475-1.054,1.375,1.375,0,0,0-.074-.567.66.66,0,0,0-.327-.4,1.8,1.8,0,0,0-1.147-.111,9.39,9.39,0,0,0-4.316,2.343,20.887,20.887,0,0,0-3.249,3.668Z" transform="translate(-276.67 -105.001)" fill="#263238"/>
      <path id="Path_2313" data-name="Path 2313" d="M305.038,156.7a44.823,44.823,0,0,1-.358,4.809c-.2,1.6-.481,3.181-.808,4.76a44.864,44.864,0,0,1-1.319,4.649,23.329,23.329,0,0,1-2.053,4.365,35.761,35.761,0,0,0,1.714-4.476q.7-2.293,1.233-4.636c.364-1.56.617-3.132.906-4.71S304.828,158.3,305.038,156.7Z" transform="translate(-281.958 -121.164)" fill="#263238"/>
      <path id="Path_2314" data-name="Path 2314" d="M325,178.894c-5.549-1.88-11.2-4.679-14.723-9.655a3.021,3.021,0,0,1-.617-1.887c-1.615-2.2-1.067-3.625-1.067-3.625-.875-2.515-.111-3.9-.111-3.9s-1.85-2.6-.487-4c1.554-1.566,3.878,2.4,6.492,3.8,5.986,3.206,15.413,6.091,17.213,6.843Z" transform="translate(-284.641 -120.695)" fill="#eb9481"/>
      <path id="Path_2315" data-name="Path 2315" d="M319.044,169.891a44.093,44.093,0,0,1-5.086-3.083,44.663,44.663,0,0,1-4.76-4.464.055.055,0,0,0-.08.068,23.1,23.1,0,0,0,9.864,7.577C319.087,170.009,319.13,169.941,319.044,169.891Z" transform="translate(-285.261 -123.326)" fill="#263238"/>
      <path id="Path_2316" data-name="Path 2316" d="M317.718,176.264a32.3,32.3,0,0,1-8.348-7.614h-.031a20.752,20.752,0,0,0,8.329,7.67C317.761,176.387,317.829,176.32,317.718,176.264Z" transform="translate(-285.347 -125.747)" fill="#263238"/>
      <path id="Path_2317" data-name="Path 2317" d="M317.566,180.577a31.636,31.636,0,0,1-6.517-6.017h-.031a19.354,19.354,0,0,0,6.5,6.1C317.615,180.75,317.671,180.651,317.566,180.577Z" transform="translate(-285.991 -128.013)" fill="#263238"/>
      <path id="Path_2318" data-name="Path 2318" d="M327.307,162.294c.943.111,1.011-.382-.191-1.572s-6.967-4.883-5.512-6.782,9.519,3.428,11.369,5.549a45.251,45.251,0,0,1,4.088,6.239C335.267,165.013,330.791,163.687,327.307,162.294Z" transform="translate(-289.961 -119.952)" fill="#eb9481"/>
      <path id="Path_2319" data-name="Path 2319" d="M340.446,173.238c-1.85-.216-12.626,8.989-10.308,10.481,10.9,7.022,22.121,7.4,24.661,6.936,3.3-.617,4.7-4.6,3.977-6.677C357.715,180.963,342.29,173.453,340.446,173.238Z" transform="translate(-293.199 -127.505)" fill="#eb9481"/>
      <path id="Path_2320" data-name="Path 2320" d="M360.1,179.529c-5.395-4.168-13.4-6.541-13.409-6.548-.111-.062-.339.092-.277.129,1.171.617,9.34,3.909,13.564,6.548C360.014,179.683,360.137,179.559,360.1,179.529Z" transform="translate(-299.561 -127.402)" fill="#263238"/>
      <path id="Path_2321" data-name="Path 2321" d="M312.934,158.529a26.246,26.246,0,0,0-1.967-1.739,4.152,4.152,0,0,0-2.213-1.19,1.233,1.233,0,0,0-.567.154,1.141,1.141,0,0,0-.388.432,2.337,2.337,0,0,0-.173,1.233,3.434,3.434,0,0,0,.351,1.233,11.922,11.922,0,0,0,.617,1.141l.037.062v.068a5.4,5.4,0,0,0-.265,1.887,5.456,5.456,0,0,0,.395,1.88v.117a1.949,1.949,0,0,0-.117.894,3.508,3.508,0,0,0,.21.931,6.589,6.589,0,0,0,.4.875,8.848,8.848,0,0,0,.53.82l.031.043v.074a1.85,1.85,0,0,0,.21,1.159,7.948,7.948,0,0,0,.647,1.1,17.047,17.047,0,0,0,1.658,1.985,16.677,16.677,0,0,1-1.763-1.905,6.26,6.26,0,0,1-.7-1.11,3.417,3.417,0,0,1-.234-.617,1.233,1.233,0,0,1,0-.715v.117a8.512,8.512,0,0,1-.567-.826,5.677,5.677,0,0,1-.444-.912,3.58,3.58,0,0,1-.228-.993,2.139,2.139,0,0,1,.136-1.048v.117a5.838,5.838,0,0,1-.432-1.973,5.315,5.315,0,0,1,.3-2v.129a10.736,10.736,0,0,1-.617-1.178,3.755,3.755,0,0,1-.364-1.3,2.54,2.54,0,0,1,.222-1.356,1.313,1.313,0,0,1,.493-.512,1.375,1.375,0,0,1,.69-.166,2.417,2.417,0,0,1,1.264.475,12.341,12.341,0,0,1,1.03.826C311.714,157.271,312.336,157.887,312.934,158.529Z" transform="translate(-284.602 -120.681)" fill="#263238"/>
      <path id="Path_2322" data-name="Path 2322" d="M326.34,139.514s-.364,3.773,2.355,4.236,7.953-5.906,7.953-5.906a8.024,8.024,0,0,0-4.932-.993,8.828,8.828,0,0,0-5.376,2.663Z" transform="translate(-291.861 -113.541)" fill="#eb9481"/>
      <path id="Path_2323" data-name="Path 2323" d="M333.281,132.537c-.1.617-2.818,4.827-5.654,4.864-.925,0-1.233-5.031-1.233-5.031l-.1-.37-1.48-5.142,5.882-4.316.857-.573s.314,1.43.684,3.224l.055.253a1.511,1.511,0,0,0,.062.29c.062.265.117.543.173.814s.08.407.117.617.08.432.117.647A33.521,33.521,0,0,1,333.281,132.537Z" transform="translate(-291.28 -107.846)" fill="#eb9481"/>
      <path id="Path_2324" data-name="Path 2324" d="M332.263,125.2a10.709,10.709,0,0,1-5.943,6.782l-1.48-5.142,5.882-4.316.857-.573S331.893,123.4,332.263,125.2Z" transform="translate(-291.292 -107.839)" fill="#263238"/>
      <path id="Path_2325" data-name="Path 2325" d="M311.113,109.829c-2.152,9.149,3.083,11.474,5.056,11.936,1.788.419,7.941,1.621,11.03-7.257s-.487-12.768-4.531-13.946S313.271,100.692,311.113,109.829Z" transform="translate(-285.832 -99.497)" fill="#eb9481"/>
      <path id="Path_2326" data-name="Path 2326" d="M314.253,112.69a4.538,4.538,0,0,0,.617,0,1.03,1.03,0,0,0,.666-.123.339.339,0,0,0,.08-.4.832.832,0,0,0-.758-.358,1.184,1.184,0,0,0-.832.265.351.351,0,0,0,.228.617Z" transform="translate(-287.098 -103.948)" fill="#263238"/>
      <path id="Path_2327" data-name="Path 2327" d="M323.652,114.89a5.548,5.548,0,0,1-.617-.259,1.079,1.079,0,0,1-.555-.382.339.339,0,0,1,.086-.4.82.82,0,0,1,.838,0,1.2,1.2,0,0,1,.66.58.351.351,0,0,1-.413.462Z" transform="translate(-290.375 -104.688)" fill="#263238"/>
      <path id="Path_2328" data-name="Path 2328" d="M321.392,118.43s.043.043.037.068c-.173.617-.259,1.35.259,1.7h0C321.009,119.965,321.133,118.991,321.392,118.43Z" transform="translate(-289.89 -106.489)" fill="#263238"/>
      <path id="Path_2329" data-name="Path 2329" d="M322.135,117.586c1.017.16.617,2.189-.321,2.041S321.278,117.45,322.135,117.586Z" transform="translate(-289.925 -106.163)" fill="#263238"/>
      <path id="Path_2330" data-name="Path 2330" d="M323.192,117.88c.154.148.29.388.5.45s.469-.1.672-.277h.031c-.074.388-.3.758-.728.734s-.617-.419-.617-.826C323.05,117.948,323.13,117.818,323.192,117.88Z" transform="translate(-290.605 -106.271)" fill="#263238"/>
      <path id="Path_2331" data-name="Path 2331" d="M315.33,117.22s-.055,0-.055.043c-.1.617-.321,1.338-.925,1.443v.037C315.059,118.774,315.367,117.83,315.33,117.22Z" transform="translate(-287.269 -106.025)" fill="#263238"/>
      <path id="Path_2332" data-name="Path 2332" d="M314.588,115.985c-1-.265-1.455,1.745-.53,1.991S315.426,116.195,314.588,115.985Z" transform="translate(-286.965 -105.542)" fill="#263238"/>
      <path id="Path_2333" data-name="Path 2333" d="M313.822,115.789c-.185.068-.382.228-.58.2s-.333-.29-.425-.536h-.037c-.1.382-.062.814.29.968s.617-.129.826-.487C313.927,115.906,313.9,115.789,313.822,115.789Z" transform="translate(-286.649 -105.346)" fill="#263238"/>
      <path id="Path_2334" data-name="Path 2334" d="M319.221,126.917a.974.974,0,0,1-.617.3,1.751,1.751,0,0,1-.617-.247h0a.869.869,0,0,0,.752.462.672.672,0,0,0,.58-.487S319.221,126.9,319.221,126.917Z" transform="translate(-288.657 -109.742)" fill="#263238"/>
      <path id="Path_2335" data-name="Path 2335" d="M315.815,118.6s-.327.906-.419,1.35c0,.037.1.08.247.123h0a2.145,2.145,0,0,0,2.2-.358c.043-.037,0-.092-.049-.074a3.206,3.206,0,0,1-2.035.148c0-.129.617-1.535.543-1.554a3.767,3.767,0,0,0-1.048,0c.617-1.917,1.541-3.7,2.127-5.623,0-.074-.074-.111-.1-.055a32.676,32.676,0,0,0-2.559,5.956C314.644,118.774,315.624,118.632,315.815,118.6Z" transform="translate(-287.408 -104.225)" fill="#263238"/>
      <path id="Path_2336" data-name="Path 2336" d="M316.39,124.3a2.639,2.639,0,0,0,.783,1.067,1.153,1.153,0,0,0,.672.24c.536,0,.678-.444.7-.857a2.86,2.86,0,0,0-.049-.66,3.4,3.4,0,0,1-2.1.21Z" transform="translate(-288.051 -108.659)" fill="#263238"/>
      <path id="Path_2337" data-name="Path 2337" d="M317.66,125.756a1.153,1.153,0,0,0,.672.24c.536,0,.678-.444.7-.857A1.233,1.233,0,0,0,317.66,125.756Z" transform="translate(-288.538 -109.049)" fill="#ff98b9"/>
      <path id="Path_2338" data-name="Path 2338" d="M327.289,115.263a3.841,3.841,0,0,1-1.467-3.5A10,10,0,0,1,322.5,107.7c0,.2.179,1.652.284,2.386a10.423,10.423,0,0,1-6.43-7.1,10.2,10.2,0,0,0-3.292,3.144,11.075,11.075,0,0,1,3.027-5.549,5.851,5.851,0,0,1,5.777-1.233,8.354,8.354,0,0,1,7.478,4.131C332.24,108.339,327.289,115.263,327.289,115.263Z" transform="translate(-286.774 -99.061)" fill="#263238"/>
      <path id="Path_2339" data-name="Path 2339" d="M320.542,110.064a10.778,10.778,0,0,0,2.744,1.714h0a9.248,9.248,0,0,1-3.7-3.459,8.823,8.823,0,0,1-.894-2.016,6.1,6.1,0,0,1-.3-2.374.049.049,0,0,0-.092,0,7.133,7.133,0,0,0,0,2.374,6.7,6.7,0,0,0,.882,2.189,7.49,7.49,0,0,0,1.363,1.572Z" transform="translate(-288.745 -100.916)" fill="#263238"/>
      <path id="Path_2340" data-name="Path 2340" d="M334.665,125.5a2.5,2.5,0,0,1-.45.049,1.6,1.6,0,0,1-.438-.055,1.233,1.233,0,0,1-.512-.253,1.542,1.542,0,0,1-.314-.321,1.708,1.708,0,0,1-.271-.573l.876-2.411s2.466-2.6,3.662-1.689S336.293,125.151,334.665,125.5Z" transform="translate(-294.298 -107.112)" fill="#eb9481"/>
      <path id="Path_2341" data-name="Path 2341" d="M337.107,122.2v.043a4.133,4.133,0,0,0-2.417,2.183.875.875,0,0,1,1.332-.043s0,.062-.037.049a.974.974,0,0,0-1.116.185,5.182,5.182,0,0,0-.617.783c-.062.092-.234,0-.179-.092h0C334.246,123.925,335.6,122.118,337.107,122.2Z" transform="translate(-294.828 -107.933)" fill="#263238"/>
      <path id="Path_2342" data-name="Path 2342" d="M335.41,127.689a.432.432,0,1,1-.259-.555.425.425,0,0,1,.259.555Z" transform="translate(-295.024 -109.817)" fill="#fff"/>
    </g>
    <g id="freepik--character-1--inject-19" transform="translate(83.834 75.697)">
      <path id="Path_2343" data-name="Path 2343" d="M207.01,415c-1.424.444-41.807-.419-43.323-1.424-.58-.376-.8-6.27-.857-13.391v-4.741c0-1.911,0-3.841.043-5.721.1-8.434.358-15.863.358-15.863l26.289.487-.3,15.863-.111,5.721-.228,4.735s15.315,7.25,16.862,8.533S208.428,414.563,207.01,415Z" transform="translate(-130.407 -198.281)" fill="#ad6359"/>
      <path id="Path_2344" data-name="Path 2344" d="M207.01,424.868c-1.424.444-41.807-.419-43.323-1.424-.58-.376-.8-6.27-.857-13.391v-4.741c0-1.911,0-3.841.043-5.721l26.344.487-.111,5.721-.228,4.735s15.315,7.25,16.862,8.533S208.428,424.43,207.01,424.868Z" transform="translate(-130.407 -208.148)" fill="#fff"/>
      <path id="Path_2345" data-name="Path 2345" d="M207.039,428.452c-.925.284-18.126,0-30.648-.462-2.892-.117-5.549-.247-7.682-.382-2.941-.191-4.932-.388-5.234-.617-.7-.469-.882-9.112-.875-18.231l26.424.493-.228,4.76s15.413,7.287,16.955,8.576S208.47,428.02,207.039,428.452Z" transform="translate(-130.318 -211.665)" fill="#c7c7c7"/>
      <path id="Path_2346" data-name="Path 2346" d="M208.252,437.522c-6.782-.314-34.273-.931-41.018-.728-.055,0-.055.043,0,.043,6.732.462,34.211.857,41.018.8C208.381,437.658,208.381,437.553,208.252,437.522Z" transform="translate(-132.08 -222.4)" fill="#263238"/>
      <path id="Path_2347" data-name="Path 2347" d="M201.695,414.74c-2.663-.555-5.949-.216-8.015,1.652-.08.068,0,.185.111.16a37.913,37.913,0,0,1,7.91-1.474.173.173,0,0,0-.006-.339Z" transform="translate(-142.224 -213.865)" fill="#263238"/>
      <path id="Path_2348" data-name="Path 2348" d="M204.795,416.7c-2.67-.555-5.956-.216-8.015,1.646-.08.074,0,.185.111.16a37.362,37.362,0,0,1,7.91-1.467.173.173,0,0,0-.006-.339Z" transform="translate(-143.413 -214.616)" fill="#263238"/>
      <path id="Path_2349" data-name="Path 2349" d="M207.875,418.658c-2.67-.561-5.956-.216-8.046,1.646-.08.074,0,.185.111.16a37.9,37.9,0,0,1,7.916-1.474.167.167,0,1,0,.018-.333Z" transform="translate(-144.583 -215.366)" fill="#263238"/>
      <path id="Path_2350" data-name="Path 2350" d="M210.995,420.61c-2.67-.555-5.949-.216-8.015,1.652-.08.068,0,.185.111.16a37.843,37.843,0,0,1,7.9-1.474.173.173,0,0,0,0-.339Z" transform="translate(-145.791 -216.116)" fill="#263238"/>
      <path id="Path_2351" data-name="Path 2351" d="M186.381,430.4c-3.4-.086-6.837-.2-9.982-.321-2.9-.111-5.549-.24-7.682-.376-2.941-.191-4.932-.382-5.234-.617-.617-.413-.832-7.09-.863-14.865C168.613,418.246,180.388,426.292,186.381,430.4Z" transform="translate(-130.326 -213.758)" fill="#a6a6a6"/>
      <path id="Path_2352" data-name="Path 2352" d="M180.341,334.475l-30,.031s1.646-67.535,1.326-69.107c-.777-3.755-17.836-63.3-17.836-63.3l23.687.407,6.375.142s1.017,9.914,1.3,10.968c3.964,14.445,11.714,39.106,13.268,48.256C181.192,277.717,180.341,334.475,180.341,334.475Z" transform="translate(-119.286 -132.416)" fill="#263238"/>
      <path id="Path_2353" data-name="Path 2353" d="M190.574,408.465c-4.679-.123-21.258-.617-27.5-.148-.049,0-.049.08,0,.086,2.133.351,22.812.253,27.5.191a.068.068,0,0,0,0-.129Z" transform="translate(-130.487 -211.419)" fill="#37474f"/>
      <path id="Path_2354" data-name="Path 2354" d="M156.519,266.26c-.894-3.65-7.577-26.394-9.618-33.582s-3.964-14.4-5.728-21.646c-.222-.919-.45-1.85-.7-2.75,0-.08-.129-.043-.117.031.678,3.65,1.566,7.275,2.429,10.888s1.769,7.213,2.737,10.8q2.9,10.82,6.338,21.48c1.141,3.545,3.027,10.814,4.032,14.4s-.617,62.393-.53,63.348a.216.216,0,0,0,.425,0C155.921,322.3,157.4,269.867,156.519,266.26Z" transform="translate(-121.79 -134.77)" fill="#37474f"/>
      <path id="Path_2355" data-name="Path 2355" d="M157.519,202.5s-5.8,63.2-5.857,62.886c-.746-3.631-16.788-59.624-17.793-63.126-.037-.111-.049-.166-.049-.166Z" transform="translate(-119.282 -132.413)" fill="#37474f"/>
      <path id="Path_2356" data-name="Path 2356" d="M156.52,420.621c-1.424.444-41.807-.425-43.323-1.43-.58-.376-.8-6.27-.857-13.391v-4.741c0-1.905,0-3.841.037-5.721.1-8.434.358-15.857.358-15.857l26.295.487-.308,15.857-.111,5.721-.228,4.741s15.315,7.244,16.862,8.533S157.951,420.183,156.52,420.621Z" transform="translate(-111.045 -200.437)" fill="#ad6359"/>
      <path id="Path_2357" data-name="Path 2357" d="M156.52,430.484c-1.424.444-41.807-.425-43.323-1.43-.58-.376-.8-6.27-.857-13.391v-4.741c0-1.905,0-3.841.037-5.721l26.344.487-.111,5.721-.228,4.741s15.315,7.244,16.862,8.533S157.951,430.046,156.52,430.484Z" transform="translate(-111.045 -210.299)" fill="#fff"/>
      <path id="Path_2358" data-name="Path 2358" d="M156.569,434.066c-.925.284-18.126.031-30.648-.462-2.892-.117-5.549-.247-7.682-.376-2.941-.191-4.932-.388-5.234-.617-.7-.469-.882-9.112-.875-18.231l26.424.487-.228,4.76s15.413,7.287,16.955,8.582S157.993,433.616,156.569,434.066Z" transform="translate(-110.965 -213.82)" fill="#c7c7c7"/>
      <path id="Path_2359" data-name="Path 2359" d="M157.788,443.175c-6.782-.308-34.279-.931-41.024-.721-.055,0-.055.037,0,.043,6.732.456,34.211.851,41.018.8C157.924,443.286,157.93,443.187,157.788,443.175Z" transform="translate(-112.726 -224.569)" fill="#263238"/>
      <path id="Path_2360" data-name="Path 2360" d="M151.225,420.358c-2.663-.561-5.949-.216-8.015,1.646-.08.074,0,.185.111.16a37.9,37.9,0,0,1,7.916-1.474.167.167,0,0,0-.012-.333Z" transform="translate(-122.871 -216.018)" fill="#263238"/>
      <path id="Path_2361" data-name="Path 2361" d="M154.325,422.31c-2.67-.555-5.956-.216-8.015,1.652-.08.068,0,.185.111.16a37.769,37.769,0,0,1,7.885-1.48.173.173,0,0,0,.018-.333Z" transform="translate(-124.059 -216.768)" fill="#263238"/>
      <path id="Path_2362" data-name="Path 2362" d="M157.405,424.269c-2.67-.555-5.956-.216-8.046,1.646-.08.074,0,.191.111.16a37.893,37.893,0,0,1,7.916-1.449.179.179,0,0,0,.018-.358Z" transform="translate(-125.229 -217.519)" fill="#263238"/>
      <path id="Path_2363" data-name="Path 2363" d="M160.515,426.228c-2.67-.561-5.949-.216-8.015,1.646-.08.074,0,.185.111.16a37.436,37.436,0,0,1,7.91-1.467.173.173,0,0,0-.006-.339Z" transform="translate(-126.433 -218.269)" fill="#263238"/>
      <path id="Path_2364" data-name="Path 2364" d="M139.352,337.471l-29.112-.536s8.175-105,7.158-110.562c-1.665-9.106.166-17.417,2.589-24.433l29.914.524s.413,7.972-2.6,12.67c0,0-2.688,1.634-4,2.349Z" transform="translate(-110.24 -132.355)" fill="#263238"/>
      <path id="Path_2365" data-name="Path 2365" d="M140,412.959c-4.414-.2-3.144-.2-7.559-.351-2.164-.074-16.363-.536-18.391-.247-.043,0-.049.08,0,.086,2.01.382,16.215.617,18.379.617,4.421.062,3.15,0,7.571,0a.068.068,0,0,0,0-.1Z" transform="translate(-111.687 -213.009)" fill="#37474f"/>
      <path id="Path_2366" data-name="Path 2366" d="M168.216,221.309a55,55,0,0,0-8.064,4.581.094.094,0,0,0,.1.16c2.725-1.443,5.512-2.842,8.15-4.427C168.611,221.5,168.432,221.216,168.216,221.309Z" transform="translate(-129.363 -139.775)" fill="#37474f"/>
      <path id="Path_2367" data-name="Path 2367" d="M167.071,220.41a13.217,13.217,0,0,0-.413,1.671,3.588,3.588,0,0,0-.111,1.35c0,.086.136.08.179,0a4.457,4.457,0,0,0,.462-1.344c.148-.518.3-1.036.438-1.56a.284.284,0,1,0-.555-.117Z" transform="translate(-131.824 -139.351)" fill="#37474f"/>
      <path id="Path_2368" data-name="Path 2368" d="M166.869,214.289c.086-.469.173-.943.265-1.412s.228-.974.29-1.467c0-.08.136-.049.117,0-.08.475-.1.962-.148,1.443s-.1.962-.154,1.437c-.111.894-.277,1.794-.475,2.67a3.151,3.151,0,0,0,1.319-.518,2.516,2.516,0,0,0,.721-1.35c.148-.536.277-1.085.438-1.621a10.884,10.884,0,0,0,.444-1.806c0-.08.136-.055.123,0a19.4,19.4,0,0,1-.8,3.81,2.071,2.071,0,0,1-.734,1.233,4.125,4.125,0,0,1-1.6.444c-.062.031-.16,0-.154-.08C166.6,216.187,166.7,215.226,166.869,214.289Z" transform="translate(-131.825 -135.967)" fill="#37474f"/>
      <path id="Path_2369" data-name="Path 2369" d="M124.57,229.108c-.166-2.09-.469-4.168-.66-6.252a48.814,48.814,0,0,1,.986-12.472c.166-.962-.284-.475-.3-.395a48.977,48.977,0,0,0-1.134,11.3c.111,3.7.7,7.318.684,11.005s-.37,7.46-.678,11.178-.617,7.478-.931,11.215q-1.85,22.556-3.613,45.111c-.333,4.2-.617,8.4-.974,12.6s-.82,14.8-1.054,19.112c0,.37.53.351.567,0,.777-7.54,1.406-21.381,2.028-28.934s1.165-14.969,1.782-22.472,1.184-14.957,1.769-22.435c.29-3.742.567-7.485.857-11.221s.617-7.454.752-11.19A55.248,55.248,0,0,0,124.57,229.108Z" transform="translate(-112.794 -135.367)" fill="#37474f"/>
      <path id="Path_2370" data-name="Path 2370" d="M140.495,210.609a.068.068,0,0,0-.117,0,4.988,4.988,0,0,0-.3,1.523,10.481,10.481,0,0,1-.413,1.64,6.523,6.523,0,0,1-1.757,2.83c-1.819,1.64-4.217,2.213-6.535,2.737-.086,0-.055.136,0,.142a10.315,10.315,0,0,0,4.032-.555,8.38,8.38,0,0,0,3.132-1.677,5.752,5.752,0,0,0,1.732-3,10.847,10.847,0,0,0,.228-1.85c0-.3,0-.617,0-.888A2.466,2.466,0,0,0,140.495,210.609Z" transform="translate(-118.325 -135.666)" fill="#37474f"/>
      <path id="Path_2371" data-name="Path 2371" d="M165.453,141.674c2.293,7.2,15.234,24.661,20.851,26.313,4.063,1.233,21.024-6.708,25.8-9.772,4.612-2.953-6.356-16.548-9.18-15-3.989,2.182-13.2,9.02-14.858,8.915-1.159-.074-7.269-4.932-16.5-13.527C166.464,133.851,164.084,137.359,165.453,141.674Z" transform="translate(-131.266 -107.195)" fill="#ad6359"/>
      <path id="Path_2372" data-name="Path 2372" d="M234.818,138.619c2.6-.746,5.512-1.813,8.342-1.6s4.932,4.094,4.883,5.16-1.523,7.67-4.316,7.5-.82-5.185-.894-5.777-.129-1.35-.666-1.326-10.167,3.9-10.167,3.9Z" transform="translate(-156.932 -107.45)" fill="#ad6359"/>
      <path id="Path_2373" data-name="Path 2373" d="M236.559,138.834c.16,0,7.91-2.528,10.734-2.312s4.932,4.094,4.889,5.16-1.523,7.67-4.347,7.5-.82-5.185-.894-5.777-.129-1.35-.666-1.326-10.136,3.9-10.136,3.9Z" transform="translate(-158.519 -107.264)" fill="#ad6359"/>
      <path id="Path_2374" data-name="Path 2374" d="M249.878,152.145a3.323,3.323,0,0,1-.376-1.7,5.924,5.924,0,0,1,.21-1.8,9.659,9.659,0,0,0,.438-1.535,3.15,3.15,0,0,0-.308-1.517c-.2-.413-.617-.3-.98-.2a14.354,14.354,0,0,0-1.578.617l-1.658.734a15.211,15.211,0,0,0-1.7.8c-.043,0,0,.1.031.08a14.088,14.088,0,0,0,1.467-.561l1.665-.617c.518-.2,1.03-.419,1.547-.617a1.677,1.677,0,0,1,.758-.185c.216.062.29.617.327.777a2.639,2.639,0,0,1-.185,1.523,7.606,7.606,0,0,0-.382,1.529,4.112,4.112,0,0,0,.031,1.48,5.6,5.6,0,0,0,.617,1.233C249.817,152.249,249.915,152.2,249.878,152.145Z" transform="translate(-161.499 -110.636)" fill="#263238"/>
      <path id="Path_2375" data-name="Path 2375" d="M221.57,141.773s8.255-6.677,9.969-8.015c3.44-2.651,17.553-7.466,19.482-7.559s2.392,3.89-7.2,7.429c-5.056,1.85-6.1,4.636-6.1,6.208s1.326,4.575,3.958,4.655,4.568-3.656,7.016-3.94.586,4.051-1.276,6.511a16.147,16.147,0,0,1-7.4,5.111c-2.324.721-9.55,3.342-9.55,3.342Z" transform="translate(-152.932 -103.31)" fill="#ad6359"/>
      <path id="Path_2376" data-name="Path 2376" d="M255.124,147.43c-1.036.709-2.219,1.64-3.527,1.609a3.222,3.222,0,0,1-2.737-2.09,4.988,4.988,0,0,1-.475-3.7,6.165,6.165,0,0,1,1.979-2.842,14.8,14.8,0,0,1,3.7-2.164c.055,0,0-.111-.049-.086-1.233.469-5.1,1.788-6.048,5.068a5.117,5.117,0,0,0,.512,3.755,3.656,3.656,0,0,0,2.583,2.318c1.547.222,2.959-.968,4.131-1.85C255.247,147.437,255.179,147.393,255.124,147.43Z" transform="translate(-162.996 -107.895)" fill="#263238"/>
      <path id="Path_2377" data-name="Path 2377" d="M202.245,143.112l5.968,21.246s-17.744,5.493-22.657,3.81-16.751-17.059-20.648-26.2c-2.367-5.549,1.036-8.989,7-3.829,6.165,5.3,14.747,12.639,15.413,12.947S202.245,143.112,202.245,143.112Z" transform="translate(-130.913 -106.918)" fill="#455a64"/>
      <path id="Path_2378" data-name="Path 2378" d="M221.827,161.93c-.345-1.584-1.677-7.947-1.887-9.55h.049c.5,1.492,2,7.731,2.343,9.316a88.733,88.733,0,0,1,1.782,9.562c0,.055-.08.086-.1.031C223.06,168.225,222.492,165.093,221.827,161.93Z" transform="translate(-152.307 -113.35)" fill="#263238"/>
      <path id="Path_2379" data-name="Path 2379" d="M164.909,141.969c3.157,7.4,11.535,18.9,17.207,23.89l-13.927-30.013h0C164.675,134.7,163.1,137.7,164.909,141.969Z" transform="translate(-130.914 -106.916)" fill="#263238"/>
      <path id="Path_2380" data-name="Path 2380" d="M121.474,181.48l38.354.222c.166-.166,1.665-.82,1.233-6.344-.98-12.583-5.179-34.969-7.879-39.741a8.194,8.194,0,0,0-11.165-3.4,22.111,22.111,0,0,0-6.924,7.109c-6.4,9.519-11.819,26.35-14.112,35.6A9.108,9.108,0,0,0,121.474,181.48Z" transform="translate(-114.223 -105.237)" fill="#455a64"/>
      <path id="Path_2381" data-name="Path 2381" d="M162.065,134.329c-.66-.117-4.556-4.149-5.549-7a43.522,43.522,0,0,1,1.159-4.316c.37-1.375.752-2.916,1-4.353.049-.29.956.419.956.419l1.776.771,5.882,2.571a22.984,22.984,0,0,0-1.819,5.345,2.878,2.878,0,0,0-.043.617.567.567,0,0,1,0,.1C165.444,129.606,163.138,134.52,162.065,134.329Z" transform="translate(-127.984 -100.392)" fill="#ad6359"/>
      <path id="Path_2382" data-name="Path 2382" d="M167.026,128.834a.566.566,0,0,1,0,.1,5.357,5.357,0,0,1-.931-.111c-6.023-1.184-5.444-9-5.444-9l2.374.518,5.851,2.552a22.984,22.984,0,0,0-1.819,5.345,2.879,2.879,0,0,0-.031.6Z" transform="translate(-129.565 -100.864)" fill="#263238"/>
      <path id="Path_2383" data-name="Path 2383" d="M179.35,96.55a5.942,5.942,0,0,1,3.039,4.316c.3,2.929-.58,5.876-.838,6S179.35,96.55,179.35,96.55Z" transform="translate(-136.742 -91.941)" fill="#263238"/>
      <path id="Path_2384" data-name="Path 2384" d="M159.953,99.28c-1.344,3.083-.691,12.571,1.363,14.9,2.978,3.372,8.366,4.266,11.356.573,2.9-3.582,1.85-15.906-.506-18.07C168.72,93.51,161.932,94.724,159.953,99.28Z" transform="translate(-129.034 -91.311)" fill="#ad6359"/>
      <path id="Path_2385" data-name="Path 2385" d="M173.686,112.7s-.043,0-.043.055c.062.617,0,1.381-.543,1.628v.037C173.809,114.272,173.846,113.292,173.686,112.7Z" transform="translate(-134.345 -98.134)" fill="#263238"/>
      <path id="Path_2386" data-name="Path 2386" d="M172.591,111.68c-1.03,0-.98,2.047,0,2.059S173.454,111.686,172.591,111.68Z" transform="translate(-133.861 -97.743)" fill="#263238"/>
      <path id="Path_2387" data-name="Path 2387" d="M180.038,112.72a.05.05,0,0,1,.049.055c0,.617.1,1.369.684,1.566v.037C180.057,114.3,179.927,113.324,180.038,112.72Z" transform="translate(-136.992 -98.142)" fill="#263238"/>
      <path id="Path_2388" data-name="Path 2388" d="M180.631,111.608c1.023-.1,1.153,1.954.2,2.053S179.743,111.694,180.631,111.608Z" transform="translate(-137.005 -97.714)" fill="#263238"/>
      <path id="Path_2389" data-name="Path 2389" d="M171.335,109.257c.277-.08.524-.2.8-.3a1.356,1.356,0,0,0,.746-.462.432.432,0,0,0-.08-.524,1.091,1.091,0,0,0-1.1-.086,1.6,1.6,0,0,0-.894.709.462.462,0,0,0,.53.666Z" transform="translate(-133.444 -96.245)" fill="#263238"/>
      <path id="Path_2390" data-name="Path 2390" d="M181.139,109.042a7.313,7.313,0,0,1-.826-.191,1.363,1.363,0,0,1-.808-.358.444.444,0,0,1,0-.53,1.073,1.073,0,0,1,1.073-.228,1.572,1.572,0,0,1,.986.58.462.462,0,0,1-.425.728Z" transform="translate(-136.768 -96.208)" fill="#263238"/>
      <path id="Path_2391" data-name="Path 2391" d="M173.282,122.334c.154.148.314.351.543.364a1.658,1.658,0,0,0,.684-.179s.043,0,0,0a.857.857,0,0,1-.8.37.678.678,0,0,1-.518-.555C173.208,122.328,173.258,122.315,173.282,122.334Z" transform="translate(-134.38 -101.825)" fill="#263238"/>
      <path id="Path_2392" data-name="Path 2392" d="M174.34,114.881a2.152,2.152,0,0,0,1.474.931,2.78,2.78,0,0,0,.783,0h.29a.148.148,0,0,0,.123-.142h0a.252.252,0,0,0,0-.068h0v-.062c0-.487-.068-1.233-.068-1.233.185.086,1.11.475,1.091.222a33.054,33.054,0,0,0-1.011-6.566.062.062,0,0,0-.117,0c.092,2.053.543,4.069.672,6.128a3.761,3.761,0,0,0-1.036-.29c-.068,0,.154,1.443.136,1.665h0a3.083,3.083,0,0,1-2.269-.617C174.346,114.789,174.3,114.832,174.34,114.881Z" transform="translate(-134.814 -96.301)" fill="#263238"/>
      <path id="Path_2393" data-name="Path 2393" d="M176.156,119.911a2.577,2.577,0,0,1-1.011.826,1.233,1.233,0,0,1-.7.062c-.518-.123-.543-.617-.456-.993a2.763,2.763,0,0,1,.216-.617,3.348,3.348,0,0,0,1.954.721Z" transform="translate(-134.67 -100.623)" fill="#263238"/>
      <path id="Path_2394" data-name="Path 2394" d="M175.145,121.121a1.233,1.233,0,0,1-.7.062c-.518-.123-.543-.617-.456-.993A1.233,1.233,0,0,1,175.145,121.121Z" transform="translate(-134.67 -101.006)" fill="#ff98b9"/>
      <path id="Path_2395" data-name="Path 2395" d="M159.006,105.138c1.1.2,1.961-3.132,2.164-4.4.179-1.116.136-4.593.16-4.834s4.988,2.509,7.577,1.418,4.106-3.7,4.014-4.821-3.742-3.6-6.64-3.416-6.375,4.316-6.375,4.316a14,14,0,0,0,1.085-1.85,3.153,3.153,0,0,0-2.028,2.195s.179-1.708.031-1.72-1.424,1.572-.974,2.614a5.743,5.743,0,0,0-1.48,3.249C156.564,99.5,157.711,104.9,159.006,105.138Z" transform="translate(-127.995 -89.074)" fill="#263238"/>
      <path id="Path_2396" data-name="Path 2396" d="M173.026,100.152a9.057,9.057,0,0,1-2.423,1.2,6.122,6.122,0,0,1-2.947-.129,9.3,9.3,0,0,1-2.707-1.233c-.734-.475-1.4-1.067-2.17-1.48-.2-.1-.376.179-.247.333a9.723,9.723,0,0,0,5.271,3.021,5.549,5.549,0,0,0,5.234-1.7S173.038,100.146,173.026,100.152Z" transform="translate(-130.276 -92.682)" fill="#263238"/>
      <path id="Path_2397" data-name="Path 2397" d="M159.714,113.1s-1.813-3.206-3.249-2.589-.265,5.13,1.276,5.876a1.64,1.64,0,0,0,2.269-.666Z" transform="translate(-127.716 -97.264)" fill="#ad6359"/>
      <path id="Path_2398" data-name="Path 2398" d="M157.451,112.65s-.031,0,0,.037a4.149,4.149,0,0,1,1.887,2.781.9.9,0,0,0-1.319-.376.031.031,0,0,0,0,.062,1.017,1.017,0,0,1,1.067.456,4.71,4.71,0,0,1,.444.943c.043.1.228.068.2-.049v-.031C159.9,115.042,158.974,112.94,157.451,112.65Z" transform="translate(-128.339 -98.115)" fill="#263238"/>
      <path id="Path_2399" data-name="Path 2399" d="M164.3,133l-2.824,5.111-5.808-7.565-2.146,1.942s5.2,11.529,5.3,11.048l2.756-4.316,2.793,3.588.715-8.077Z" transform="translate(-126.837 -104.979)" fill="#fff"/>
      <path id="Path_2400" data-name="Path 2400" d="M165.028,140.427c.074-1.338.185-2.682.2-4.026,0-.043-.074-.074-.092,0-.419,1.233-.672,6.369-.826,7.583h0c-.111-.154-2.6-3.175-2.639-3.138-.567.672-2.583,3.835-2.731,4.125-.826-1.85-4.014-8.508-5.031-10.271a.049.049,0,0,0-.086.037c.691,1.911,4.889,10.894,4.975,10.882a51.852,51.852,0,0,0,2.892-4.593,38.79,38.79,0,0,0,2.91,3.816A41.778,41.778,0,0,0,165.028,140.427Z" transform="translate(-126.952 -106.564)" fill="#263238"/>
      <path id="Path_2401" data-name="Path 2401" d="M191.348,168.12c1.048,0,1.788-.049,1.85-.055L193.056,166c-.049,0-4.8.308-7.238-.678-1.942-.789-4.088-6.252-5.037-11.1-.617-3.083-.271-4.02,0-4.316.055-.062.2-.24.752-.24h1.893c.549,1.652,1.424,3.311,2.744,3.311h3.822v-2.041h-3.668a7.867,7.867,0,0,1-1.134-2.552l-.21-.758h-3.446a2.861,2.861,0,0,0-2.349,1c-.9,1.079-1.036,2.928-.419,6.011a39.377,39.377,0,0,0,2.195,7.281c1.233,2.935,2.62,4.723,4.1,5.321A18.585,18.585,0,0,0,191.348,168.12Z" transform="translate(-136.372 -111.525)" fill="#fff"/>
      <path id="Path_2402" data-name="Path 2402" d="M192.28,152.96h3.033v2.072h-2.565Z" transform="translate(-141.7 -113.573)" opacity="0.2"/>
      <path id="Path_2403" data-name="Path 2403" d="M200.665,179.522c-.08,0-.82.055-1.85.055h-.543l-.462-2.078c1.5.049,2.707,0,2.731,0Z" transform="translate(-143.821 -122.983)" opacity="0.2"/>
      <path id="Path_2404" data-name="Path 2404" d="M230.49,168.12c-1.048,0-1.788-.049-1.85-.055l.142-2.065c.049,0,4.8.308,7.238-.678,1.942-.789,4.088-6.252,5.037-11.1.617-3.083.271-4.02,0-4.316-.055-.062-.2-.24-.746-.24h-1.893c-.543,1.652-1.424,3.311-2.744,3.311h-3.822v-2.041h3.7a7.866,7.866,0,0,0,1.134-2.552l.21-.758h3.453a2.861,2.861,0,0,1,2.343,1c.894,1.085,1.023,2.947.413,6.036a39.381,39.381,0,0,1-2.195,7.281c-1.233,2.935-2.62,4.723-4.1,5.321A19.48,19.48,0,0,1,230.49,168.12Z" transform="translate(-155.643 -111.526)" fill="#fff"/>
      <path id="Path_2405" data-name="Path 2405" d="M236.883,152.96H233.85v2.072h2.565Z" transform="translate(-157.641 -113.573)" opacity="0.2"/>
      <path id="Path_2406" data-name="Path 2406" d="M228.61,179.522c.08,0,.82.055,1.85.055H231l.462-2.078c-1.5.049-2.707,0-2.731,0Z" transform="translate(-155.632 -122.983)" opacity="0.2"/>
      <path id="Path_2407" data-name="Path 2407" d="M198,203.977v1.159h21.615v-1.159H217.76L216.385,202l-6.295-2.5V187.22h-2.571V199.5l-6.289,2.5-1.381,1.979Z" transform="translate(-143.893 -126.71)" fill="#fff"/>
      <rect id="Rectangle_464" data-name="Rectangle 464" width="3.995" height="1.295" transform="translate(66.906 62.144) rotate(180)" fill="#fff"/>
      <path id="Path_2408" data-name="Path 2408" d="M212.29,188.6l3.989-.179v-.641H212.29Z" transform="translate(-149.373 -126.925)" opacity="0.2"/>
      <path id="Path_2409" data-name="Path 2409" d="M194.09,145.36s1,16.726,3.644,21.357,8.261,5.019,9.575,5.019,6.936-.395,9.569-5.019,3.668-21.357,3.668-21.357Z" transform="translate(-142.394 -110.658)" fill="#fff"/>
      <path id="Path_2410" data-name="Path 2410" d="M205.295,171.532a10.457,10.457,0,0,1-7.565-4.821c-2.639-4.624-3.65-21.35-3.65-21.35h2.466c.339,3.514,1.011,16.93,2.916,20.832A13.046,13.046,0,0,0,205.295,171.532Z" transform="translate(-142.39 -110.658)" fill="#fff" opacity="0.3"/>
      <path id="Path_2411" data-name="Path 2411" d="M218.91,213.568H201l.493-.709,16.486-.629Z" transform="translate(-145.044 -136.301)" opacity="0.2"/>
      <path id="Path_2412" data-name="Path 2412" d="M212.669,153.93l1.418,2.879,3.175.456-2.3,2.244.543,3.163-2.836-1.492-2.842,1.492.543-3.163-2.3-2.244,3.175-.456Z" transform="translate(-147.755 -113.944)" opacity="0.1"/>
      <path id="Path_2413" data-name="Path 2413" d="M138.442,141.006c-5.247,9.864-15.678,32.232-10.956,36.424,7.774,6.88,24.415,11.455,29.766,12.331,2.312.364,8.1-16.831,5.826-17.879-2.725-1.233-19.661-5.419-19.84-6.165s1.332-12.281,1.153-21.128C144.157,133.571,140.612,136.9,138.442,141.006Z" transform="translate(-116.395 -107.5)" fill="#ad6359"/>
      <path id="Path_2414" data-name="Path 2414" d="M172.58,189.251s6.5-2.885,10.839-4.581c2.417-.943,6.714-2.189,8.81-2.065,3.132.179,16.128,2.935,15.524,6.1-.543,2.861-11.406-.925-11.406-.925s11.3,2.855,10.012,6.165-13-2.583-13-2.583,11.535,3.194,9.686,6.43c-1.412,2.435-12.331-2.318-12.331-2.318s9.9,2.811,8.557,5.376c-1.492,2.836-11.825-.919-11.825-.919-4.525,5.949-8.964,7.257-12.46,7.244C174.177,207.173,172.58,189.251,172.58,189.251Z" transform="translate(-134.146 -124.937)" fill="#ad6359"/>
      <path id="Path_2415" data-name="Path 2415" d="M205.739,189.25c8.483,1.467,12.189,4.784,12.078,4.716a50.169,50.169,0,0,0-8.73-3.539c-1.332-.407-2.059-.721-3.366-1.128C205.689,189.293,205.708,189.243,205.739,189.25Z" transform="translate(-146.848 -127.488)" fill="#263238"/>
      <path id="Path_2416" data-name="Path 2416" d="M202.366,196.63a29.384,29.384,0,0,1,9.9,3.083c.117.074.062.1-.068.062-1.652-.561-8.175-2.645-9.864-3.12C202.323,196.661,202.335,196.63,202.366,196.63Z" transform="translate(-145.553 -130.319)" fill="#263238"/>
      <path id="Path_2417" data-name="Path 2417" d="M199.034,202.789a21.732,21.732,0,0,1,7.6,2.626c.117.062,0,.111-.1.062-2.509-.919-4.47-1.658-7.515-2.6C199,202.863,199,202.777,199.034,202.789Z" transform="translate(-144.28 -132.68)" fill="#263238"/>
      <path id="Path_2418" data-name="Path 2418" d="M157.282,169.631l-6.467,20.524s-23.151-8.742-25.512-14,9.1-31.258,12.9-36.757,5.549-3.7,6.165,1.924-1.437,23.644-1.289,23.958S157.282,169.631,157.282,169.631Z" transform="translate(-115.894 -107.099)" fill="#455a64"/>
      <path id="Path_2419" data-name="Path 2419" d="M154.667,164.615q.173-2.022.327-4.044c.055-.7.1-1.406.166-2.1,0-.321.055-.647.08-.968a4.235,4.235,0,0,0,.049-.481,2.466,2.466,0,0,1,.074-.617c0-.037.068-.037.068,0,0,.364.068.21,0,.493a1.86,1.86,0,0,0,0,.617v.968c0,.666-.049,1.326-.086,1.985v.191c.148-.734.3-1.461.456-2.195h.049c-.068.746-.166,1.486-.3,2.22-.08.425-.191.845-.3,1.233-.055.882-.1,1.769-.173,2.651-.2,2.737-.425,5.487-.851,8.2,1.233.364,2.417.678,3.613,1.042s2.4.758,3.6,1.141,2.392.764,3.582,1.171c.573.191,1.134.395,1.7.617s1.233.5,1.85.7c.068,0,0,.111-.037.092-.647-.2-1.313-.308-1.967-.493l-1.708-.487c-1.2-.358-2.4-.734-3.607-1.116s-2.4-.746-3.6-1.141-2.361-.838-3.557-1.233a.136.136,0,0,1-.08-.074.148.148,0,0,1-.08-.142C154.1,170.108,154.427,167.365,154.667,164.615Z" transform="translate(-126.997 -114.882)" fill="#263238"/>
      <path id="Path_2420" data-name="Path 2420" d="M162.724,199.292c.487-1.492,2.466-7.435,3.083-8.872h.049c-.314,1.486-2.1,7.4-2.589,8.9a85.382,85.382,0,0,1-3.169,8.847c0,.049-.111.031-.1,0C160.708,205.143,161.769,202.227,162.724,199.292Z" transform="translate(-129.321 -127.937)" fill="#263238"/>
      <path id="Path_2421" data-name="Path 2421" d="M135.233,190.128a41.5,41.5,0,0,1-4.932-2.4,19.8,19.8,0,0,1-4.384-3.311,4.932,4.932,0,0,1-1.375-2.466,4.05,4.05,0,0,1-.043-.715v-.7c.049-.456.08-.919.136-1.375a46.141,46.141,0,0,1,1.171-5.364q1.523-5.253,3.557-10.327,1.023-2.534,2.146-5.019c.783-1.646,1.56-3.292,2.466-4.871-.783,1.646-1.5,3.311-2.189,4.988s-1.356,3.372-1.979,5.074c-1.264,3.4-2.466,6.831-3.409,10.321a44.919,44.919,0,0,0-1.233,5.271c-.055.444-.092.888-.142,1.332a11.471,11.471,0,0,0,0,1.307,4.747,4.747,0,0,0,1.233,2.238,19.372,19.372,0,0,0,4.192,3.366,46.974,46.974,0,0,0,4.784,2.651Z" transform="translate(-115.707 -113.81)" fill="#263238"/>
      <path id="Path_2422" data-name="Path 2422" d="M137.2,156.52c-.21.906-.512,1.763-.752,2.657a5.184,5.184,0,0,1,.24-1.369,8.243,8.243,0,0,1,.512-1.289Z" transform="translate(-120.291 -114.938)" fill="#263238"/>
    </g>
    <g id="freepik--speech-bubble--inject-19" transform="translate(132.318 54.19)">
      <path id="Path_2423" data-name="Path 2423" d="M219.872,69.8a13.946,13.946,0,0,1-23.3,8.823L189.6,79.645l3.49-6.036a13.946,13.946,0,1,1,26.782-3.81Z" transform="translate(-189.156 -54.268)" fill="#fff"/>
      <path id="Path_2424" data-name="Path 2424" d="M219.6,69.72a14.051,14.051,0,0,1-2.811,7.072,16.7,16.7,0,0,1-1.233,1.455,16.731,16.731,0,0,1-1.474,1.233,14.254,14.254,0,0,1-7.121,2.768,14.477,14.477,0,0,1-1.936.037,12.731,12.731,0,0,1-1.93-.2,14.106,14.106,0,0,1-6.9-3.4l.16.055L189.386,79.8l-.506.08.253-.444,3.471-6.048v.24A14.073,14.073,0,1,1,219.6,69.72Zm0,0A13.819,13.819,0,0,0,198.023,56.9a14.439,14.439,0,0,0-4.174,4.568,13.736,13.736,0,0,0-.783,11.979l.049.123-.068.111-3.514,6.023-.247-.37,6.985-.98h.092l.068.068a13.792,13.792,0,0,0,6.7,3.391,12.208,12.208,0,0,0,1.893.228,13.186,13.186,0,0,0,1.911,0,13.564,13.564,0,0,0,3.7-.82A12.744,12.744,0,0,0,214,79.412a14.661,14.661,0,0,0,1.473-1.233,14.865,14.865,0,0,0,1.27-1.443A13.97,13.97,0,0,0,219.6,69.72Z" transform="translate(-188.88 -54.19)" fill="#263238"/>
      <path id="Path_2425" data-name="Path 2425" d="M209.856,80.09,203.9,74.06l2-1.979,3.483,3.52,7.226-11.332,2.374,1.517Z" transform="translate(-194.64 -58.055)" fill="#fff"/>
    </g>
  </g>
</svg>
