<svg xmlns="http://www.w3.org/2000/svg" width="31.345" height="31.82" viewBox="0 0 31.345 31.82">
  <g id="PastQuestions" transform="translate(-548.638 -797.766)">
    <g id="Group_1296" data-name="Group 1296" transform="translate(20549 13301.706)">
      <g id="Group_1236" data-name="Group 1236" transform="translate(-20401.641 -12871)">
        <path id="Path_790" data-name="Path 790" d="M436.021,312.26a1.749,1.749,0,0,0-.247.017,1.874,1.874,0,1,0,.247-.017Z" transform="translate(-18.627 75.332)" fill="#0d5191"/>
        <path id="Path_791" data-name="Path 791" d="M395.6,182.6a5.781,5.781,0,0,0-3.2-.845,8.562,8.562,0,0,0-1.126.076,5.8,5.8,0,0,0-3.332,1.662,3.719,3.719,0,0,0-1.169,3.022,1.379,1.379,0,0,0,1.441,1.237,2,2,0,0,0,.253-.017c1.036-.138,1.259-.851,1.474-1.541.246-.786.478-1.528,1.816-1.707a3.054,3.054,0,0,1,.4-.028,1.54,1.54,0,0,1,1.685,1.432c.121.9-.594,1.624-1.35,2.387-.849.856-1.811,1.826-1.628,3.2a1.669,1.669,0,0,0,.44.931,1.388,1.388,0,0,0,1.025.431,1.628,1.628,0,0,0,.224-.015c1.084-.145,1.231-.773,1.374-1.382a3.059,3.059,0,0,1,.218-.682,4.812,4.812,0,0,1,.962-1.057c1.041-.973,2.466-2.3,2.2-4.278A3.847,3.847,0,0,0,395.6,182.6Z" transform="translate(24.42 192.728)" fill="#0d5191"/>
        <path id="Path_792" data-name="Path 792" d="M145.183,137.866l-3.119-23.73a2.445,2.445,0,0,0-2.4-2.136,2.384,2.384,0,0,0-.322.022l-23.376,3.167a2.459,2.459,0,0,0-2.083,2.766l.178,1.358c.263,1.75,2.077,17.282,2.272,17.291l.668,5.08a2.424,2.424,0,0,0,2.725,2.115l23.376-3.168a2.4,2.4,0,0,0,1.605-.944,2.47,2.47,0,0,0,.477-1.82Zm-2.076.579a.409.409,0,0,1-.273.161l-23.376,3.167a.414.414,0,0,1-.463-.359l-3.119-23.73a.417.417,0,0,1,.353-.47l23.375-3.167a.457.457,0,0,1,.057,0,.414.414,0,0,1,.407.363l3.12,23.73a.425.425,0,0,1-.083.307Z" transform="translate(287.42 255.06)" fill="#0d5191"/>
      </g>
    </g>
  </g>
</svg>
