<svg xmlns="http://www.w3.org/2000/svg" width="319.884" height="238" viewBox="0 0 319.884 238">
  <g id="Feedback-rafiki" transform="translate(0 -55)">
    <g id="freepik--background-complete--inject-83" transform="translate(0 55)">
      <rect id="Rectangle_409" data-name="Rectangle 409" width="21.189" height="0.16" transform="translate(266.643 219.754)" fill="#ebebeb"/>
      <rect id="Rectangle_410" data-name="Rectangle 410" width="5.56" height="0.16" transform="translate(206.344 221.494)" fill="#ebebeb"/>
      <rect id="Rectangle_411" data-name="Rectangle 411" width="12.277" height="0.16" transform="translate(253.726 213.817)" fill="#ebebeb"/>
      <rect id="Rectangle_412" data-name="Rectangle 412" width="27.632" height="0.16" transform="translate(33.562 214.892)" fill="#ebebeb"/>
      <rect id="Rectangle_413" data-name="Rectangle 413" width="4.05" height="0.16" transform="translate(66.894 214.892)" fill="#ebebeb"/>
      <rect id="Rectangle_414" data-name="Rectangle 414" width="59.934" height="0.16" transform="translate(84.11 217.592)" fill="#ebebeb"/>
      <path id="Path_1923" data-name="Path 1923" d="M165.39,235.926H41.857a3.653,3.653,0,0,1-3.647-3.653V58.621A3.653,3.653,0,0,1,41.857,55H165.39a3.653,3.653,0,0,1,3.653,3.653v173.62A3.653,3.653,0,0,1,165.39,235.926ZM41.857,55.128a3.493,3.493,0,0,0-3.487,3.493V232.273a3.493,3.493,0,0,0,3.487,3.493H165.39a3.5,3.5,0,0,0,3.493-3.493V58.621a3.5,3.5,0,0,0-3.493-3.493Z" transform="translate(-13.764 -55)" fill="#ebebeb"/>
      <path id="Path_1924" data-name="Path 1924" d="M381.692,235.926H258.153a3.659,3.659,0,0,1-3.653-3.653V58.621A3.659,3.659,0,0,1,258.153,55H381.692a3.653,3.653,0,0,1,3.64,3.621V232.273A3.653,3.653,0,0,1,381.692,235.926ZM258.153,55.128a3.5,3.5,0,0,0-3.493,3.493V232.273a3.5,3.5,0,0,0,3.493,3.493H381.692a3.5,3.5,0,0,0,3.493-3.493V58.621a3.5,3.5,0,0,0-3.493-3.493Z" transform="translate(-91.679 -55)" fill="#ebebeb"/>
      <rect id="Rectangle_415" data-name="Rectangle 415" width="319.884" height="0.16" transform="translate(0 209.46)" fill="#ebebeb"/>
      <rect id="Rectangle_416" data-name="Rectangle 416" width="47.88" height="44.617" transform="translate(136.36 159.328)" fill="#e6e6e6"/>
      <rect id="Rectangle_417" data-name="Rectangle 417" width="6.11" height="3.896" transform="translate(137.864 205.346)" fill="#e0e0e0"/>
      <rect id="Rectangle_418" data-name="Rectangle 418" width="97.232" height="44.182" transform="translate(184.247 159.328)" fill="#e6e6e6"/>
      <rect id="Rectangle_419" data-name="Rectangle 419" width="6.11" height="53.203" transform="translate(282.784 156.046)" fill="#e6e6e6"/>
      <rect id="Rectangle_420" data-name="Rectangle 420" width="42.148" height="38.604" transform="translate(188.981 162.847)" fill="#f5f5f5"/>
      <path id="Path_1925" data-name="Path 1925" d="M306.52,348.144h11.254l4.056-38.6H310.576Z" transform="translate(-110.418 -146.693)" fill="#fafafa"/>
      <path id="Path_1926" data-name="Path 1926" d="M328.61,348.144h2.239l4.056-38.6h-2.239Z" transform="translate(-118.376 -146.693)" fill="#fafafa"/>
      <rect id="Rectangle_421" data-name="Rectangle 421" width="42.148" height="38.604" transform="translate(140.922 162.847)" fill="#f5f5f5"/>
      <rect id="Rectangle_422" data-name="Rectangle 422" width="42.148" height="38.604" transform="translate(237.508 162.847)" fill="#f5f5f5"/>
      <path id="Path_1927" data-name="Path 1927" d="M357.029,298.91H210.42v53.2h3.263v-2.981h141.7v2.981h3.263v-53.2Zm-143.346,4.811h44.784V322.2H213.683Zm0,40.593V324.955h44.784v19.359Zm93.253,0H261.729V303.721h45.206Zm48.462,0H310.192V324.955h45.187Zm0-22.11H310.192V303.721h45.187Z" transform="translate(-75.8 -142.864)" fill="#f0f0f0"/>
      <circle id="Ellipse_70" data-name="Ellipse 70" cx="1.958" cy="1.958" r="1.958" transform="translate(158.771 165.47)" fill="#ebebeb"/>
      <path id="Path_1928" data-name="Path 1928" d="M250.129,319.115a1.951,1.951,0,0,1-1.772-1.145,1.958,1.958,0,1,0,3.551,0,1.958,1.958,0,0,1-1.779,1.145Z" transform="translate(-89.4 -149.73)" fill="#e0e0e0"/>
      <path id="Path_1929" data-name="Path 1929" d="M252.085,351.158a1.958,1.958,0,1,1-1.958-1.958,1.958,1.958,0,0,1,1.958,1.958Z" transform="translate(-89.399 -160.98)" fill="#ebebeb"/>
      <path id="Path_1930" data-name="Path 1930" d="M250.129,354.675a1.919,1.919,0,0,1-1.772-1.145,1.958,1.958,0,1,0,3.551,0,1.919,1.919,0,0,1-1.779,1.145Z" transform="translate(-89.4 -162.54)" fill="#e0e0e0"/>
      <circle id="Ellipse_71" data-name="Ellipse 71" cx="1.958" cy="1.958" r="1.958" transform="translate(257.577 165.47)" fill="#ebebeb"/>
      <path id="Path_1931" data-name="Path 1931" d="M404.568,319.115a1.964,1.964,0,0,1-1.779-1.145,1.92,1.92,0,0,0-.179.813,1.958,1.958,0,1,0,3.73-.812A1.951,1.951,0,0,1,404.568,319.115Z" transform="translate(-145.033 -149.73)" fill="#e0e0e0"/>
      <path id="Path_1932" data-name="Path 1932" d="M352.855,340.374a1.958,1.958,0,1,1-.571-1.388A1.958,1.958,0,0,1,352.855,340.374Z" transform="translate(-125.699 -157.093)" fill="#ebebeb"/>
      <path id="Path_1933" data-name="Path 1933" d="M350.9,343.9a1.964,1.964,0,0,1-1.779-1.145,1.919,1.919,0,0,0-.179.813,1.958,1.958,0,1,0,3.73-.812A1.951,1.951,0,0,1,350.9,343.9Z" transform="translate(-125.699 -158.657)" fill="#e0e0e0"/>
      <path id="Path_1934" data-name="Path 1934" d="M406.525,351.158a1.958,1.958,0,1,1-1.958-1.958A1.958,1.958,0,0,1,406.525,351.158Z" transform="translate(-145.033 -160.98)" fill="#ebebeb"/>
      <path id="Path_1935" data-name="Path 1935" d="M404.562,354.675a1.951,1.951,0,0,1-1.779-1.145,1.964,1.964,0,1,0,3.551,0,1.919,1.919,0,0,1-1.772,1.145Z" transform="translate(-145.027 -162.54)" fill="#e0e0e0"/>
      <path id="Path_1936" data-name="Path 1936" d="M397.15,209.71h0a.832.832,0,0,1,.832.832v52.672a.832.832,0,0,1-.832.832h0Z" transform="translate(-143.066 -110.731)" fill="#e0e0e0"/>
      <rect id="Rectangle_423" data-name="Rectangle 423" width="91.013" height="54.336" transform="translate(163.077 98.979)" fill="#ebebeb"/>
      <rect id="Rectangle_424" data-name="Rectangle 424" width="88.013" height="51.341" transform="translate(164.574 100.476)" fill="#e0e0e0"/>
      <path id="Path_1937" data-name="Path 1937" d="M311.61,263.391H324.9l8.131-51.341H319.741Z" transform="translate(-112.252 -111.574)" fill="#fafafa" opacity="0.1"/>
      <path id="Path_1938" data-name="Path 1938" d="M336.09,263.391h2.981L347.2,212.05h-2.981Z" transform="translate(-121.07 -111.574)" fill="#fafafa" opacity="0.2"/>
      <path id="Path_1939" data-name="Path 1939" d="M344.05,294.626v1.919h2.706a1.2,1.2,0,0,0,1.2-1.209V294.6Z" transform="translate(-123.938 -141.311)" fill="#e0e0e0"/>
      <path id="Path_1940" data-name="Path 1940" d="M329.614,296.6H305.149a1.919,1.919,0,0,1-1.919-1.919h28.354a1.919,1.919,0,0,1-1.97,1.919Z" transform="translate(-109.233 -141.34)" fill="#f0f0f0"/>
      <path id="Path_1941" data-name="Path 1941" d="M91.424,169.079l-2.725-.013-.749-.966,4.235.032Z" transform="translate(-31.682 -95.742)" fill="#407bff"/>
      <path id="Path_1942" data-name="Path 1942" d="M91.424,169.079l-2.725-.013-.749-.966,4.235.032Z" transform="translate(-31.682 -95.742)" fill="#fff" opacity="0.5"/>
      <path id="Path_1943" data-name="Path 1943" d="M93.967,147.249a5.656,5.656,0,0,1-2.022,4.274,3.755,3.755,0,0,0-1.376,2.815v.441l-5.189-.038v-.435a3.736,3.736,0,0,0-1.331-2.828,5.662,5.662,0,0,1-1.97-4.325,5.95,5.95,0,0,1,11.893.1Z" transform="translate(-29.568 -86.139)" fill="#ebebeb"/>
      <path id="Path_1944" data-name="Path 1944" d="M89.459,159.533l-.96-4.709a.147.147,0,0,1,.115-.166h0a.147.147,0,0,1,.173.115l.96,4.7Z" transform="translate(-31.88 -90.899)" fill="#407bff"/>
      <path id="Path_1945" data-name="Path 1945" d="M92.468,159.563l-.288-.058,1.024-4.689a.141.141,0,0,1,.173-.109h0a.134.134,0,0,1,.109.166Z" transform="translate(-33.206 -90.916)" fill="#407bff"/>
      <path id="Path_1946" data-name="Path 1946" d="M90.981,157.069l-.582-1.036-.595,1.03-1.094-1.241.224-.186.819.934.653-1.12.633,1.126.838-.921.218.192Z" transform="translate(-31.956 -91.185)" fill="#407bff"/>
      <path id="Path_1947" data-name="Path 1947" d="M92.653,163.07a.64.64,0,0,1-.64.64H87.35a.64.64,0,1,1,0-1.28h4.658a.64.64,0,0,1,.646.64Z" transform="translate(-31.236 -93.7)" fill="#407bff"/>
      <path id="Path_1948" data-name="Path 1948" d="M92.452,164.989a.64.64,0,0,1-.64.64h-.64a.531.531,0,0,1-.141,0h-3.6a.64.64,0,0,1-.038-1.28h4.37a.64.64,0,0,1,.691.64Z" transform="translate(-31.265 -94.39)" fill="#407bff"/>
      <path id="Path_1949" data-name="Path 1949" d="M92.348,166.892a.6.6,0,0,1-.569.64H91.2a.41.41,0,0,1-.128,0l-3.333-.032a.6.6,0,0,1-.563-.64.595.595,0,0,1,.557-.64h4.056a.64.64,0,0,1,.557.672Z" transform="translate(-31.404 -95.065)" fill="#407bff"/>
      <path id="Path_1950" data-name="Path 1950" d="M87.76,168.572l.006-.352,4.446.026v.345Z" transform="translate(-31.614 -95.785)" fill="#407bff"/>
      <rect id="Rectangle_425" data-name="Rectangle 425" width="5.195" height="0.345" transform="translate(55.807 68.436)" fill="#407bff"/>
      <g id="Group_745" data-name="Group 745" transform="translate(53.085 56.065)" opacity="0.4">
        <path id="Path_1951" data-name="Path 1951" d="M83.081,146.585a2,2,0,0,0-.09.889h0a.39.39,0,0,0,.742.038,4.05,4.05,0,0,1,2.559-2.393c.9-.269,2.022-.3,2.3-1.388a1.017,1.017,0,0,0-.07-.582h0C87.821,141.64,83.8,143.642,83.081,146.585Z" transform="translate(-82.975 -142.634)" fill="#fff"/>
      </g>
      <path id="Path_1952" data-name="Path 1952" d="M92.742,143.565a.864.864,0,0,0,.243.864,1.2,1.2,0,0,0,.723.224.966.966,0,0,0,.742-.224.787.787,0,0,0,0-.883C94.041,142.644,93.024,142.439,92.742,143.565Z" transform="translate(-33.397 -86.626)" fill="#fff" opacity="0.4"/>
      <path id="Path_1953" data-name="Path 1953" d="M92.264,171.93v1.606a16.706,16.706,0,0,1-2.054.122,16.882,16.882,0,0,1-2.06-.122V171.93Z" transform="translate(-31.754 -97.122)" fill="#263238"/>
      <path id="Path_1954" data-name="Path 1954" d="M90.635,314.039a1.28,1.28,0,0,1-1.28-1.28V197.876a1.28,1.28,0,1,1,2.508,0V312.785A1.28,1.28,0,0,1,90.635,314.039Z" transform="translate(-32.179 -105.916)" fill="#e0e0e0"/>
      <path id="Path_1955" data-name="Path 1955" d="M98.9,148.49a16.717,16.717,0,0,1-10.454,15.354,7.447,7.447,0,0,0-4.741,6.814v9.961H79.594v-9.942a7.447,7.447,0,0,0-4.741-6.814A16.73,16.73,0,0,1,64.4,148.509Z" transform="translate(-23.199 -88.678)" fill="#e0e0e0"/>
      <path id="Path_1956" data-name="Path 1956" d="M61.078,381l.134.109-.333-.051Z" transform="translate(-21.931 -172.436)" fill="#407bff"/>
      <path id="Path_1957" data-name="Path 1957" d="M121.966,381.038l-.326.045a1.116,1.116,0,0,0,.128-.1Z" transform="translate(-43.819 -172.428)" fill="#407bff"/>
      <path id="Path_1958" data-name="Path 1958" d="M100.079,377.713a.518.518,0,0,1-.2.377,1.119,1.119,0,0,1-.128.1c-1.67,1.235-9.667.774-19.276.774s-17.574.467-19.263-.768l-.134-.109a.537.537,0,0,1-.2-.377c0-.64,12.994-3.352,17.043-4.53l.761-.224h3.506L83,373.2C87.015,374.361,100.079,377.042,100.079,377.713Z" transform="translate(-21.931 -169.539)" fill="#e0e0e0"/>
    </g>
    <g id="freepik--Shadow--inject-83" transform="translate(35.897 278.516)">
      <ellipse id="freepik--path--inject-83" cx="124.045" cy="7.242" rx="124.045" ry="7.242" fill="#f5f5f5"/>
    </g>
    <g id="freepik--Star--inject-83" transform="translate(70.621 89.362)">
      <path id="Path_1959" data-name="Path 1959" d="M336.67,174.264l-30.926,27.779-9.558,8.586a3.749,3.749,0,0,0-1.279,3.058l.7,14.67,1.919,40.133a3.744,3.744,0,0,1-5.336,3.64l-11.055-6.142-16.167-8.957L253.058,250.4l11.887,6.583,16.193,8.918,2.322,1.28a3.743,3.743,0,0,0,5.336-3.634l-1.209-14.382h0l-3.1-36.959a3.73,3.73,0,0,1,1.28-3.064l26.384-23.671L326.222,172.8c2.22-2,1.4-5.483-1.4-5.892l-5.259-.774-15.674-2.31-29.96-4.408a3.064,3.064,0,0,1-2.438-1.919l-6.161-15.226h0l-2.8-6.9-3.839-9.469h0l-1.523-3.755h0l-2.508-6.187-2.1-5.169a3.02,3.02,0,0,0-1.919-1.779l9.187,1.35,1.35.2.3.288,1.471,1.427,4.555,11.183.857,2.111,1.74,4.286L281.937,159a3.084,3.084,0,0,0,2.438,1.919l19.551,2.879,15.674,2.3,15.674,2.31C338.071,168.794,338.9,172.28,336.67,174.264Z" transform="translate(-160.909 -108.822)" fill="#407bff"/>
      <path id="Path_1960" data-name="Path 1960" d="M336.67,174.264l-30.926,27.779-9.558,8.586a3.749,3.749,0,0,0-1.279,3.058l.7,14.67,1.919,40.133a3.744,3.744,0,0,1-5.336,3.64l-11.055-6.142-16.167-8.957L253.058,250.4l11.887,6.583,16.193,8.918,2.322,1.28a3.743,3.743,0,0,0,5.336-3.634l-1.209-14.382h0l-3.1-36.959a3.73,3.73,0,0,1,1.28-3.064l26.384-23.671L326.222,172.8c2.22-2,1.4-5.483-1.4-5.892l-5.259-.774-15.674-2.31-29.96-4.408a3.064,3.064,0,0,1-2.438-1.919l-6.161-15.226h0l-2.8-6.9-3.839-9.469h0l-1.523-3.755h0l-2.508-6.187-2.1-5.169a3.02,3.02,0,0,0-1.919-1.779l9.187,1.35,1.35.2.3.288,1.471,1.427,4.555,11.183.857,2.111,1.74,4.286L281.937,159a3.084,3.084,0,0,0,2.438,1.919l19.551,2.879,15.674,2.3,15.674,2.31C338.071,168.794,338.9,172.28,336.67,174.264Z" transform="translate(-160.909 -108.822)" opacity="0.5"/>
      <path id="Path_1961" data-name="Path 1961" d="M267.14,111.44Z" transform="translate(-166.853 -109.693)" fill="#263238"/>
      <path id="Path_1962" data-name="Path 1962" d="M268.912,113.155l-1.772-1.715A2.975,2.975,0,0,1,268.912,113.155Z" transform="translate(-166.853 -109.693)" fill="#263238"/>
      <path id="Path_1963" data-name="Path 1963" d="M265,111.127a3.41,3.41,0,0,1,1.35.192Z" transform="translate(-166.082 -109.578)" fill="#263238"/>
      <path id="Path_1964" data-name="Path 1964" d="M209.643,321.572l-25.469,12.8h0l-12.06,6.059-7.524,3.781-.154.07a4.958,4.958,0,0,1-3.436,0l-.2.1-10.4-1.606h0a3.608,3.608,0,0,0,1.523-.4l5.95-2.988,10.486-5.265,5.457-2.789L176.458,330l11.637-5.854,12.053-6.052a3.448,3.448,0,0,1,3.2,0Z" transform="translate(-124.8 -183.997)" fill="#407bff"/>
      <path id="Path_1965" data-name="Path 1965" d="M209.643,321.572l-25.469,12.8h0l-12.06,6.059-7.524,3.781-.154.07a4.958,4.958,0,0,1-3.436,0l-.2.1-10.4-1.606h0a3.608,3.608,0,0,0,1.523-.4l5.95-2.988,10.486-5.265,5.457-2.789L176.458,330l11.637-5.854,12.053-6.052a3.448,3.448,0,0,1,3.2,0Z" transform="translate(-124.8 -183.997)" opacity="0.5"/>
      <path id="Path_1966" data-name="Path 1966" d="M258.085,125.8l-4.69-8.816L249,108.76h0l.985.147a3.02,3.02,0,0,1,1.919,1.779l2.1,5.169Z" transform="translate(-160.319 -108.728)" fill="#263238"/>
      <path id="Path_1967" data-name="Path 1967" d="M173.823,334.364l-15.93,8.035-5.95,2.988a3.609,3.609,0,0,1-1.523.4l10.607-19.66.915.589Z" transform="translate(-124.807 -187.032)" fill="#263238"/>
      <path id="Path_1968" data-name="Path 1968" d="M275.724,172.661l-14.075,12.661h0l-26.384,23.671a3.73,3.73,0,0,0-1.28,3.065l3.1,36.959h0L238.3,263.4a3.743,3.743,0,0,1-5.336,3.634l-2.322-1.28-16.218-8.886-11.887-6.583-.237-.134-7.037-3.883-6.27-3.455a3.448,3.448,0,0,0-3.2,0l-12.053,6.052-11.676,5.9-2.661,1.28-5.464,2.751-10.486,5.265-5.95,2.988a3.608,3.608,0,0,1-1.523.4,3.141,3.141,0,0,1-3.2-4.037l.8-3.09,12.495-48.258a3.237,3.237,0,0,0-.723-3.065l-34.125-36.358c-1.868-2-.435-5.483,2.431-5.892l52.212-7.492a3.877,3.877,0,0,0,2.77-1.919l27.139-46.7a3.839,3.839,0,0,1,.749-.921,3.7,3.7,0,0,1,1.74-.915,3.552,3.552,0,0,1,.774-.09h0a2.847,2.847,0,0,1,.64.07,2.693,2.693,0,0,1,.326.077,3.02,3.02,0,0,1,1.919,1.779l2.1,5.169L206.533,122l1.523,3.755h0l3.839,9.469,2.911,6.941h0l6.187,15.226a3.064,3.064,0,0,0,2.438,1.919l29.96,4.408,15.674,2.31,5.259.774C277.118,167.178,277.944,170.665,275.724,172.661Z" transform="translate(-110.385 -108.71)" fill="#407bff"/>
      <path id="Path_1969" data-name="Path 1969" d="M219.182,122.1l-.2.518L168.442,253.852l-1.919,5.029-10.486,5.265-5.95,2.988a3.609,3.609,0,0,1-1.523.4,3.141,3.141,0,0,1-3.2-4.037l.8-3.09,62.96-150.6a3.7,3.7,0,0,1,1.74-.915h1.459a2.694,2.694,0,0,1,.326.077,3.02,3.02,0,0,1,1.919,1.779l2.1,5.169Z" transform="translate(-122.939 -108.778)" fill="#fff" opacity="0.4"/>
      <path id="Path_1970" data-name="Path 1970" d="M243.9,157.1v.006L202.8,263.829l-11.637,5.854L241.1,150.2Z" transform="translate(-139.483 -123.656)" fill="#fff" opacity="0.2"/>
      <path id="Path_1971" data-name="Path 1971" d="M327.655,196.914v.032l-7.44,19.327h0l-26.384,23.671a3.73,3.73,0,0,0-1.28,3.065l3.1,36.959h0l-6.449,16.736-.038.1L273,287.851v-.038l38.949-93.182h0Z" transform="translate(-168.964 -139.661)" fill="#fff" opacity="0.3"/>
    </g>
    <g id="freepik--speech-bubble-2--inject-83" transform="translate(222.864 175.28)">
      <path id="Path_1972" data-name="Path 1972" d="M369.864,278.131c-.147-2.124-4.581-2.885-6.551-3.4a10.777,10.777,0,0,1-1.2-.352c-7.888-2.559-12.962-7.677-13.237-13.378-.429-8.957,10.7-16.807,24.81-17.485s25.955,6.052,26.384,15.009-10.7,16.8-24.823,17.478a.876.876,0,0,0-.742.857c-.4,3.2-2.29,4.107-3.839,4.843l-.2.1a22.8,22.8,0,0,1-2.962,1.036.4.4,0,0,1-.339-.7C368.6,281.145,369.979,279.763,369.864,278.131Z" transform="translate(-348.535 -243.171)" fill="#fff"/>
      <path id="Path_1973" data-name="Path 1973" d="M367.191,283.007a.717.717,0,0,1-.4-1.28c1.228-.844,2.674-2.175,2.559-3.717h0c-.109-1.612-3.448-2.418-5.444-2.9l-.87-.211c-.576-.154-1-.269-1.241-.365-8-2.559-13.147-7.805-13.435-13.665-.435-9.136,10.831-17.127,25.117-17.818s26.275,6.187,26.717,15.354-10.831,17.12-25.13,17.811c-.339,0-.416.448-.435.576-.422,3.365-2.489,4.363-3.992,5.118l-.2.1a21.233,21.233,0,0,1-3.039,1.049A.64.64,0,0,1,367.191,283.007Zm8.266-39.365c-.64,0-1.28,0-1.919.045-13.934.672-24.951,8.362-24.51,17.146.269,5.585,5.259,10.6,13.013,13.1a11.024,11.024,0,0,0,1.145.333l.9.224c2.3.557,5.758,1.395,5.931,3.474h0c.1,1.478-.857,2.924-2.847,4.286a.085.085,0,0,0,.1.134,21.212,21.212,0,0,0,2.943-1.011l.2-.1c1.529-.742,3.256-1.574,3.64-4.594a1.164,1.164,0,0,1,1.043-1.139c13.941-.672,24.951-8.362,24.516-17.139C399.161,250.039,388.521,243.642,375.457,243.642Z" transform="translate(-348.351 -243.005)" fill="#407bff"/>
      <path id="Path_1974" data-name="Path 1974" d="M376.736,264.16h-1.875a1.708,1.708,0,0,0-1.689,1.606l-.454,8.65a1.51,1.51,0,0,0,1.516,1.606H376.1a1.708,1.708,0,0,0,1.689-1.606l.454-8.65a1.51,1.51,0,0,0-1.5-1.606Z" transform="translate(-357.128 -250.626)" fill="#407bff"/>
      <path id="Path_1975" data-name="Path 1975" d="M376.736,264.16h-1.875a1.708,1.708,0,0,0-1.689,1.606l-.454,8.65a1.51,1.51,0,0,0,1.516,1.606H376.1a1.708,1.708,0,0,0,1.689-1.606l.454-8.65a1.51,1.51,0,0,0-1.5-1.606Z" transform="translate(-357.128 -250.626)" fill="#fff" opacity="0.5"/>
      <path id="Path_1976" data-name="Path 1976" d="M394.778,259.759H389.3l.473-2.226a16.631,16.631,0,0,0,.454-3.564,2.169,2.169,0,0,0-.934-1.548,4.03,4.03,0,0,0-2.489-.435l-.505.473c-.051.96-.377,3.5-.979,4.254l-2.61,3.295a2.706,2.706,0,0,0-.589,1.542l-.429,8.093a1.868,1.868,0,0,0,1.881,1.977h7.677a2.444,2.444,0,0,0,1.791-.812l.723-.806a2.367,2.367,0,0,0,.563-1.088l1.683-7.492Z" transform="translate(-360.359 -246.225)" fill="#407bff"/>
    </g>
    <g id="freepik--speech-bubble-1--inject-83" transform="translate(68.884 80.232)">
      <path id="Path_1977" data-name="Path 1977" d="M163.346,97.342v25a2.361,2.361,0,0,1-2.361,2.361H123.878l-7.364,7.146a1,1,0,0,1-.774.281c-.966,0-1.088-.787-1.088-1.753l.262-5.675H110.5a2.361,2.361,0,0,1-2.361-2.361v-25A2.361,2.361,0,0,1,110.52,95h50.471a2.354,2.354,0,0,1,2.354,2.342Z" transform="translate(-107.839 -94.641)" fill="#fff"/>
      <path id="Path_1978" data-name="Path 1978" d="M115.59,132.244c-1.407,0-1.407-1.4-1.407-2.073l.25-5.355h-4.082a2.687,2.687,0,0,1-2.681-2.681v-25a2.693,2.693,0,0,1,.793-1.919,2.642,2.642,0,0,1,1.919-.774h50.465a2.674,2.674,0,0,1,2.674,2.668v25a2.687,2.687,0,0,1-2.687,2.681H123.875l-7.268,7.037A1.324,1.324,0,0,1,115.59,132.244Zm-5.246-37.107a2.034,2.034,0,0,0-2.034,2.028v25a2.047,2.047,0,0,0,2.041,2.041H115.1l-.275,6.007c0,1.2.25,1.42.768,1.42a.7.7,0,0,0,.582-.218l7.421-7.21h37.215a2.047,2.047,0,0,0,2.047-2.041V97.14a2.034,2.034,0,0,0-2.034-2.028H110.344Z" transform="translate(-107.67 -94.439)" fill="#407bff"/>
      <path id="Path_1979" data-name="Path 1979" d="M127.079,103.309l-1.344,1.2-.409.371a.154.154,0,0,0-.058.134l.032.64.077,1.74a.16.16,0,0,1-.23.154l-.473-.262-.7-.39-.512-.288.512.288.7.384.1.058a.166.166,0,0,0,.23-.16l-.058-.64h0l-.134-1.6a.173.173,0,0,1,.058-.134l1.145-1.03.64-.544a.147.147,0,0,0-.058-.256h-.23l-.678-.1-1.28-.192a.115.115,0,0,1-.1-.083l-.269-.64h0l-.122-.294-.166-.416h0l-.07-.16h0l-.109-.269-.09-.224a.128.128,0,0,0-.083-.077l.4.058h.058l.064.058.192.486.038.09.077.186.512,1.28a.141.141,0,0,0,.109.077l.844.128.678.1.678.1a.147.147,0,0,1,.026.23Z" transform="translate(-113.336 -96.63)" fill="#407bff"/>
      <path id="Path_1980" data-name="Path 1980" d="M127.079,103.309l-1.344,1.2-.409.371a.154.154,0,0,0-.058.134l.032.64.077,1.74a.16.16,0,0,1-.23.154l-.473-.262-.7-.39-.512-.288.512.288.7.384.1.058a.166.166,0,0,0,.23-.16l-.058-.64h0l-.134-1.6a.173.173,0,0,1,.058-.134l1.145-1.03.64-.544a.147.147,0,0,0-.058-.256h-.23l-.678-.1-1.28-.192a.115.115,0,0,1-.1-.083l-.269-.64h0l-.122-.294-.166-.416h0l-.07-.16h0l-.109-.269-.09-.224a.128.128,0,0,0-.083-.077l.4.058h.058l.064.058.192.486.038.09.077.186.512,1.28a.141.141,0,0,0,.109.077l.844.128.678.1.678.1a.147.147,0,0,1,.026.23Z" transform="translate(-113.336 -96.63)" opacity="0.5"/>
      <path id="Path_1981" data-name="Path 1981" d="M124.117,100.64l-.077-.07A.134.134,0,0,1,124.117,100.64Z" transform="translate(-113.567 -96.648)" fill="#263238"/>
      <path id="Path_1982" data-name="Path 1982" d="M124,100.55h.058Z" transform="translate(-113.553 -96.641)" fill="#263238"/>
      <path id="Path_1983" data-name="Path 1983" d="M121.563,109.67l-1.1.557h0l-.525.262-.326.16h0a.23.23,0,0,1-.147,0h0l-.454-.07h.07l.256-.134.454-.224.237-.122.115-.058.5-.25.525-.262a.141.141,0,0,1,.141,0Z" transform="translate(-111.755 -99.868)" fill="#407bff"/>
      <path id="Path_1984" data-name="Path 1984" d="M121.563,109.67l-1.1.557h0l-.525.262-.326.16h0a.23.23,0,0,1-.147,0h0l-.454-.07h.07l.256-.134.454-.224.237-.122.115-.058.5-.25.525-.262a.141.141,0,0,1,.141,0Z" transform="translate(-111.755 -99.868)" opacity="0.5"/>
      <path id="Path_1985" data-name="Path 1985" d="M123.647,101.186l-.2-.377-.192-.358h.045a.128.128,0,0,1,.083.077l.09.224Z" transform="translate(-113.282 -96.605)" fill="#263238"/>
      <path id="Path_1986" data-name="Path 1986" d="M120,110.211l-.691.345-.256.134h-.07l.461-.851h.038Z" transform="translate(-111.744 -99.987)" fill="#263238"/>
      <path id="Path_1987" data-name="Path 1987" d="M124.4,103.231l-.64.544h0l-1.145,1.03a.173.173,0,0,0-.058.134l.134,1.6h0l.058.64a.166.166,0,0,1-.23.16l-.1-.058-.7-.384-.512-.288h0l-.307-.166-.269-.147a.141.141,0,0,0-.141,0l-.525.262-.5.25-.115.058-.237.122-.454.224-.256.134h-.07a.134.134,0,0,1-.134-.173v-.134l.544-2.086a.141.141,0,0,0,0-.134l-1.478-1.574a.16.16,0,0,1,.1-.256l2.265-.326a.179.179,0,0,0,.122-.083l1.171-2.022v-.038a.217.217,0,0,1,.077-.038h.077a.128.128,0,0,1,.083.077l.09.224.109.269.07.16h0l.166.416.122.294h0l.269.64a.115.115,0,0,0,.1.083l1.28.192.678.1h.23a.16.16,0,0,1,.128.294Z" transform="translate(-111.113 -96.615)" fill="#407bff"/>
      <path id="Path_1988" data-name="Path 1988" d="M121.963,101.008h0l-2.188,5.681-.083.218-.454.224-.256.134h-.07a.134.134,0,0,1-.134-.173v-.134l2.725-6.519a.217.217,0,0,1,.077-.038h.077a.128.128,0,0,1,.083.077l.09.224Z" transform="translate(-111.669 -96.587)" fill="#fff" opacity="0.4"/>
      <path id="Path_1989" data-name="Path 1989" d="M123.034,102.544h0l-1.785,4.626-.5.25,2.162-5.169Z" transform="translate(-112.382 -97.253)" fill="#fff" opacity="0.2"/>
      <path id="Path_1990" data-name="Path 1990" d="M126.667,104.259h0l-.32.832h0l-1.145,1.03a.173.173,0,0,0-.058.134l.134,1.6h0l-.275.723h0l-.7-.39h0l1.689-4.037h0Z" transform="translate(-113.661 -97.937)" fill="#fff" opacity="0.3"/>
      <path id="Path_1991" data-name="Path 1991" d="M141.1,103.309l-1.337,1.2-.416.371a.154.154,0,0,0-.051.134l.032.64.077,1.74a.16.16,0,0,1-.23.154l-.48-.262-.7-.39-.512-.288.512.288.7.384.1.058a.166.166,0,0,0,.237-.16l-.058-.64h0l-.134-1.6a.173.173,0,0,1,.058-.134l1.139-1.03.64-.544a.147.147,0,0,0-.064-.256h-.224l-.678-.1-1.28-.192a.134.134,0,0,1-.109-.083l-.262-.64h0l-.122-.294-.166-.416h0l-.07-.16h0l-.109-.269-.09-.224a.128.128,0,0,0-.083-.077l.4.058h.064l.064.058.192.486.038.09.077.186.512,1.28a.141.141,0,0,0,.1.077l.851.128.678.1.678.1a.141.141,0,0,1,.026.23Z" transform="translate(-118.387 -96.63)" fill="#407bff"/>
      <path id="Path_1992" data-name="Path 1992" d="M141.1,103.309l-1.337,1.2-.416.371a.154.154,0,0,0-.051.134l.032.64.077,1.74a.16.16,0,0,1-.23.154l-.48-.262-.7-.39-.512-.288.512.288.7.384.1.058a.166.166,0,0,0,.237-.16l-.058-.64h0l-.134-1.6a.173.173,0,0,1,.058-.134l1.139-1.03.64-.544a.147.147,0,0,0-.064-.256h-.224l-.678-.1-1.28-.192a.134.134,0,0,1-.109-.083l-.262-.64h0l-.122-.294-.166-.416h0l-.07-.16h0l-.109-.269-.09-.224a.128.128,0,0,0-.083-.077l.4.058h.064l.064.058.192.486.038.09.077.186.512,1.28a.141.141,0,0,0,.1.077l.851.128.678.1.678.1a.141.141,0,0,1,.026.23Z" transform="translate(-118.387 -96.63)" opacity="0.5"/>
      <path id="Path_1993" data-name="Path 1993" d="M138.147,100.64l-.077-.07a.134.134,0,0,1,.077.07Z" transform="translate(-118.621 -96.648)" fill="#263238"/>
      <path id="Path_1994" data-name="Path 1994" d="M138,100.55h0Z" transform="translate(-118.596 -96.641)" fill="#263238"/>
      <path id="Path_1995" data-name="Path 1995" d="M135.563,109.67l-1.1.557h0l-.525.262-.326.16h0a.23.23,0,0,1-.147,0h0l-.454-.07h.064l.262-.134.454-.224.237-.122.115-.058.5-.25.525-.262a.141.141,0,0,1,.141,0Z" transform="translate(-116.798 -99.868)" fill="#407bff"/>
      <path id="Path_1996" data-name="Path 1996" d="M135.563,109.67l-1.1.557h0l-.525.262-.326.16h0a.23.23,0,0,1-.147,0h0l-.454-.07h.064l.262-.134.454-.224.237-.122.115-.058.5-.25.525-.262a.141.141,0,0,1,.141,0Z" transform="translate(-116.798 -99.868)" opacity="0.5"/>
      <path id="Path_1997" data-name="Path 1997" d="M137.677,101.186l-.2-.377-.192-.358h.045a.128.128,0,0,1,.083.077l.09.224Z" transform="translate(-118.336 -96.605)" fill="#263238"/>
      <path id="Path_1998" data-name="Path 1998" d="M134.027,110.211l-.691.345-.262.134h-.064l.461-.851h.038Z" transform="translate(-116.798 -99.987)" fill="#263238"/>
      <path id="Path_1999" data-name="Path 1999" d="M138.435,103.231l-.64.544h0l-1.139,1.03a.173.173,0,0,0-.058.134l.134,1.6h0l.058.64a.166.166,0,0,1-.237.16l-.1-.058-.7-.384-.512-.288h0l-.307-.166-.269-.147a.141.141,0,0,0-.141,0l-.525.262-.5.25-.115.058-.237.122-.454.224-.262.134h-.064a.134.134,0,0,1-.134-.173v-.134l.544-2.086a.141.141,0,0,0,0-.134l-1.478-1.574a.16.16,0,0,1,.1-.256l2.265-.326a.166.166,0,0,0,.115-.083l1.177-2.022.032-.038a.217.217,0,0,1,.077-.038h.077a.128.128,0,0,1,.083.077l.09.224.109.269.07.16h0l.166.416.122.294h0l.262.64a.134.134,0,0,0,.109.083l1.28.192.678.1h.224a.155.155,0,0,1,.1.294Z" transform="translate(-116.171 -96.615)" fill="#407bff"/>
      <path id="Path_2000" data-name="Path 2000" d="M135.993,101.008h0l-2.188,5.681-.083.218-.454.224-.262.134h-.064a.134.134,0,0,1-.134-.173v-.134l2.725-6.519a.218.218,0,0,1,.077-.038h.077a.128.128,0,0,1,.083.077l.09.224Z" transform="translate(-116.723 -96.587)" fill="#fff" opacity="0.4"/>
      <path id="Path_2001" data-name="Path 2001" d="M137.064,102.544h0l-1.785,4.626-.5.25,2.162-5.169Z" transform="translate(-117.436 -97.253)" fill="#fff" opacity="0.2"/>
      <path id="Path_2002" data-name="Path 2002" d="M140.671,104.259h0l-.326.832h0l-1.139,1.03a.173.173,0,0,0-.058.134l.134,1.6h0l-.275.723h0l-.7-.39h0L140,104.15h0Z" transform="translate(-118.707 -97.937)" fill="#fff" opacity="0.3"/>
      <path id="Path_2003" data-name="Path 2003" d="M155.114,103.309l-1.337,1.2-.416.371a.154.154,0,0,0-.051.134v.64l.083,1.74a.16.16,0,0,1-.23.154l-.48-.262-.7-.39-.518-.288.518.288.7.384.1.058a.16.16,0,0,0,.23-.16l-.051-.64h0l-.134-1.6a.173.173,0,0,1,.058-.134l1.139-1.03.64-.544a.147.147,0,0,0-.064-.256h-.224l-.678-.1-1.28-.192a.134.134,0,0,1-.109-.083l-.269-.64h0l-.115-.294-.173-.416h0l-.064-.16h0l-.109-.269-.09-.224a.16.16,0,0,0-.083-.077l.4.058h.064l.064.058.192.486.038.09.077.186.512,1.28a.141.141,0,0,0,.1.077l.851.128.678.1.678.1a.141.141,0,0,1,.051.23Z" transform="translate(-123.426 -96.63)" fill="#407bff"/>
      <path id="Path_2004" data-name="Path 2004" d="M155.114,103.309l-1.337,1.2-.416.371a.154.154,0,0,0-.051.134v.64l.083,1.74a.16.16,0,0,1-.23.154l-.48-.262-.7-.39-.518-.288.518.288.7.384.1.058a.16.16,0,0,0,.23-.16l-.051-.64h0l-.134-1.6a.173.173,0,0,1,.058-.134l1.139-1.03.64-.544a.147.147,0,0,0-.064-.256h-.224l-.678-.1-1.28-.192a.134.134,0,0,1-.109-.083l-.269-.64h0l-.115-.294-.173-.416h0l-.064-.16h0l-.109-.269-.09-.224a.16.16,0,0,0-.083-.077l.4.058h.064l.064.058.192.486.038.09.077.186.512,1.28a.141.141,0,0,0,.1.077l.851.128.678.1.678.1a.141.141,0,0,1,.051.23Z" transform="translate(-123.426 -96.63)" opacity="0.5"/>
      <path id="Path_2005" data-name="Path 2005" d="M152.177,100.64l-.077-.07a.134.134,0,0,1,.077.07Z" transform="translate(-123.675 -96.648)" fill="#263238"/>
      <path id="Path_2006" data-name="Path 2006" d="M152,100.55h.058Z" transform="translate(-123.639 -96.641)" fill="#263238"/>
      <path id="Path_2007" data-name="Path 2007" d="M149.616,109.67l-1.1.557h0l-.525.262-.326.16h0a.23.23,0,0,1-.147,0h0l-.448-.07h.064l.262-.134.454-.224.237-.122.115-.058.5-.25.525-.262a.141.141,0,0,1,.141,0Z" transform="translate(-121.863 -99.868)" fill="#407bff"/>
      <path id="Path_2008" data-name="Path 2008" d="M149.616,109.67l-1.1.557h0l-.525.262-.326.16h0a.23.23,0,0,1-.147,0h0l-.448-.07h.064l.262-.134.454-.224.237-.122.115-.058.5-.25.525-.262a.141.141,0,0,1,.141,0Z" transform="translate(-121.863 -99.868)" opacity="0.5"/>
      <path id="Path_2009" data-name="Path 2009" d="M151.7,101.186l-.2-.377-.192-.358h.045a.16.16,0,0,1,.083.077l.09.224Z" transform="translate(-123.39 -96.605)" fill="#263238"/>
      <path id="Path_2010" data-name="Path 2010" d="M148.057,110.211l-.691.345-.262.134h-.064l.461-.851h.038Z" transform="translate(-121.852 -99.987)" fill="#263238"/>
      <path id="Path_2011" data-name="Path 2011" d="M152.461,103.231l-.64.544h0l-1.139,1.03a.173.173,0,0,0-.058.134l.134,1.6h0l.051.64a.16.16,0,0,1-.23.16l-.1-.058-.7-.384-.518-.288h0l-.307-.166-.269-.147a.141.141,0,0,0-.141,0l-.525.262-.5.25-.115.058-.237.122-.454.224-.262.134h-.064a.134.134,0,0,1-.134-.173v-.134l.544-2.086a.141.141,0,0,0,0-.134l-1.478-1.574a.16.16,0,0,1,.1-.256l2.265-.326a.166.166,0,0,0,.115-.083l1.177-2.022v-.038l.077-.038h.077a.16.16,0,0,1,.083.077l.09.224.109.269.064.16h0l.173.416.115.294h0l.269.64a.134.134,0,0,0,.109.083l1.28.192.678.1h.224a.162.162,0,1,1,.134.294Z" transform="translate(-121.221 -96.615)" fill="#407bff"/>
      <path id="Path_2012" data-name="Path 2012" d="M150.023,101.008h0l-2.188,5.681-.083.218-.454.224-.262.134h-.064a.134.134,0,0,1-.134-.173v-.134l2.725-6.519.077-.038h.077a.16.16,0,0,1,.083.077l.09.224Z" transform="translate(-121.777 -96.587)" fill="#fff" opacity="0.4"/>
      <path id="Path_2013" data-name="Path 2013" d="M151.094,102.544h0l-1.785,4.626-.5.25,2.162-5.169Z" transform="translate(-122.49 -97.253)" fill="#fff" opacity="0.2"/>
      <path id="Path_2014" data-name="Path 2014" d="M154.721,104.259h0l-.326.832h0l-1.139,1.03a.173.173,0,0,0-.058.134l.134,1.6h0l-.275.723h0l-.7-.39h0l1.689-4.037h0Z" transform="translate(-123.769 -97.937)" fill="#fff" opacity="0.3"/>
      <path id="Path_2015" data-name="Path 2015" d="M169.144,103.309l-1.337,1.2-.416.371a.154.154,0,0,0-.051.134v.64l.083,1.74a.16.16,0,0,1-.23.154l-.48-.262-.7-.39-.518-.288.518.288.7.384.1.058a.16.16,0,0,0,.23-.16l-.051-.64h0l-.134-1.6a.154.154,0,0,1,.058-.134l1.139-1.03.64-.544a.147.147,0,0,0-.064-.256h-.224l-.678-.1-1.28-.192a.134.134,0,0,1-.109-.083l-.269-.64h0l-.122-.294-.166-.416h0l-.064-.16h0l-.109-.269-.09-.224a.16.16,0,0,0-.083-.077l.4.058h.058l.064.058.2.486.038.09.077.186.512,1.28a.141.141,0,0,0,.1.077l.851.128.678.1.678.1a.141.141,0,0,1,.051.23Z" transform="translate(-128.481 -96.63)" fill="#407bff"/>
      <path id="Path_2016" data-name="Path 2016" d="M169.144,103.309l-1.337,1.2-.416.371a.154.154,0,0,0-.051.134v.64l.083,1.74a.16.16,0,0,1-.23.154l-.48-.262-.7-.39-.518-.288.518.288.7.384.1.058a.16.16,0,0,0,.23-.16l-.051-.64h0l-.134-1.6a.154.154,0,0,1,.058-.134l1.139-1.03.64-.544a.147.147,0,0,0-.064-.256h-.224l-.678-.1-1.28-.192a.134.134,0,0,1-.109-.083l-.269-.64h0l-.122-.294-.166-.416h0l-.064-.16h0l-.109-.269-.09-.224a.16.16,0,0,0-.083-.077l.4.058h.058l.064.058.2.486.038.09.077.186.512,1.28a.141.141,0,0,0,.1.077l.851.128.678.1.678.1a.141.141,0,0,1,.051.23Z" transform="translate(-128.481 -96.63)" opacity="0.5"/>
      <path id="Path_2017" data-name="Path 2017" d="M166.2,100.64l-.077-.07A.109.109,0,0,1,166.2,100.64Z" transform="translate(-128.726 -96.648)" fill="#263238"/>
      <path id="Path_2018" data-name="Path 2018" d="M166,100.55h.058Z" transform="translate(-128.682 -96.641)" fill="#263238"/>
      <path id="Path_2019" data-name="Path 2019" d="M163.646,109.67l-1.1.557h0l-.525.262-.326.16h0a.23.23,0,0,1-.147,0h0l-.448-.07h.064l.262-.134.454-.224.237-.122.109-.058.505-.25.525-.262a.141.141,0,0,1,.141,0Z" transform="translate(-126.917 -99.868)" fill="#407bff"/>
      <path id="Path_2020" data-name="Path 2020" d="M163.646,109.67l-1.1.557h0l-.525.262-.326.16h0a.23.23,0,0,1-.147,0h0l-.448-.07h.064l.262-.134.454-.224.237-.122.109-.058.505-.25.525-.262a.141.141,0,0,1,.141,0Z" transform="translate(-126.917 -99.868)" opacity="0.5"/>
      <path id="Path_2021" data-name="Path 2021" d="M165.78,101.186l-.2-.377-.192-.358h.045a.16.16,0,0,1,.083.077l.09.224Z" transform="translate(-128.463 -96.605)" fill="#263238"/>
      <path id="Path_2022" data-name="Path 2022" d="M162.087,110.211l-.691.345-.262.134h-.064l.461-.851h.038Z" transform="translate(-126.906 -99.987)" fill="#263238"/>
      <path id="Path_2023" data-name="Path 2023" d="M166.509,103.231l-.64.544h0l-1.139,1.03a.154.154,0,0,0-.058.134l.134,1.6h0l.051.64a.16.16,0,0,1-.23.16l-.1-.058-.7-.384-.518-.288h0l-.307-.166-.269-.147a.141.141,0,0,0-.141,0l-.525.262-.505.25-.109.058-.237.122-.454.224-.262.134h-.064a.141.141,0,0,1-.141-.173l.038-.134.544-2.086a.16.16,0,0,0,0-.134l-1.478-1.574a.16.16,0,0,1,.1-.256l2.258-.326a.166.166,0,0,0,.122-.083l1.177-2.022v-.038a.173.173,0,0,1,.077-.038h.077a.16.16,0,0,1,.083.077l.09.224.109.269.064.16h0l.166.416.122.294h0l.269.64a.134.134,0,0,0,.109.083l1.28.192.678.1h.224a.156.156,0,0,1,.1.294Z" transform="translate(-126.293 -96.615)" fill="#407bff"/>
      <path id="Path_2024" data-name="Path 2024" d="M164.05,101.008h0l-2.188,5.681-.083.218-.454.224-.262.134H161a.141.141,0,0,1-.141-.173l.038-.134,2.725-6.519a.173.173,0,0,1,.077-.038h.077a.16.16,0,0,1,.083.077l.09.224Z" transform="translate(-126.829 -96.587)" fill="#fff" opacity="0.4"/>
      <path id="Path_2025" data-name="Path 2025" d="M165.114,102.544h0l-1.779,4.626-.505.25,2.162-5.169Z" transform="translate(-127.54 -97.253)" fill="#fff" opacity="0.2"/>
      <path id="Path_2026" data-name="Path 2026" d="M168.751,104.259h0l-.326.832h0l-1.139,1.03a.154.154,0,0,0-.058.134l.134,1.6h0l-.275.723h0l-.7-.39h0l1.689-4.037h0Z" transform="translate(-128.823 -97.937)" fill="#fff" opacity="0.3"/>
      <path id="Path_2027" data-name="Path 2027" d="M183.171,103.309l-1.337,1.2-.416.371a.153.153,0,0,0-.051.134v.64l.083,1.74a.16.16,0,0,1-.23.154l-.48-.262-.7-.39-.518-.288.518.288.7.384.1.058a.16.16,0,0,0,.23-.16l-.051-.64h0l-.134-1.6a.154.154,0,0,1,.058-.134l1.139-1.03.64-.544a.147.147,0,0,0-.064-.256h-.224l-.685-.1-1.28-.192a.134.134,0,0,1-.109-.083l-.269-.64h0l-.122-.294-.166-.416h0l-.064-.16h0l-.109-.269-.09-.224a.16.16,0,0,0-.083-.077l.4.058h.058l.064.058.2.486.038.09.077.186.512,1.28a.128.128,0,0,0,.1.077l.844.128.685.1.678.1a.141.141,0,0,1,.058.23Z" transform="translate(-133.531 -96.63)" fill="#407bff"/>
      <path id="Path_2028" data-name="Path 2028" d="M183.171,103.309l-1.337,1.2-.416.371a.153.153,0,0,0-.051.134v.64l.083,1.74a.16.16,0,0,1-.23.154l-.48-.262-.7-.39-.518-.288.518.288.7.384.1.058a.16.16,0,0,0,.23-.16l-.051-.64h0l-.134-1.6a.154.154,0,0,1,.058-.134l1.139-1.03.64-.544a.147.147,0,0,0-.064-.256h-.224l-.685-.1-1.28-.192a.134.134,0,0,1-.109-.083l-.269-.64h0l-.122-.294-.166-.416h0l-.064-.16h0l-.109-.269-.09-.224a.16.16,0,0,0-.083-.077l.4.058h.058l.064.058.2.486.038.09.077.186.512,1.28a.128.128,0,0,0,.1.077l.844.128.685.1.678.1a.141.141,0,0,1,.058.23Z" transform="translate(-133.531 -96.63)" opacity="0.5"/>
      <path id="Path_2029" data-name="Path 2029" d="M180.227,100.64l-.077-.07a.122.122,0,0,1,.077.07Z" transform="translate(-133.78 -96.648)" fill="#263238"/>
      <path id="Path_2030" data-name="Path 2030" d="M180.06,100.55h.058Z" transform="translate(-133.747 -96.641)" fill="#263238"/>
      <path id="Path_2031" data-name="Path 2031" d="M177.676,109.67l-1.107.557h0l-.518.262-.326.16h0a.23.23,0,0,1-.147,0h0l-.448-.07h.064l.256-.134.454-.224.237-.122.115-.058.505-.25.525-.262a.128.128,0,0,1,.134,0Z" transform="translate(-131.971 -99.868)" fill="#407bff"/>
      <path id="Path_2032" data-name="Path 2032" d="M177.676,109.67l-1.107.557h0l-.518.262-.326.16h0a.23.23,0,0,1-.147,0h0l-.448-.07h.064l.256-.134.454-.224.237-.122.115-.058.505-.25.525-.262a.128.128,0,0,1,.134,0Z" transform="translate(-131.971 -99.868)" opacity="0.5"/>
      <path id="Path_2033" data-name="Path 2033" d="M179.78,101.186l-.2-.377-.186-.358h.045a.16.16,0,0,1,.083.077l.09.224Z" transform="translate(-133.506 -96.605)" fill="#263238"/>
      <path id="Path_2034" data-name="Path 2034" d="M176.111,110.211l-.691.345-.256.134H175.1l.461-.851h.038Z" transform="translate(-131.96 -99.987)" fill="#263238"/>
      <path id="Path_2035" data-name="Path 2035" d="M180.535,103.231l-.64.544h0l-1.139,1.03a.154.154,0,0,0-.058.134l.134,1.6h0l.051.64a.16.16,0,0,1-.23.16l-.1-.058-.7-.384-.518-.288h0l-.307-.166-.275-.147a.128.128,0,0,0-.134,0l-.525.262-.505.25-.115.058-.237.122-.454.224-.256.134h-.064a.134.134,0,0,1-.141-.173l.038-.134.537-2.086a.141.141,0,0,0,0-.134l-1.478-1.574a.16.16,0,0,1,.1-.256l2.258-.326a.166.166,0,0,0,.122-.083l1.177-2.022v-.038a.147.147,0,0,1,.077-.038h.077a.16.16,0,0,1,.083.077l.09.224.109.269.064.16h0l.166.416.122.294h0l.269.64a.134.134,0,0,0,.109.083l1.28.192.685.1h.224a.156.156,0,0,1,.1.294Z" transform="translate(-131.344 -96.615)" fill="#407bff"/>
      <path id="Path_2036" data-name="Path 2036" d="M178.079,101.008h0l-2.194,5.681-.083.218-.454.224-.256.134h-.064a.134.134,0,0,1-.141-.173l.038-.134,2.725-6.519a.147.147,0,0,1,.077-.038h.077a.16.16,0,0,1,.083.077l.09.224Z" transform="translate(-131.882 -96.586)" fill="#fff" opacity="0.4"/>
      <path id="Path_2037" data-name="Path 2037" d="M179.144,102.544h0l-1.779,4.626-.505.25,2.162-5.169Z" transform="translate(-132.594 -97.253)" fill="#fff" opacity="0.2"/>
      <path id="Path_2038" data-name="Path 2038" d="M182.777,104.259h0l-.326.832h0l-1.139,1.03a.154.154,0,0,0-.058.134l.134,1.6h0l-.281.723h0l-.7-.39h0l1.683-4.037h0Z" transform="translate(-133.873 -97.937)" fill="#fff" opacity="0.3"/>
      <rect id="Rectangle_426" data-name="Rectangle 426" width="38.572" height="0.64" transform="translate(12.821 16.577)" fill="#407bff"/>
      <rect id="Rectangle_427" data-name="Rectangle 427" width="46.102" height="0.64" transform="translate(5.285 20.172)" fill="#407bff"/>
      <rect id="Rectangle_428" data-name="Rectangle 428" width="31.63" height="0.64" transform="translate(5.285 23.774)" fill="#407bff"/>
    </g>
    <g id="freepik--character-2--inject-83" transform="translate(163.045 191.183)">
      <path id="Path_2039" data-name="Path 2039" d="M268.894,365.57l-.934,3.8s-9.219-2.77-12.316,4.971,4.965,24.26,29.487,18.553c0,0,6.609,1.8,12.264.371,8.375-2.111,19.046-7.037,20.2-14.811,1.919-13.032-24-8.407-24-8.407l-.966-2.444Z" transform="translate(-254.909 -303.061)" fill="#407bff"/>
      <path id="Path_2040" data-name="Path 2040" d="M281.82,374.12s5.809,2.93,7.914,7.856l2.5.921S290.764,376.18,281.82,374.12Z" transform="translate(-264.565 -306.141)" opacity="0.1"/>
      <path id="Path_2041" data-name="Path 2041" d="M311.23,385.275s.179-8.317,8.464-14.715h6.442L313.7,386.836Z" transform="translate(-275.16 -304.858)" fill="#407bff"/>
      <path id="Path_2042" data-name="Path 2042" d="M255.5,378.732s-2.342,6.711,6.615,14.19,13.7-2.476,13.7-2.476l.691-3.8-6.091-5.438L262.651,376l-4.229.5Z" transform="translate(-254.986 -306.818)" fill="#407bff"/>
      <path id="Path_2043" data-name="Path 2043" d="M255.58,380.466a17.677,17.677,0,0,0,9.968,13.614c7.639,3.647,9.6-6.66,9.6-6.66l-14.075-9.181-5.221.665Z" transform="translate(-255.113 -307.625)" fill="#ff8b7b"/>
      <path id="Path_2044" data-name="Path 2044" d="M255.58,380.466a17.677,17.677,0,0,0,9.968,13.614c7.639,3.647,9.6-6.66,9.6-6.66l-14.075-9.181-5.221.665Z" transform="translate(-255.113 -307.625)" opacity="0.1"/>
      <path id="Path_2045" data-name="Path 2045" d="M345.395,411.1a13.768,13.768,0,0,0-7.223-6.25,2.04,2.04,0,0,1-.793-.717,1.591,1.591,0,0,1-.2-.371l-1.574-5.118a.454.454,0,0,1-.032-.288.473.473,0,0,1,.2-.339l4.4-2.559a.857.857,0,0,1,1.2.179c.032.051.064.1.09.154.889,2.143,1.6,4.075,2.757,6.711,1.363,3.109,1.395,2.156,3.039,5.8C348.261,410.457,345.932,411.954,345.395,411.1Z" transform="translate(-283.925 -313.765)" fill="#263238"/>
      <path id="Path_2046" data-name="Path 2046" d="M313.635,371.034s22.162-4.817,25.706,2.22-9.034,11.74-13.505,13.314C318.043,389.325,291,397.815,291,397.815l1.759-5.515,12.9-7.338S306.252,377.566,313.635,371.034Z" transform="translate(-267.872 -304.449)" fill="#ff8b7b"/>
      <path id="Path_2047" data-name="Path 2047" d="M289.079,407.577,291,401.762a.493.493,0,0,0-.211-.582l-4.389-2.617a.819.819,0,0,0-1.126.275.736.736,0,0,0-.077.16c-.64,2.111-1.158,4.011-2.022,6.622-1.024,3.084-1.132,2.182-2.386,5.758-.749,2.175,1.6,3.4,2.028,2.514,1.919-4.063,3.359-4.082,5.419-5.214A1.919,1.919,0,0,0,289.079,407.577Z" transform="translate(-264.141 -314.903)" fill="#263238"/>
      <path id="Path_2048" data-name="Path 2048" d="M325.005,375.106c-.211-.819-12.495,7.005-16.327,6.538a21.225,21.225,0,0,0-1.222,3.487h0c-.058.224-.1.429-.141.64v.1a1.171,1.171,0,0,1-.045.2v.109a.31.31,0,0,1-.032.166.562.562,0,0,0,0,.1,1.126,1.126,0,0,0,0,.128.494.494,0,0,1,0,.1.377.377,0,0,1,0,.09v.083a.161.161,0,0,0,0,.051.243.243,0,0,0,0,.064h0L295,393.871l9.475,2.162c5.656-1.8,12.213-3.9,17.184-5.54l-12.552-4.734C313.828,382.86,325.184,375.8,325.005,375.106Z" transform="translate(-269.313 -306.474)" opacity="0.1"/>
      <path id="Path_2049" data-name="Path 2049" d="M308.3,395.3c-6.858-.87-19.878-2.559-24.362-3.538-8.1-1.747-34.784-8.6-28-17.7,7.089-9.5,21.266,4.926,21.266,4.926l29.289,10.5a.454.454,0,0,0,.032.288L308.1,394.9A1.591,1.591,0,0,0,308.3,395.3Z" transform="translate(-254.849 -304.955)" fill="#ff8b7b"/>
      <path id="Path_2050" data-name="Path 2050" d="M272.013,375.1c-2.111.915,11.3,5.329,11.3,5.329a40.4,40.4,0,0,0-5.713-4.651C275.532,374.933,273.427,374.485,272.013,375.1Z" transform="translate(-260.951 -306.391)" opacity="0.1"/>
      <path id="Path_2051" data-name="Path 2051" d="M361.895,318.306l5.118-2.4L365,310.36l-2.118,2.911a13.646,13.646,0,0,1-1.747,1.919h0Z" transform="translate(-293.139 -283.172)" fill="#ff8b7b"/>
      <path id="Path_2052" data-name="Path 2052" d="M365.36,310.172l2.207,5.7,3.269-1.28a.768.768,0,0,0,.409-.921l-1-4.408a.4.4,0,0,0-.486-.262Z" transform="translate(-294.659 -282.677)" fill="#ff8b7b"/>
      <path id="Path_2053" data-name="Path 2053" d="M366.388,312.143l-1.369,1.132-2.054-.262.326-.717a2.175,2.175,0,0,0,.109-1.542,8.775,8.775,0,0,0-.64-1.548l-.083-.166a.755.755,0,0,1,.23-.883s.749-.173,1.5,1.523l.505.749.761-.083Z" transform="translate(-293.672 -282.377)" fill="#ff8b7b"/>
      <path id="Path_2054" data-name="Path 2054" d="M314.062,314.11l11.516,8.221,17.741-6.4,1.529,2.7s-14.235,10.2-18.848,10.121-16.5-9.91-16.5-9.91Z" transform="translate(-274.536 -284.523)" fill="#ff8b7b"/>
      <g id="freepik--Character--inject-2--inject-83" transform="translate(12.949 4.299)">
        <path id="Path_2055" data-name="Path 2055" d="M311.4,312.543c1.855-1.228,4.223-3.2,12.322,6.167l-5.489,6.321C312.922,323.061,307.829,316.292,311.4,312.543Z" transform="translate(-287.741 -287.876)" fill="#263238"/>
        <path id="Path_2056" data-name="Path 2056" d="M295.9,307.229l-5.572-1.324-7.089-.045a4.913,4.913,0,0,0-4.766,3.583A126.529,126.529,0,0,0,275.6,324.8c-.793,5.816.186,12.469.4,20.351l25.29.966c-1.337-11.516.934-21.579,2.444-27.644.333-3.723.032-8.138-1.99-9Z" transform="translate(-275.163 -285.85)" fill="#263238"/>
        <path id="Path_2057" data-name="Path 2057" d="M275.525,328.351c.55-4.075,1.28-8.675,2.15-12.488,4.683-.985,7.383,9.251,6.187,14.433s-8.771,2.374-8.771,2.374C275.205,331.121,275.352,329.662,275.525,328.351Z" transform="translate(-275.09 -289.43)" opacity="0.3"/>
        <path id="Path_2058" data-name="Path 2058" d="M299.766,291.75l2.271,3.2,3.09,4.338a4.478,4.478,0,0,0-.845,1.35c-.467,1.094-.9,1.919,1.42,3.359a1.516,1.516,0,0,1,.736,1.452c-.109.7-.768,1.4-3.2,1.075A11.164,11.164,0,0,1,297,303.381c-.838-.774-.678-1.388.064-2.265C299.184,298.64,299.69,294.821,299.766,291.75Z" transform="translate(-282.781 -280.768)" fill="#ff8b7b"/>
        <path id="Path_2059" data-name="Path 2059" d="M307.509,300.086l-1.919-3.1-.109.269a7.346,7.346,0,0,0-.333,1.222c-.269,1.42.9,3.391,2.143,4.3l.134-.281a5.213,5.213,0,0,1,.774-1.28.153.153,0,0,1,.07-.058Z" transform="translate(-285.904 -282.655)" opacity="0.2"/>
        <path id="Path_2060" data-name="Path 2060" d="M315.11,287.479c2.623-3.839,2.463-6.2,4.766-8.119,1.145-.345,2.789,1.919,1.094,5.118S315.11,287.479,315.11,287.479Z" transform="translate(-289.506 -276.292)" fill="#263238"/>
        <path id="Path_2061" data-name="Path 2061" d="M302.319,280.167c-.845,4.721-1.542,7.441.243,10.326,2.7,4.376,8.957,3.512,11.19-.889,2-3.96,3.007-11-1.126-13.864a6.647,6.647,0,0,0-10.307,4.427Z" transform="translate(-284.585 -274.584)" fill="#ff8b7b"/>
        <path id="Path_2062" data-name="Path 2062" d="M299.759,284.441l2.374,1.855.857-4.114,2.258-.94,3.052-3.525s-5.361-2.329-6.993-2.764c-.569-.147-2.809,1.177-3.2,1.8a5.483,5.483,0,0,0,.179,5.758,11.944,11.944,0,0,0,1.471,1.926Z" transform="translate(-283.119 -274.713)" fill="#263238"/>
        <path id="Path_2063" data-name="Path 2063" d="M298.5,287.082a4.344,4.344,0,0,0,1.1,2.9c.928,1.024,2.258.128,2.559-1.209.237-1.19-.2-3.007-1.395-3.525S298.506,285.751,298.5,287.082Z" transform="translate(-283.523 -278.377)" fill="#ff8b7b"/>
        <path id="Path_2064" data-name="Path 2064" d="M313.506,288.5c-.109.377,0,.755.25.838s.512-.166.64-.544a.64.64,0,0,0-.25-.845C313.9,287.868,313.615,288.111,313.506,288.5Z" transform="translate(-288.914 -279.393)" fill="#263238"/>
        <path id="Path_2065" data-name="Path 2065" d="M320.216,290.689c-.109.384,0,.761.256.845s.531-.166.64-.544,0-.761-.25-.838S320.325,290.286,320.216,290.689Z" transform="translate(-291.331 -280.186)" fill="#263238"/>
        <path id="Path_2066" data-name="Path 2066" d="M317.391,290.72a13.045,13.045,0,0,0,.531,3.333,1.919,1.919,0,0,1-1.612-.313Z" transform="translate(-289.939 -280.397)" fill="#ff5652"/>
        <path id="Path_2067" data-name="Path 2067" d="M313.559,297.741a3.423,3.423,0,0,1-2.086-1.7.122.122,0,0,1,.051-.16.128.128,0,0,1,.16.064,3.276,3.276,0,0,0,2.367,1.67.122.122,0,0,1,0,.237h0A3.937,3.937,0,0,1,313.559,297.741Z" transform="translate(-288.192 -282.254)" fill="#263238"/>
        <path id="Path_2068" data-name="Path 2068" d="M312.748,285.808a.34.34,0,0,1-.09-.077.243.243,0,0,1,.058-.326,2.245,2.245,0,0,1,2.092-.3.224.224,0,0,1,.128.3h0a.237.237,0,0,1-.313.122,1.791,1.791,0,0,0-1.638.256.224.224,0,0,1-.237.026Z" transform="translate(-288.609 -278.325)" fill="#263238"/>
        <path id="Path_2069" data-name="Path 2069" d="M321.385,286.935a.218.218,0,0,1,.3-.256,2.226,2.226,0,0,1,1.439,1.555.231.231,0,0,1-.454.09,1.791,1.791,0,0,0-1.145-1.2.237.237,0,0,1-.141-.186Z" transform="translate(-291.764 -278.934)" fill="#263238"/>
      </g>
      <path id="Path_2070" data-name="Path 2070" d="M310.019,370.81l-15.47-1.5s-.051-.294,1.28-.365h.345c.262,0,1.318-.077,2.719-.147h.454c4.043-.192,10.435-.454,10.435-.454l.2,2.086Z" transform="translate(-269.151 -304.058)" fill="#407bff"/>
      <path id="Path_2071" data-name="Path 2071" d="M312.065,370.376l-11.625-1.171s-.461-.339.537-.441h.454c4.043-.192,10.435-.454,10.435-.454Z" transform="translate(-271.234 -304.048)" fill="#fff" opacity="0.2"/>
      <path id="Path_2072" data-name="Path 2072" d="M304.541,361.944l2.329.6-3.077,4.779s-4.907-1.542-4-3.685l1.19-.742C301.995,362.264,303.294,361.586,304.541,361.944Z" transform="translate(-270.998 -301.719)" fill="#ff8b7b"/>
      <path id="Path_2073" data-name="Path 2073" d="M311.356,366.076l-2.214,2.4-3.033-.742,3.077-4.773Z" transform="translate(-273.315 -302.12)" fill="#ff8b7b"/>
      <path id="Path_2074" data-name="Path 2074" d="M280.61,330.29c-1.452,4.4-3.013,4.977-1.241,7.281s11.81,10.179,13.691,12.507l-3.154,2.4q-5.566-3.077-11.2-6.033c-2.738-1.439-5.656-3.013-7.089-5.758-2.047-3.935-.9-7.677,1.395-12.8C275.255,327.527,280.61,330.29,280.61,330.29Z" transform="translate(-260.508 -289.476)" fill="#ff8b7b"/>
      <path id="Path_2075" data-name="Path 2075" d="M279.846,305.923c4.958-.96,7.581,3.2,5.489,9.7a59.911,59.911,0,0,1-4.146,10.16l-10.94-4.274C271.952,315.129,274.78,306.927,279.846,305.923Z" transform="translate(-260.397 -281.524)" fill="#263238"/>
      <path id="Path_2076" data-name="Path 2076" d="M315.754,372.191l27.926-1.132a.531.531,0,0,0,.505-.544h0a.531.531,0,0,0-.55-.505l-27.919,1.132a.525.525,0,0,0-.505.544h0A.531.531,0,0,0,315.754,372.191Z" transform="translate(-276.593 -304.66)" fill="#263238"/>
      <path id="Path_2077" data-name="Path 2077" d="M294.559,370.672l13.371,1.369a.518.518,0,0,0,.576-.467h0a.518.518,0,0,0-.467-.576l-13.365-1.369a.531.531,0,0,0-.576.467h0A.531.531,0,0,0,294.559,370.672Z" transform="translate(-268.987 -304.522)" fill="#407bff"/>
      <path id="Path_2078" data-name="Path 2078" d="M294.559,370.672l13.371,1.369a.518.518,0,0,0,.576-.467h0a.518.518,0,0,0-.467-.576l-13.365-1.369a.531.531,0,0,0-.576.467h0A.531.531,0,0,0,294.559,370.672Z" transform="translate(-268.987 -304.522)" opacity="0.4"/>
      <path id="Path_2079" data-name="Path 2079" d="M316.281,361.794l26.039-1.056a1.875,1.875,0,0,0,1.753-1.747l.64-13.23a1.523,1.523,0,0,0-1.593-1.612L317.074,345.2a1.874,1.874,0,0,0-1.747,1.747l-.64,13.23a1.51,1.51,0,0,0,1.593,1.612Z" transform="translate(-276.404 -295.343)" fill="#407bff"/>
      <path id="Path_2080" data-name="Path 2080" d="M316.281,361.794l26.039-1.056a1.875,1.875,0,0,0,1.753-1.747l.64-13.23a1.523,1.523,0,0,0-1.593-1.612L317.074,345.2a1.874,1.874,0,0,0-1.747,1.747l-.64,13.23a1.51,1.51,0,0,0,1.593,1.612Z" transform="translate(-276.404 -295.343)" opacity="0.4"/>
      <path id="Path_2081" data-name="Path 2081" d="M317.471,361.657l26.045-1.056a1.868,1.868,0,0,0,1.747-1.74l.64-13.237a1.51,1.51,0,0,0-1.593-1.606l-26.039,1.056a1.862,1.862,0,0,0-1.753,1.74l-.64,13.237a1.516,1.516,0,0,0,1.593,1.606Z" transform="translate(-276.833 -295.296)" fill="#407bff"/>
      <path id="Path_2082" data-name="Path 2082" d="M317.471,361.657l26.045-1.056a1.868,1.868,0,0,0,1.747-1.74l.64-13.237a1.51,1.51,0,0,0-1.593-1.606l-26.039,1.056a1.862,1.862,0,0,0-1.753,1.74l-.64,13.237a1.516,1.516,0,0,0,1.593,1.606Z" transform="translate(-276.833 -295.296)" fill="#fff" opacity="0.5"/>
      <path id="Path_2083" data-name="Path 2083" d="M341.919,357.137a2.924,2.924,0,0,1-2.713,2.783,2.374,2.374,0,0,1-2.559-2.5,2.93,2.93,0,0,1,2.713-2.783,2.374,2.374,0,0,1,2.559,2.5Z" transform="translate(-284.314 -299.119)" fill="#fff"/>
      <path id="Path_2084" data-name="Path 2084" d="M301.647,269.1a4.542,4.542,0,0,1,3.775-1.184,13.391,13.391,0,0,1,3.883,1.28l7.4,3.237a3.02,3.02,0,0,1,1.683,1.28,2.028,2.028,0,0,1-1.248,2.489,5.547,5.547,0,0,1-3.052.1,67.4,67.4,0,0,1-10.191-2.591C301.826,273.031,299.331,271.572,301.647,269.1Z" transform="translate(-271.373 -267.864)" fill="#263238"/>
      <path id="Path_2085" data-name="Path 2085" d="M317.026,279.443a1.516,1.516,0,0,0-.672,1.964,1.42,1.42,0,0,1,.876-1.088c.454-.243.889-.825.55-1.209A4.541,4.541,0,0,0,317.026,279.443Z" transform="translate(-276.957 -271.915)" fill="#263238"/>
      <path id="Path_2086" data-name="Path 2086" d="M320.311,279.694a2.373,2.373,0,0,1-.531,2.629,2.054,2.054,0,0,0,1.753-2.5l-1.075-.269Z" transform="translate(-278.24 -272.077)" fill="#263238"/>
    </g>
    <g id="freepik--character-1--inject-83" transform="translate(75.211 100.737)">
      <path id="Path_2087" data-name="Path 2087" d="M138.49,398.911l4.184.908,2.9-7.44L140.7,390.21Z" transform="translate(-125.1 -221.49)" fill="#ffb573"/>
      <path id="Path_2088" data-name="Path 2088" d="M140.09,395.062l1.094-4.312,2.252.614,2.719,1.209-1.395,3.564Z" transform="translate(-125.676 -221.685)" opacity="0.1"/>
      <path id="Path_2089" data-name="Path 2089" d="M134.626,402.3s-.173-.173-.4-.371-.365-.307-.582-.467a2.847,2.847,0,0,0-1.427-.64.64.64,0,0,0-.441.173.461.461,0,0,0-.147.512c.134.313.736.595,1.35.761l.416.1a9.779,9.779,0,0,0,1.139.166h0a.145.145,0,0,0,.1-.23Zm-.934-.134c-.838-.16-1.721-.448-1.843-.768a.252.252,0,0,1,.1-.25.346.346,0,0,1,.269-.1.957.957,0,0,1,.237.032,5.329,5.329,0,0,1,1.491.953c.083.064.166.141.249.218C134.031,402.215,133.865,402.215,133.692,402.164Z" transform="translate(-122.618 -225.312)" fill="#407bff"/>
      <path id="Path_2090" data-name="Path 2090" d="M135.345,399.784a.9.9,0,0,0-.595-.371c-.333-.058-.473.083-.525.211-.134.281.064.813.352,1.312a5.758,5.758,0,0,0,.371.544,3.386,3.386,0,0,0,.448.48.071.071,0,0,0,.051,0h0a.09.09,0,0,0,.058,0,.121.121,0,0,0,.077-.09,4.608,4.608,0,0,0,.051-.557,2.61,2.61,0,0,0-.288-1.529Zm.045,1.811c-.058-.064-.122-.128-.179-.2-.461-.55-.883-1.4-.774-1.689,0,0,.051-.109.269-.07h.064a.64.64,0,0,1,.365.25,2.789,2.789,0,0,1,.281,1.452c-.013.115-.019.192-.032.275Z" transform="translate(-123.548 -224.801)" fill="#407bff"/>
      <path id="Path_2091" data-name="Path 2091" d="M132.406,402.541l5.393,1.433a.448.448,0,0,1,.333.454l-.186,4.645a.748.748,0,0,1-.774.723.637.637,0,0,1-.154,0c-1.919-.544-3.64-1.113-6.059-1.753-2.86-.755-2.226-.224-5.6-1.068-2.028-.505-1.791-2.9-.9-2.789,4.063.544,4.785-.531,6.673-1.535a1.785,1.785,0,0,1,1.273-.109Z" transform="translate(-119.809 -225.907)" fill="#263238"/>
      <path id="Path_2092" data-name="Path 2092" d="M185.9,406.7h4.28l1.26-7.888-5.233-1.088Z" transform="translate(-142.178 -224.196)" fill="#ffb573"/>
      <path id="Path_2093" data-name="Path 2093" d="M186.294,397.72l5.233,1.088-.589,3.666-4.8-.218Z" transform="translate(-142.265 -224.196)" opacity="0.1"/>
      <path id="Path_2094" data-name="Path 2094" d="M181.9,410.691s-.211-.122-.486-.256-.416-.192-.64-.288a2.821,2.821,0,0,0-1.574-.269.6.6,0,0,0-.377.281.461.461,0,0,0,0,.531,2.181,2.181,0,0,0,1.5.377h.422a9.5,9.5,0,0,0,1.126-.141h0a.141.141,0,0,0,.1-.1.134.134,0,0,0-.07-.134Zm-.94.115c-.851.064-1.772,0-1.97-.262-.038-.038-.07-.109,0-.262a.345.345,0,0,1,.237-.173.953.953,0,0,1,.23-.032,5.412,5.412,0,0,1,1.689.531,1.867,1.867,0,0,1,.3.147Z" transform="translate(-139.599 -228.569)" fill="#407bff"/>
      <path id="Path_2095" data-name="Path 2095" d="M182.727,410.1a4.692,4.692,0,0,0-.09-.55,2.713,2.713,0,0,0-.717-1.427.877.877,0,0,0-.64-.2c-.339.032-.441.2-.454.339-.058.313.281.781.7,1.184a3.981,3.981,0,0,0,.48.409,2.8,2.8,0,0,0,.563.352.07.07,0,0,0,.051,0h.064a.122.122,0,0,0,.038-.109Zm-1.708-1.817c0-.032,0-.115.243-.141h.064a.64.64,0,0,1,.422.154,2.828,2.828,0,0,1,.64,1.324,1.651,1.651,0,0,1,.038.237l-.224-.147C181.62,409.3,180.993,408.612,181.018,408.286Z" transform="translate(-140.348 -227.871)" fill="#407bff"/>
      <path id="Path_2096" data-name="Path 2096" d="M180.1,410.372l5.579-.032a.454.454,0,0,1,.441.345l1.03,4.536a.749.749,0,0,1-.55.9h-.16c-2.009,0-3.8-.128-6.308-.109-2.956,0-2.2.365-5.675.435-2.092.038-2.489-2.335-1.606-2.457,4.063-.537,4.478-1.766,6.033-3.231a1.785,1.785,0,0,1,1.216-.39Z" transform="translate(-137.319 -228.742)" fill="#263238"/>
      <path id="Path_2097" data-name="Path 2097" d="M119.038,171.893l1.382,1.727,3.429-.275,1.184,1.209,15.994,4.427c3.839-3.141,11.989-6.858,11.989-6.858,4.3,1.817,3.839,5.029,3.839,5.029s-10.569,6.4-14.919,7.223c-3.723.7-18.445-7.607-18.445-7.607l-3.333-.109a1.721,1.721,0,0,1-1.177-.518l-.928-.953a1.734,1.734,0,0,1-.486-1.356l.141-1.555a.723.723,0,0,1,1.331-.384Z" transform="translate(-117.56 -142.726)" fill="#ffb573"/>
      <path id="Path_2098" data-name="Path 2098" d="M164.918,171.962l-6.558,4.2,4.53,6.628,9.629-6.494v-.269a5.061,5.061,0,0,0-7.6-4.069Z" transform="translate(-132.258 -142.622)" fill="#263238"/>
      <path id="Path_2099" data-name="Path 2099" d="M217.487,161.948a4.645,4.645,0,0,0,2.847-3.9,3.315,3.315,0,0,0-3.02-3.423c-1.7-.013-3.148,2.009-2.361,3.506a1.919,1.919,0,0,0,1.542.947h0c-1.676.218-2.15-.64-2.617-2a5.912,5.912,0,0,1,.39-4.171,42.754,42.754,0,0,1,2.1-3.73c2.316-4.133,3.039-9.366.979-13.627s-7.261-7.037-11.753-5.547a9.981,9.981,0,0,0-1.836.838c-1.062.595-2.086,1.427-2.265,2.322a.154.154,0,0,0,0,.051.993.993,0,0,0,0,.307c0,1.5,2.028,3.013,3.039,3.717a12.578,12.578,0,0,1,3.333,2.834,4.191,4.191,0,0,1,.512.979c.742,2.034-.281,4.267-1.452,6.091s-2.559,3.685-2.617,5.847c-.064,2.9-.218,9.673,10.083,10.236,2.156.115,4.638-.5,5.406-2.508a2.111,2.111,0,0,1-2.31,1.222Zm-1.6-3.672a.441.441,0,0,1,.505.23,3.665,3.665,0,0,1-.505-.23Z" transform="translate(-147.791 -127.612)" fill="#263238"/>
      <path id="Path_2100" data-name="Path 2100" d="M191.234,207.506l5.56-31.988a2.1,2.1,0,0,0-1.919-2.45s-9.034-1.452-12.066-1.7c-2.31-.186-7.78-.243-11.017-.262l-.275,2.284c-2.015,5.022-2.207,12.6-1.452,18.061l.128.9-1.152,15.994v4.37h21.6Z" transform="translate(-136.105 -142.564)" fill="#263238"/>
      <path id="Path_2101" data-name="Path 2101" d="M183.263,166c3.263-.557,3.877-3.263,3.621-5.758l6.935-4.37c-.972,2.77-2.246,7.639-1.2,10.447,0,0,.032,2.693-5.943,2.693S183.263,166,183.263,166Z" transform="translate(-141.032 -137.074)" fill="#ffb573"/>
      <path id="Path_2102" data-name="Path 2102" d="M189.23,161.1l4.6-2.9a2.386,2.386,0,0,1-.186,2.073,5.6,5.6,0,0,1-4.4,2.559A8.513,8.513,0,0,0,189.23,161.1Z" transform="translate(-143.378 -137.913)" opacity="0.2"/>
      <path id="Path_2103" data-name="Path 2103" d="M195.954,142.086c-1.331,4.747-1.868,7.594-4.837,9.533-4.478,2.93-9.916-.569-10.019-5.6-.1-4.568,2.1-11.548,7.217-12.443a6.724,6.724,0,0,1,7.639,8.515Z" transform="translate(-140.447 -129.002)" fill="#ffb573"/>
      <path id="Path_2104" data-name="Path 2104" d="M191.538,146.129c-.083.4-.358.672-.64.64s-.4-.416-.314-.812.365-.64.64-.608S191.622,145.764,191.538,146.129Z" transform="translate(-143.857 -133.282)" fill="#263238"/>
      <path id="Path_2105" data-name="Path 2105" d="M184.62,144.608c-.083.39-.358.64-.64.608s-.4-.416-.307-.806a.733.733,0,0,1,.64-.64C184.594,143.77,184.71,144.218,184.62,144.608Z" transform="translate(-141.366 -132.715)" fill="#263238"/>
      <path id="Path_2106" data-name="Path 2106" d="M186.227,145.87a14.374,14.374,0,0,1-2.6,2.937,2.335,2.335,0,0,0,1.8.761Z" transform="translate(-141.361 -133.471)" fill="#ed893e"/>
      <path id="Path_2107" data-name="Path 2107" d="M194.121,143.277h.115a.249.249,0,0,0,.115-.313,2.361,2.361,0,0,0-1.663-1.356.237.237,0,1,0-.07.467h0a1.881,1.881,0,0,1,1.28,1.088A.269.269,0,0,0,194.121,143.277Z" transform="translate(-144.52 -131.934)" fill="#263238"/>
      <path id="Path_2108" data-name="Path 2108" d="M182.956,140.968a.237.237,0,0,0,.2-.09,1.862,1.862,0,0,1,1.5-.761.237.237,0,0,0,.256-.217.23.23,0,0,0-.217-.25,2.342,2.342,0,0,0-1.919.94.23.23,0,0,0,0,.32h0a.23.23,0,0,0,.173.058Z" transform="translate(-141.033 -131.23)" fill="#263238"/>
      <path id="Path_2109" data-name="Path 2109" d="M184.244,143.61l-.934-.48S183.668,144.006,184.244,143.61Z" transform="translate(-141.245 -132.484)" fill="#263238"/>
      <path id="Path_2110" data-name="Path 2110" d="M191.294,145.18l-.934-.48S190.718,145.57,191.294,145.18Z" transform="translate(-143.785 -133.05)" fill="#263238"/>
      <path id="Path_2111" data-name="Path 2111" d="M200.6,136.722c0,.422-.256.6-.64.64a8.139,8.139,0,0,1-3.026-1.011,7.677,7.677,0,0,1-.218,6.02,4.18,4.18,0,0,1-1.919,2.38.64.64,0,0,1-.454,0,2.363,2.363,0,0,0-1.919.4c-.589.294-.07-2.118-.07-2.118a12.923,12.923,0,0,1-2.9-4.517,5.608,5.608,0,0,1-.2-.774c-.269-1.433.186-2.066-.64-2.38-1.535-.576-1.638,4.075-2.821,2.233s1.324-3.659,1.324-3.659c-1.28-.582-2.719.94-3.883,2.271-.051.07-.115.141-.166.2-.339.39-.64.755-.915,1.03-.678.691-1.344.813-1.107-.505,2.143-11.836,15.137-4.689,15.137-4.689s3.026-3.64,4.12-1.523-3.308,3.775-3.308,3.775S200.6,135.142,200.6,136.722Z" transform="translate(-140.411 -127.778)" fill="#263238"/>
      <path id="Path_2112" data-name="Path 2112" d="M203.713,152.7a4.734,4.734,0,0,1-3.288,1.4c-1.644,0-2.028-1.567-1.209-2.892.736-1.19,2.482-2.629,3.954-2A2.1,2.1,0,0,1,203.713,152.7Z" transform="translate(-146.825 -134.618)" fill="#ffb573"/>
      <path id="Path_2113" data-name="Path 2113" d="M187.215,153.942a3.949,3.949,0,0,1-.723-.064.128.128,0,0,1-.1-.141h0a.128.128,0,0,1,.147-.1,3.41,3.41,0,0,0,2.962-.825.128.128,0,0,1,.179,0,.122.122,0,0,1,0,.179A3.551,3.551,0,0,1,187.215,153.942Z" transform="translate(-142.354 -135.958)" fill="#263238"/>
      <path id="Path_2114" data-name="Path 2114" d="M202.032,192a13.384,13.384,0,0,1,1,4.945l-1.587-2.258S201.655,193.612,202.032,192Z" transform="translate(-147.78 -150.089)" opacity="0.2"/>
      <path id="Path_2115" data-name="Path 2115" d="M158.474,228,139.78,332.372l6.73,2.3c5.086-13.55,9.11-25.744,12.29-36.582,1.51-5.118,2.118-9.98,3.269-14.516,1.376-5.387,3.2-10.345,4.165-14.868,4.933-23.671,4.536-35.578,4.536-35.578v-5.118Z" transform="translate(-125.565 -163.057)" fill="#263238"/>
      <path id="Path_2116" data-name="Path 2116" d="M182.606,253.395l.441,5.982c-.672,4.779-1.631,10.486-3.013,17.12-.448,2.15-1.107,4.408-1.817,6.756-.832-15.182,2.642-33.633,2.642-33.633Z" transform="translate(-139.365 -170.845)" opacity="0.3"/>
      <path id="Path_2117" data-name="Path 2117" d="M180.51,229.57l2.873,108.313,7.037.537q2.879-18.569,4.414-33.729c.64-6.609.461-12.738.825-18.4.64-10.479,1.593-19.353,1.542-26.678-.122-18.054-1.152-20.025-1.791-26.672-.115-1.235,0-4.952,0-4.952h-14.9Z" transform="translate(-140.237 -163.053)" fill="#263238"/>
      <path id="Path_2118" data-name="Path 2118" d="M182.466,259.611c.045,7.325-.87,16.205-1.548,26.685-.365,5.662-.154,11.791-.825,18.4-1.03,10.115-2.463,21.355-4.414,33.735l-7.037-.544-1.919-71.942c-.166.9-.365,1.817-.557,2.764-.94,4.523-2.8,9.481-4.165,14.875-1.152,4.53-1.759,9.366-3.269,14.51-3.2,10.838-7.2,23.032-12.3,36.582l-6.724-2.3L158.449,228h22.194s-.115,3.723,0,4.952C181.308,239.586,182.344,241.563,182.466,259.611Z" transform="translate(-125.539 -163.057)" fill="#fff" opacity="0.2"/>
      <path id="Path_2119" data-name="Path 2119" d="M192.593,397.377l-8.643-.537V399.6l8.138.537Z" transform="translate(-141.476 -223.879)" fill="#263238"/>
      <path id="Path_2120" data-name="Path 2120" d="M195,229.6c1.919-.1,3.468-.218,4.549-.32l.141,2.418c-1.12.1-2.693.224-4.632.32Z" transform="translate(-145.457 -163.518)" fill="#263238"/>
      <path id="Path_2121" data-name="Path 2121" d="M177.44,232.255V229.83q1.555.064,3.033.1l.154,2.425C179.6,232.331,178.534,232.306,177.44,232.255Z" transform="translate(-139.131 -163.716)" fill="#263238"/>
      <path id="Path_2122" data-name="Path 2122" d="M184.24,229.953c1.983,0,3.839,0,5.457-.083l.166,2.418c-1.459.051-3.058.09-4.785.09h-.806Z" transform="translate(-141.58 -163.731)" fill="#263238"/>
      <path id="Path_2123" data-name="Path 2123" d="M169.863,229.34c1.222.109,2.431.2,3.608.262v2.425q-2-.1-4.082-.3Z" transform="translate(-136.231 -163.54)" fill="#263238"/>
      <path id="Path_2124" data-name="Path 2124" d="M147.415,391.537l-8.3-2.457-.621,2.693,7.818,2.342Z" transform="translate(-125.1 -221.083)" fill="#263238"/>
      <path id="Path_2125" data-name="Path 2125" d="M122.181,172.068l3.743-.454a1.369,1.369,0,0,0,1.2-1.676l-2.15-10.236a.736.736,0,0,0-.787-.563l-4.606.557a1.382,1.382,0,0,0-1.2,1.683l1.97,9.347A1.7,1.7,0,0,0,122.181,172.068Z" transform="translate(-117.843 -138.25)" fill="#407bff"/>
      <path id="Path_2126" data-name="Path 2126" d="M122.181,172.068l3.743-.454a1.369,1.369,0,0,0,1.2-1.676l-2.15-10.236a.736.736,0,0,0-.787-.563l-4.606.557a1.382,1.382,0,0,0-1.2,1.683l1.97,9.347A1.7,1.7,0,0,0,122.181,172.068Z" transform="translate(-117.843 -138.25)" opacity="0.2"/>
      <path id="Path_2127" data-name="Path 2127" d="M121.91,172.426l3.743-.454a1.375,1.375,0,0,0,1.2-1.683l-2.15-10.2a.723.723,0,0,0-.781-.563l-4.613.557a1.375,1.375,0,0,0-1.2,1.683l1.97,9.347a1.7,1.7,0,0,0,1.83,1.312Z" transform="translate(-117.745 -138.39)" fill="#407bff"/>
      <path id="Path_2128" data-name="Path 2128" d="M121.947,172.422l3.666-.441a1.414,1.414,0,0,0,1.235-1.721l-2.137-10.134a.755.755,0,0,0-.825-.589l-4.53.544a1.42,1.42,0,0,0-1.235,1.721l1.958,9.283A1.727,1.727,0,0,0,121.947,172.422Z" transform="translate(-117.75 -138.393)" fill="#fff" opacity="0.5"/>
      <path id="Path_2129" data-name="Path 2129" d="M124.845,162.754l1.644-.2a.64.64,0,0,0,.576-.812l-.345-1.663a.755.755,0,0,0-.806-.576l-1.7.2a.64.64,0,0,0-.569.8l.345,1.606A.8.8,0,0,0,124.845,162.754Z" transform="translate(-119.746 -138.379)" fill="#fff" opacity="0.3"/>
      <path id="Path_2130" data-name="Path 2130" d="M125.045,162.6l1.491-.179a.64.64,0,0,0,.569-.793l-.313-1.478a.806.806,0,0,0-.864-.64l-1.491.179a.64.64,0,0,0-.569.8l.313,1.471A.8.8,0,0,0,125.045,162.6Z" transform="translate(-119.825 -138.383)" fill="#263238"/>
      <path id="Path_2131" data-name="Path 2131" d="M125.045,162.6l1.491-.179a.64.64,0,0,0,.569-.793l-.313-1.478a.806.806,0,0,0-.864-.64l-1.491.179a.64.64,0,0,0-.569.8l.313,1.471A.8.8,0,0,0,125.045,162.6Z" transform="translate(-119.825 -138.383)" fill="#fff" opacity="0.1"/>
      <path id="Path_2132" data-name="Path 2132" d="M123.81,169.591a.851.851,0,0,0,.921.64.691.691,0,0,0,.6-.845.851.851,0,0,0-.921-.64.691.691,0,0,0-.6.844Z" transform="translate(-119.805 -141.71)" fill="#fff"/>
      <path id="Path_2133" data-name="Path 2133" d="M166.189,204.079c-.768,1.132-4.658.365-4.658.365l-.832-4.824,4.779,1.919Z" transform="translate(-133.101 -152.834)" fill="#ffb573"/>
      <path id="Path_2134" data-name="Path 2134" d="M160,199.23l.749,5.009-2.879.435a.64.64,0,0,1-.678-.5l-1.094-3.589a.326.326,0,0,1,.237-.39Z" transform="translate(-131.439 -152.693)" fill="#ffb573"/>
      <path id="Path_2135" data-name="Path 2135" d="M160.067,200.063l1.638.288,1.548-1.164-.6-.429a2.028,2.028,0,0,1-.8-1.2,8.738,8.738,0,0,1-.2-1.548v-.179a.71.71,0,0,0-.6-.608l-.4.3a4.044,4.044,0,0,0-.109,1.631l-.064.838-.64.288Z" transform="translate(-132.787 -151.249)" fill="#ffb573"/>
      <path id="Path_2136" data-name="Path 2136" d="M194.261,176.75l-9.6,13.23L167,193.454v2.9s16.6,1.228,20.325-.947,9.987-15.354,9.987-15.354Z" transform="translate(-135.37 -144.595)" fill="#ffb573"/>
      <path id="Path_2137" data-name="Path 2137" d="M207.056,175.7c2.258,2.674,1.593,9.289-1.663,13.5l-7.952-4.7s4.664-7.876,7.242-9.424C205.776,174.437,206.224,174.718,207.056,175.7Z" transform="translate(-146.336 -143.869)" fill="#263238"/>
      <path id="Path_2138" data-name="Path 2138" d="M198,129.311a5.911,5.911,0,0,1,2.828-2.821,4.069,4.069,0,0,1,.23,1.958c1.081.224,1.99.39,3.077.64s2.412.589,2.841,1.651a12.8,12.8,0,0,1-4.018,4.056,10.157,10.157,0,0,1-2.7-4.478l-.109.32C199.388,130.565,198.563,129.734,198,129.311Z" transform="translate(-146.537 -126.49)" fill="#407bff"/>
    </g>
    <g id="freepik--Icons--inject-83" transform="translate(51.337 65.009)">
      <path id="Path_2139" data-name="Path 2139" d="M237.606,86.13l-1.881.768h-.045l-1.222-1.683c-3.768-5.374-8.087-11.337-2.853-14.017,3.634-1.868,6.481,1.427,7.831,3.436,2.214-1,7.127-4.184,9.136,1.676C250.248,81.211,243.639,83.539,237.606,86.13Z" transform="translate(-133.895 -70.645)" fill="#407bff"/>
      <path id="Path_2140" data-name="Path 2140" d="M232.4,74.14a.531.531,0,1,1-.058,0Z" transform="translate(-134.854 -71.904)" fill="#fff" opacity="0.5"/>
      <path id="Path_2141" data-name="Path 2141" d="M232.676,81.189c-1.113-1.2.966-3.877-.64-4.549C230.693,76.87,231.3,79.7,232.676,81.189Z" transform="translate(-134.653 -72.804)" fill="#fff" opacity="0.5"/>
      <path id="Path_2142" data-name="Path 2142" d="M225.976,104.812l-1.024.416h0l-.64-.915c-2.054-2.93-4.4-6.174-1.555-7.632,1.977-1.017,3.532.774,4.267,1.868,1.2-.544,3.877-2.278,4.971.915C232.859,102.131,229.258,103.4,225.976,104.812Z" transform="translate(-131.106 -79.915)" fill="#407bff"/>
      <path id="Path_2143" data-name="Path 2143" d="M223.133,98.29a.294.294,0,0,1,.282.384.282.282,0,1,1-.313-.384Z" transform="translate(-131.623 -80.603)" fill="#fff" opacity="0.5"/>
      <path id="Path_2144" data-name="Path 2144" d="M223.257,102.122c-.6-.64.531-2.118-.339-2.482C222.182,99.749,222.515,101.31,223.257,102.122Z" transform="translate(-131.49 -81.09)" fill="#fff" opacity="0.5"/>
      <g id="Group_746" data-name="Group 746" transform="translate(90.333 0)" opacity="0.4">
        <path id="Path_2145" data-name="Path 2145" d="M237.606,86.13l-1.881.768h-.045l-1.222-1.683c-3.768-5.374-8.087-11.337-2.853-14.017,3.634-1.868,6.481,1.427,7.831,3.436,2.214-1,7.127-4.184,9.136,1.676C250.248,81.211,243.639,83.539,237.606,86.13Z" transform="translate(-224.228 -70.645)" fill="#fff"/>
        <path id="Path_2146" data-name="Path 2146" d="M232.4,74.14a.531.531,0,1,1-.058,0Z" transform="translate(-225.188 -71.904)" fill="#fff" opacity="0.5"/>
        <path id="Path_2147" data-name="Path 2147" d="M232.676,81.189c-1.113-1.2.966-3.877-.64-4.549C230.693,76.87,231.3,79.7,232.676,81.189Z" transform="translate(-224.986 -72.804)" fill="#fff" opacity="0.5"/>
        <path id="Path_2148" data-name="Path 2148" d="M225.976,104.812l-1.024.416h0l-.64-.915c-2.054-2.93-4.4-6.174-1.555-7.632,1.977-1.017,3.532.774,4.267,1.868,1.2-.544,3.877-2.278,4.971.915C232.859,102.131,229.258,103.4,225.976,104.812Z" transform="translate(-221.439 -79.915)" fill="#fff"/>
        <path id="Path_2149" data-name="Path 2149" d="M223.133,98.29a.294.294,0,0,1,.282.384.282.282,0,1,1-.313-.384Z" transform="translate(-221.956 -80.603)" fill="#fff" opacity="0.5"/>
        <path id="Path_2150" data-name="Path 2150" d="M223.257,102.122c-.6-.64.531-2.118-.339-2.482C222.182,99.749,222.515,101.31,223.257,102.122Z" transform="translate(-221.823 -81.09)" fill="#fff" opacity="0.5"/>
      </g>
      <path id="Path_2151" data-name="Path 2151" d="M136.395,274.443l3.448,10.332a2.15,2.15,0,0,0,2.559,1.376l2.271-.64a1.919,1.919,0,0,0,1.28-2.45l-3.442-10.332a2.156,2.156,0,0,0-2.559-1.376l-2.271.64a1.919,1.919,0,0,0-1.286,2.45Z" transform="translate(-100.435 -142.923)" fill="#407bff"/>
      <path id="Path_2152" data-name="Path 2152" d="M136.395,274.443l3.448,10.332a2.15,2.15,0,0,0,2.559,1.376l2.271-.64a1.919,1.919,0,0,0,1.28-2.45l-3.442-10.332a2.156,2.156,0,0,0-2.559-1.376l-2.271.64a1.919,1.919,0,0,0-1.286,2.45Z" transform="translate(-100.435 -142.923)" fill="#fff" opacity="0.5"/>
      <path id="Path_2153" data-name="Path 2153" d="M109,275.72l4.542,8.515a3.109,3.109,0,0,0,1.056,1.139l1.132.723a3.071,3.071,0,0,0,2.444.384l9.3-2.559a2.342,2.342,0,0,0,1.612-3.039l-3.2-9.654a3.429,3.429,0,0,0-1.235-1.676l-5.758-4.216-1.4-4.2-2.642.729a2.239,2.239,0,0,0-1.644,2.559l.448,2.841a2.437,2.437,0,0,0,.505,1.139l2.45,3.077-6.647,1.836Z" transform="translate(-90.602 -139.267)" fill="#407bff"/>
      <path id="Path_2154" data-name="Path 2154" d="M109,275.72l4.542,8.515a3.109,3.109,0,0,0,1.056,1.139l1.132.723a3.071,3.071,0,0,0,2.444.384l9.3-2.559a2.342,2.342,0,0,0,1.612-3.039l-3.2-9.654a3.429,3.429,0,0,0-1.235-1.676l-5.758-4.216-1.4-4.2-2.642.729a2.239,2.239,0,0,0-1.644,2.559l.448,2.841a2.437,2.437,0,0,0,.505,1.139l2.45,3.077-6.647,1.836Z" transform="translate(-90.602 -139.267)" fill="#fff" opacity="0.5"/>
      <path id="Path_2155" data-name="Path 2155" d="M87.272,304.2l-2.5-7.479a1.555,1.555,0,0,0-1.868-1l-1.644.454a1.369,1.369,0,0,0-.947,1.772l2.5,7.479a1.555,1.555,0,0,0,1.868,1l1.644-.454a1.369,1.369,0,0,0,.947-1.772Z" transform="translate(-80.242 -151.705)" fill="#407bff"/>
      <path id="Path_2156" data-name="Path 2156" d="M87.272,304.2l-2.5-7.479a1.555,1.555,0,0,0-1.868-1l-1.644.454a1.369,1.369,0,0,0-.947,1.772l2.5,7.479a1.555,1.555,0,0,0,1.868,1l1.644-.454a1.369,1.369,0,0,0,.947-1.772Z" transform="translate(-80.242 -151.705)" fill="#fff" opacity="0.5"/>
      <path id="Path_2157" data-name="Path 2157" d="M102.859,298.94,99.6,292.773a2.265,2.265,0,0,0-.768-.825l-.819-.525a2.226,2.226,0,0,0-1.772-.275l-6.756,1.862a1.689,1.689,0,0,0-1.164,2.188l2.322,6.993a2.444,2.444,0,0,0,.889,1.216l4.184,3.052,1.011,3.039,1.919-.525a1.625,1.625,0,0,0,1.2-1.836l-.326-2.06a1.779,1.779,0,0,0-.365-.825l-1.772-2.226,4.811-1.331Z" transform="translate(-83.117 -150.05)" fill="#407bff"/>
      <path id="Path_2158" data-name="Path 2158" d="M102.859,298.94,99.6,292.773a2.265,2.265,0,0,0-.768-.825l-.819-.525a2.226,2.226,0,0,0-1.772-.275l-6.756,1.862a1.689,1.689,0,0,0-1.164,2.188l2.322,6.993a2.444,2.444,0,0,0,.889,1.216l4.184,3.052,1.011,3.039,1.919-.525a1.625,1.625,0,0,0,1.2-1.836l-.326-2.06a1.779,1.779,0,0,0-.365-.825l-1.772-2.226,4.811-1.331Z" transform="translate(-83.117 -150.05)" fill="#407bff"/>
      <g id="Group_747" data-name="Group 747" transform="translate(0 128.365)" opacity="0.5">
        <path id="Path_2159" data-name="Path 2159" d="M136.395,274.443l3.448,10.332a2.15,2.15,0,0,0,2.559,1.376l2.271-.64a1.919,1.919,0,0,0,1.28-2.45l-3.442-10.332a2.156,2.156,0,0,0-2.559-1.376l-2.271.64a1.919,1.919,0,0,0-1.286,2.45Z" transform="translate(-100.435 -271.288)" fill="#fff"/>
        <path id="Path_2160" data-name="Path 2160" d="M87.272,304.2l-2.5-7.479a1.555,1.555,0,0,0-1.868-1l-1.644.454a1.369,1.369,0,0,0-.947,1.772l2.5,7.479a1.555,1.555,0,0,0,1.868,1l1.644-.454a1.369,1.369,0,0,0,.947-1.772Z" transform="translate(-80.242 -280.071)" fill="#fff"/>
        <path id="Path_2161" data-name="Path 2161" d="M102.859,298.94,99.6,292.773a2.265,2.265,0,0,0-.768-.825l-.819-.525a2.226,2.226,0,0,0-1.772-.275l-6.756,1.862a1.689,1.689,0,0,0-1.164,2.188l2.322,6.993a2.444,2.444,0,0,0,.889,1.216l4.184,3.052,1.011,3.039,1.919-.525a1.625,1.625,0,0,0,1.2-1.836l-.326-2.06a1.779,1.779,0,0,0-.365-.825l-1.772-2.226,4.811-1.331Z" transform="translate(-83.117 -278.415)" fill="#fff"/>
        <path id="Path_2162" data-name="Path 2162" d="M102.859,298.94,99.6,292.773a2.265,2.265,0,0,0-.768-.825l-.819-.525a2.226,2.226,0,0,0-1.772-.275l-6.756,1.862a1.689,1.689,0,0,0-1.164,2.188l2.322,6.993a2.444,2.444,0,0,0,.889,1.216l4.184,3.052,1.011,3.039,1.919-.525a1.625,1.625,0,0,0,1.2-1.836l-.326-2.06a1.779,1.779,0,0,0-.365-.825l-1.772-2.226,4.811-1.331Z" transform="translate(-83.117 -278.415)" fill="#fff"/>
      </g>
      <path id="Path_2163" data-name="Path 2163" d="M316.68,124.81Z" transform="translate(-165.415 -90.157)" fill="#263238"/>
      <path id="Path_2164" data-name="Path 2164" d="M316.974,125.072l-.294-.262A.512.512,0,0,1,316.974,125.072Z" transform="translate(-165.415 -90.157)" fill="#263238"/>
      <path id="Path_2165" data-name="Path 2165" d="M316.35,124.755a.582.582,0,0,1,.211,0Z" transform="translate(-165.296 -90.133)" fill="#263238"/>
      <path id="Path_2166" data-name="Path 2166" d="M315.492,126.989l-.838-1.35-.774-1.28h.154a.525.525,0,0,1,.32.269l.39.793Z" transform="translate(-164.406 -89.995)" fill="#263238"/>
      <path id="Path_2167" data-name="Path 2167" d="M305.553,158.88l-2.329,1.222-.87.461a.505.505,0,0,1-.224.058l1.356-3,.147.09Z" transform="translate(-160.173 -101.976)" fill="#263238"/>
      <path id="Path_2168" data-name="Path 2168" d="M319.282,134.176l-1.99,1.919h0l-3.711,3.621a.512.512,0,0,0-.154.467l.972,5.649h0l.371,2.2a.525.525,0,0,1-.761.557l-.377-.2-2.591-1.363-1.919-1h-.038l-1.132-.595-1-.525a.518.518,0,0,0-.493,0l-1.759.921-1.7.9-.39.2-.8.416-1.529.806-.87.461a.505.505,0,0,1-.224.058.531.531,0,0,1-.544-.64l.083-.473,1.28-7.377a.544.544,0,0,0-.154-.467l-5.7-5.553a.531.531,0,0,1,.294-.9l7.869-1.126a.531.531,0,0,0,.4-.288l3.525-7.14a.468.468,0,0,1,.1-.141.518.518,0,0,1,.25-.141h.275a.525.525,0,0,1,.32.269l.39.793.467.94.281.576h0l.717,1.446.518,1.056h0l1.152,2.329a.531.531,0,0,0,.4.288l4.638.672,2.425.352.813.122a.531.531,0,0,1,.3.915Z" transform="translate(-157.243 -90.016)" fill="#407bff"/>
      <path id="Path_2169" data-name="Path 2169" d="M328.1,134.391l-4.357,4.242-1.344,1.312a.531.531,0,0,0-.154.467l.3,2.246.825,6.129a.525.525,0,0,1-.761.557l-1.772-.94-2.591-1.369-1.919-1.011,1.919,1,2.591,1.363.377.2a.525.525,0,0,0,.761-.557l-.371-2.2h0l-.972-5.649a.512.512,0,0,1,.154-.467l3.711-3.621,1.99-1.919a.531.531,0,0,0-.294-.9l-.812-.122-2.425-.352-4.638-.672a.531.531,0,0,1-.4-.288l-1.152-2.329h0l-.518-1.056-.717-1.446h0l-.282-.576h0l-.467-.94-.39-.793a.525.525,0,0,0-.32-.269l1.427.2h.211l.051.045.243.218.844,1.708.16.32.32.64,2.2,4.478a.531.531,0,0,0,.4.288l3.026.441,2.425.352,2.425.352a.531.531,0,0,1,.294.915Z" transform="translate(-164.478 -90.02)" fill="#407bff"/>
      <path id="Path_2170" data-name="Path 2170" d="M310.9,156.905l-3.73,1.958h0l-1.766.928-1.094.576h0a.781.781,0,0,1-.525,0h-.032l-1.606-.25h0a.506.506,0,0,0,.224-.058l.87-.461,1.529-.806.8-.416.39-.2,1.7-.9,1.759-.921a.518.518,0,0,1,.493,0Z" transform="translate(-160.18 -101.498)" fill="#407bff"/>
      <path id="Path_2171" data-name="Path 2171" d="M328.1,134.391l-4.357,4.242-1.344,1.312a.531.531,0,0,0-.154.467l.3,2.246.825,6.129a.525.525,0,0,1-.761.557l-1.772-.94-2.591-1.369-1.919-1.011,1.919,1,2.591,1.363.377.2a.525.525,0,0,0,.761-.557l-.371-2.2h0l-.972-5.649a.512.512,0,0,1,.154-.467l3.711-3.621,1.99-1.919a.531.531,0,0,0-.294-.9l-.812-.122-2.425-.352-4.638-.672a.531.531,0,0,1-.4-.288l-1.152-2.329h0l-.518-1.056-.717-1.446h0l-.282-.576h0l-.467-.94-.39-.793a.525.525,0,0,0-.32-.269l1.427.2h.211l.051.045.243.218.844,1.708.16.32.32.64,2.2,4.478a.531.531,0,0,0,.4.288l3.026.441,2.425.352,2.425.352a.531.531,0,0,1,.294.915Z" transform="translate(-164.478 -90.02)" fill="#fff" opacity="0.3"/>
      <path id="Path_2172" data-name="Path 2172" d="M310.9,156.905l-3.73,1.958h0l-1.766.928-1.094.576h0a.781.781,0,0,1-.525,0h-.032l-1.606-.25h0a.506.506,0,0,0,.224-.058l.87-.461,1.529-.806.8-.416.39-.2,1.7-.9,1.759-.921a.518.518,0,0,1,.493,0Z" transform="translate(-160.18 -101.498)" fill="#fff" opacity="0.3"/>
      <path id="Path_2173" data-name="Path 2173" d="M310.691,126.4v.083l-6.02,20.025-.23.768-1.529.806-.87.461a.505.505,0,0,1-.224.058.531.531,0,0,1-.544-.64l.083-.473,7.607-23.032a.518.518,0,0,1,.25-.141h.25a.525.525,0,0,1,.32.269l.39.793Z" transform="translate(-159.861 -89.977)" fill="#fff" opacity="0.4"/>
      <path id="Path_2174" data-name="Path 2174" d="M314.638,131.786h0l-4.856,16.308-1.7.9,6.039-18.259Z" transform="translate(-162.317 -92.289)" fill="#fff" opacity="0.2"/>
      <g id="Group_748" data-name="Group 748" transform="translate(149.474 34.269)" opacity="0.5">
        <path id="Path_2175" data-name="Path 2175" d="M316.68,124.66Z" transform="translate(-314.889 -124.372)" fill="#fff"/>
        <path id="Path_2176" data-name="Path 2176" d="M316.974,124.922l-.294-.262a.493.493,0,0,1,.294.262Z" transform="translate(-314.889 -124.372)" fill="#fff"/>
        <path id="Path_2177" data-name="Path 2177" d="M316.35,124.6a.473.473,0,0,1,.211,0Z" transform="translate(-314.77 -124.347)" fill="#fff"/>
        <path id="Path_2178" data-name="Path 2178" d="M315.492,126.839l-.838-1.35-.774-1.28h.154a.537.537,0,0,1,.32.275l.39.787Z" transform="translate(-313.88 -124.21)" fill="#fff"/>
      </g>
      <path id="Path_2179" data-name="Path 2179" d="M319.321,133.937l-1.99,1.919h0l-3.711,3.621a.512.512,0,0,0-.154.467l.966,5.649h0l.377,2.194a.525.525,0,0,1-.768.557l-.371-.192-2.591-1.369-1.919-1h-.038l-1.132-.595-1-.531a.518.518,0,0,0-.493,0l-1.759.928-1.7.9-.384.2-.8.422-1.529.806-.87.454a.64.64,0,0,1-.224.064.531.531,0,0,1-.544-.64l.083-.467,1.28-7.377a.544.544,0,0,0-.154-.467l-5.7-5.56a.525.525,0,0,1,.294-.9l7.876-1.145a.524.524,0,0,0,.4-.294l3.525-7.133a.467.467,0,0,1,.1-.147.505.505,0,0,1,.25-.134.4.4,0,0,1,.122,0h.154a.518.518,0,0,1,.32.275l.39.787.467.947.281.576h0l.717,1.446.518,1.056h0l1.145,2.322a.531.531,0,0,0,.4.294l4.613.7,2.431.352.813.122a.525.525,0,0,1,.313.9Z" transform="translate(-157.256 -89.924)" fill="#fff" opacity="0.4"/>
      <path id="Path_2180" data-name="Path 2180" d="M360.26,124.55Z" transform="translate(-181.114 -90.063)" fill="#263238"/>
      <path id="Path_2181" data-name="Path 2181" d="M360.433,124.71l-.173-.16A.3.3,0,0,1,360.433,124.71Z" transform="translate(-181.114 -90.063)" fill="#263238"/>
      <path id="Path_2182" data-name="Path 2182" d="M360.07,124.517a.4.4,0,0,1,.122,0Z" transform="translate(-181.045 -90.05)" fill="#263238"/>
      <path id="Path_2183" data-name="Path 2183" d="M359.553,125.858l-.493-.8-.461-.749h.09a.333.333,0,0,1,.192.16l.23.473Z" transform="translate(-180.516 -89.977)" fill="#263238"/>
      <path id="Path_2184" data-name="Path 2184" d="M353.651,144.795l-1.388.723-.518.275a.32.32,0,0,1-.134.032l.813-1.785.083.058Z" transform="translate(-177.998 -97.084)" fill="#263238"/>
      <path id="Path_2185" data-name="Path 2185" d="M361.823,130.109l-1.177,1.152h0l-2.188,2.15a.313.313,0,0,0-.09.275l.576,3.359h0l.224,1.28a.313.313,0,0,1-.454.333l-.224-.122-1.542-.806-1.132-.595h0l-.672-.352-.6-.313a.288.288,0,0,0-.288,0l-1.049.55-1.011.531-.224.122-.48.243-.908.48-.518.275a.32.32,0,0,1-.134.032.314.314,0,0,1-.32-.365l.051-.281.749-4.382a.294.294,0,0,0-.09-.275l-3.384-3.3a.313.313,0,0,1,.173-.537l4.683-.678a.314.314,0,0,0,.237-.173l2.092-4.242a.243.243,0,0,1,.058-.083.3.3,0,0,1,.154-.083h.16a.333.333,0,0,1,.192.16l.23.473.275.557.166.345h0l.429.857.307.64h0l.685,1.382a.3.3,0,0,0,.237.173l2.751.4,1.446.2.48.07a.313.313,0,0,1,.134.544Z" transform="translate(-176.279 -89.973)" fill="#407bff"/>
      <path id="Path_2186" data-name="Path 2186" d="M367.084,130.261l-2.559,2.521-.8.781a.314.314,0,0,0-.09.282l.179,1.331.486,3.64a.313.313,0,0,1-.454.333l-1.049-.557-1.542-.819-1.132-.595,1.132.595,1.542.806.224.122a.313.313,0,0,0,.454-.333l-.224-1.28h0l-.576-3.359a.313.313,0,0,1,.09-.275l2.207-2.15,1.177-1.152a.313.313,0,0,0-.173-.537l-.48-.07-1.446-.2-2.751-.4a.3.3,0,0,1-.237-.173l-.685-1.382h0l-.307-.64-.429-.857h0l-.166-.345h0l-.275-.557-.23-.473a.333.333,0,0,0-.192-.16l.851.122h.154l.141.134.505,1.011.09.192.192.39,1.312,2.649a.307.307,0,0,0,.237.166l1.8.262,1.439.211,1.44.211a.313.313,0,0,1,.147.563Z" transform="translate(-180.58 -89.991)" fill="#407bff"/>
      <path id="Path_2187" data-name="Path 2187" d="M356.853,143.625l-2.214,1.158h0l-1.043.55-.64.345h0a.461.461,0,0,1-.307,0h0l-.96-.147h0a.32.32,0,0,0,.134-.032l.518-.275.908-.48.48-.243.224-.122,1.011-.531,1.049-.55a.288.288,0,0,1,.288,0Z" transform="translate(-178.026 -96.803)" fill="#407bff"/>
      <path id="Path_2188" data-name="Path 2188" d="M367.084,130.261l-2.559,2.521-.8.781a.314.314,0,0,0-.09.282l.179,1.331.486,3.64a.313.313,0,0,1-.454.333l-1.049-.557-1.542-.819-1.132-.595,1.132.595,1.542.806.224.122a.313.313,0,0,0,.454-.333l-.224-1.28h0l-.576-3.359a.313.313,0,0,1,.09-.275l2.207-2.15,1.177-1.152a.313.313,0,0,0-.173-.537l-.48-.07-1.446-.2-2.751-.4a.3.3,0,0,1-.237-.173l-.685-1.382h0l-.307-.64-.429-.857h0l-.166-.345h0l-.275-.557-.23-.473a.333.333,0,0,0-.192-.16l.851.122h.154l.141.134.505,1.011.09.192.192.39,1.312,2.649a.307.307,0,0,0,.237.166l1.8.262,1.439.211,1.44.211a.313.313,0,0,1,.147.563Z" transform="translate(-180.58 -89.991)" fill="#fff" opacity="0.3"/>
      <path id="Path_2189" data-name="Path 2189" d="M356.853,143.625l-2.214,1.158h0l-1.043.55-.64.345h0a.461.461,0,0,1-.307,0h0l-.96-.147h0a.32.32,0,0,0,.134-.032l.518-.275.908-.48.48-.243.224-.122,1.011-.531,1.049-.55a.288.288,0,0,1,.288,0Z" transform="translate(-178.026 -96.803)" fill="#fff" opacity="0.3"/>
      <path id="Path_2190" data-name="Path 2190" d="M356.694,125.516v.051l-3.544,11.912-.141.454-.908.48-.518.275a.32.32,0,0,1-.134.032.313.313,0,0,1-.32-.365l.051-.282L355.7,124.4a.3.3,0,0,1,.154-.083h.16a.333.333,0,0,1,.192.16l.23.473Z" transform="translate(-177.822 -89.98)" fill="#fff" opacity="0.4"/>
      <path id="Path_2191" data-name="Path 2191" d="M359.046,128.7h0l-2.885,9.692-1.011.531,3.589-10.85Z" transform="translate(-179.273 -91.331)" fill="#fff" opacity="0.2"/>
      <g id="Group_749" data-name="Group 749" transform="translate(178.084 34.276)" opacity="0.5">
        <path id="Path_2192" data-name="Path 2192" d="M360.26,124.46Z" transform="translate(-359.198 -124.306)" fill="#fff"/>
        <path id="Path_2193" data-name="Path 2193" d="M360.433,124.62l-.173-.16A.3.3,0,0,1,360.433,124.62Z" transform="translate(-359.198 -124.306)" fill="#fff"/>
        <path id="Path_2194" data-name="Path 2194" d="M360.07,124.427a.4.4,0,0,1,.122,0Z" transform="translate(-359.13 -124.293)" fill="#fff"/>
        <path id="Path_2195" data-name="Path 2195" d="M359.553,125.768l-.493-.8-.461-.749h.09a.333.333,0,0,1,.192.16l.23.473Z" transform="translate(-358.6 -124.22)" fill="#fff"/>
      </g>
      <path id="Path_2196" data-name="Path 2196" d="M361.845,129.975l-1.184,1.12h0l-2.2,2.182a.333.333,0,0,0-.09.275l.576,3.359h0l.224,1.28a.313.313,0,0,1-.454.326l-.218-.115-1.542-.806-1.132-.6h0l-.672-.358-.595-.313a.339.339,0,0,0-.294,0l-1.043.55-1.011.531-.23.122-.473.25-.908.48-.518.269a.269.269,0,0,1-.134.038.307.307,0,0,1-.32-.365l.045-.281.755-4.382a.333.333,0,0,0-.09-.275l-3.391-3.3a.313.313,0,0,1,.173-.537l4.683-.678a.333.333,0,0,0,.237-.173l2.092-4.242a.467.467,0,0,1,.058-.083.3.3,0,0,1,.154-.083h.16a.313.313,0,0,1,.192.16l.23.467.275.563.173.339h0l.422.864.307.64h0l.685,1.382a.333.333,0,0,0,.237.173l2.719.429,1.439.211.486.07a.313.313,0,0,1,.179.518Z" transform="translate(-176.282 -89.923)" fill="#fff" opacity="0.4"/>
      <path id="Path_2197" data-name="Path 2197" d="M351.88,155.96Z" transform="translate(-178.095 -101.378)" fill="#263238"/>
      <path id="Path_2198" data-name="Path 2198" d="M352.046,156.107l-.166-.147A.249.249,0,0,1,352.046,156.107Z" transform="translate(-178.095 -101.378)" fill="#263238"/>
      <path id="Path_2199" data-name="Path 2199" d="M351.69,155.925a.2.2,0,0,1,.122,0Z" transform="translate(-178.026 -101.362)" fill="#263238"/>
      <path id="Path_2200" data-name="Path 2200" d="M351.194,157.223l-.486-.781-.448-.723h.09a.3.3,0,0,1,.186.16l.224.454Z" transform="translate(-177.511 -101.291)" fill="#263238"/>
      <path id="Path_2201" data-name="Path 2201" d="M345.447,175.649l-1.344.7-.505.262a.25.25,0,0,1-.128.038l.787-1.734.083.051Z" transform="translate(-175.065 -108.208)" fill="#263238"/>
      <path id="Path_2202" data-name="Path 2202" d="M353.383,161.4l-1.145,1.12h0l-2.15,2.092a.326.326,0,0,0-.09.269l.563,3.269h0l.218,1.28a.3.3,0,0,1-.441.32l-.218-.109-1.5-.787-1.107-.582h0l-.64-.339-.582-.307a.314.314,0,0,0-.281,0l-1.017.531-.985.518-.224.122-.461.237-.883.467-.505.262a.249.249,0,0,1-.128.038.307.307,0,0,1-.313-.358l.045-.269.7-4.28a.326.326,0,0,0-.09-.269l-3.295-3.2a.307.307,0,0,1,.166-.518l4.555-.64a.288.288,0,0,0,.23-.166l2.034-4.12a.468.468,0,0,1,.058-.083.314.314,0,0,1,.147-.083h.16a.3.3,0,0,1,.186.16l.224.454.269.544.166.333h0l.409.838.3.64h0l.64,1.344a.288.288,0,0,0,.23.166l2.681.39,1.4.2.473.07a.307.307,0,0,1,.192.441Z" transform="translate(-173.373 -101.324)" fill="#407bff"/>
      <path id="Path_2203" data-name="Path 2203" d="M358.52,161.468,356,163.919l-.774.761a.288.288,0,0,0-.09.269l.173,1.28.48,3.544a.3.3,0,0,1-.441.32l-1.024-.544-1.5-.793-1.107-.582,1.107.582,1.5.787.218.109a.3.3,0,0,0,.441-.32l-.217-1.28h0l-.563-3.269a.326.326,0,0,1,.09-.269l2.15-2.092,1.145-1.12a.307.307,0,0,0-.166-.518l-.473-.07-1.4-.2-2.681-.39a.288.288,0,0,1-.23-.166l-.64-1.344h0l-.3-.64-.409-.838h0l-.166-.333h0l-.269-.544-.224-.454a.3.3,0,0,0-.186-.16l.825.122h.122l.141.122.493.992.09.186.186.377,1.28,2.559a.3.3,0,0,0,.23.166l1.747.256,1.4.2,1.4.2a.331.331,0,1,1,.166.64Z" transform="translate(-177.576 -101.263)" fill="#407bff"/>
      <path id="Path_2204" data-name="Path 2204" d="M348.544,174.511l-2.169,1.126h0l-1.017.537-.64.333h0a.441.441,0,0,1-.3,0h0l-.928-.141h0a.249.249,0,0,0,.128-.038l.505-.262.883-.467.461-.237.224-.122.985-.518,1.017-.531a.313.313,0,0,1,.281,0Z" transform="translate(-175.072 -107.933)" fill="#407bff"/>
      <path id="Path_2205" data-name="Path 2205" d="M358.52,161.468,356,163.919l-.774.761a.288.288,0,0,0-.09.269l.173,1.28.48,3.544a.3.3,0,0,1-.441.32l-1.024-.544-1.5-.793-1.107-.582,1.107.582,1.5.787.218.109a.3.3,0,0,0,.441-.32l-.217-1.28h0l-.563-3.269a.326.326,0,0,1,.09-.269l2.15-2.092,1.145-1.12a.307.307,0,0,0-.166-.518l-.473-.07-1.4-.2-2.681-.39a.288.288,0,0,1-.23-.166l-.64-1.344h0l-.3-.64-.409-.838h0l-.166-.333h0l-.269-.544-.224-.454a.3.3,0,0,0-.186-.16l.825.122h.122l.141.122.493.992.09.186.186.377,1.28,2.559a.3.3,0,0,0,.23.166l1.747.256,1.4.2,1.4.2a.331.331,0,1,1,.166.64Z" transform="translate(-177.576 -101.263)" fill="#fff" opacity="0.3"/>
      <path id="Path_2206" data-name="Path 2206" d="M348.544,174.511l-2.169,1.126h0l-1.017.537-.64.333h0a.441.441,0,0,1-.3,0h0l-.928-.141h0a.249.249,0,0,0,.128-.038l.505-.262.883-.467.461-.237.224-.122.985-.518,1.017-.531a.313.313,0,0,1,.281,0Z" transform="translate(-175.072 -107.933)" fill="#fff" opacity="0.3"/>
      <path id="Path_2207" data-name="Path 2207" d="M348.41,156.894v.051l-3.448,11.586-.134.441-.883.467-.505.262a.25.25,0,0,1-.128.038.307.307,0,0,1-.313-.358l.045-.269,4.4-13.3a.313.313,0,0,1,.147-.083h.16a.3.3,0,0,1,.186.16l.224.454Z" transform="translate(-174.894 -101.295)" fill="#fff" opacity="0.4"/>
      <path id="Path_2208" data-name="Path 2208" d="M350.7,159.988h0l-2.8,9.424-.985.518,3.487-10.55Z" transform="translate(-176.304 -102.61)" fill="#fff" opacity="0.2"/>
      <g id="Group_750" data-name="Group 750" transform="translate(172.749 54.384)" opacity="0.5">
        <path id="Path_2209" data-name="Path 2209" d="M351.88,155.87Z" transform="translate(-350.844 -155.729)" fill="#fff"/>
        <path id="Path_2210" data-name="Path 2210" d="M352.046,156.024l-.166-.154A.281.281,0,0,1,352.046,156.024Z" transform="translate(-350.844 -155.729)" fill="#fff"/>
        <path id="Path_2211" data-name="Path 2211" d="M351.69,155.837a.4.4,0,0,1,.122,0Z" transform="translate(-350.775 -155.716)" fill="#fff"/>
        <path id="Path_2212" data-name="Path 2212" d="M351.194,157.153l-.486-.774-.448-.729h.09a.32.32,0,0,1,.186.16l.224.454Z" transform="translate(-350.26 -155.65)" fill="#fff"/>
      </g>
      <path id="Path_2213" data-name="Path 2213" d="M353.421,161.247l-1.145,1.12h0l-2.15,2.092a.3.3,0,0,0-.083.269L350.6,168h0l.218,1.28a.3.3,0,0,1-.441.32l-.218-.109-1.5-.825-1.1-.582h0l-.64-.339-.582-.307a.313.313,0,0,0-.281,0l-1.017.531-.985.518-.218.122-.467.237-.883.467-.505.262a.23.23,0,0,1-.128.038.307.307,0,0,1-.313-.358l.051-.269.729-4.267a.326.326,0,0,0-.09-.269l-3.295-3.2a.3.3,0,0,1,.173-.518l4.549-.64a.307.307,0,0,0,.23-.173l2.034-4.12a.289.289,0,0,1,.064-.083.262.262,0,0,1,.147-.083h.154a.288.288,0,0,1,.186.16l.224.454.269.544.166.333h0l.409.838.3.608h0l.64,1.344a.32.32,0,0,0,.23.173l2.681.384,1.4.2.473.07a.307.307,0,0,1,.154.505Z" transform="translate(-173.398 -101.259)" fill="#fff" opacity="0.4"/>
    </g>
  </g>
</svg>
