<svg id="Product_quality-pana" data-name="Product quality-pana" xmlns="http://www.w3.org/2000/svg" width="290.396" height="286.988" viewBox="0 0 290.396 286.988">
  <g id="freepik--background-complete--inject-4" transform="translate(0 0.291)">
    <rect id="Rectangle_52" data-name="Rectangle 52" width="47.224" height="36.428" transform="translate(263.863 177.335) rotate(180)" fill="#ebebeb"/>
    <rect id="Rectangle_53" data-name="Rectangle 53" width="5.692" height="6.431" transform="translate(225.703 174.153) rotate(180)" fill="#fff"/>
    <rect id="Rectangle_54" data-name="Rectangle 54" width="5.365" height="7.77" transform="translate(244.094 140.999)" fill="#fafafa"/>
    <rect id="Rectangle_55" data-name="Rectangle 55" width="5.365" height="7.77" transform="translate(244.094 169.454)" fill="#fafafa"/>
    <path id="Path_90" data-name="Path 90" d="M376.92,295.827c-.085,0-.15-8.012-.15-17.894s.065-17.894.15-17.894.15,8.012.15,17.894S377.005,295.827,376.92,295.827Z" transform="translate(-148.498 -118.243)" fill="#e0e0e0"/>
    <rect id="Rectangle_56" data-name="Rectangle 56" width="81.482" height="62.85" transform="translate(278.861 240.061) rotate(180)" fill="#ebebeb"/>
    <rect id="Rectangle_57" data-name="Rectangle 57" width="9.816" height="11.097" transform="translate(213.018 234.578) rotate(180)" fill="#fff"/>
    <rect id="Rectangle_58" data-name="Rectangle 58" width="9.254" height="13.41" transform="translate(244.747 177.375)" fill="#fafafa"/>
    <rect id="Rectangle_59" data-name="Rectangle 59" width="9.254" height="13.41" transform="translate(244.747 226.461)" fill="#fafafa"/>
    <path id="Path_91" data-name="Path 91" d="M360.481,378.326c-.144,0-.261-13.822-.261-30.873s.118-30.873.261-30.873.255,13.822.255,30.873S360.625,378.326,360.481,378.326Z" transform="translate(-142.764 -137.833)" fill="#e0e0e0"/>
    <path id="Path_92" data-name="Path 92" d="M442.733,114.21l4.366,8.842,9.757,1.418-7.058,6.888,1.667,9.718-8.731-4.588L434,141.077l1.667-9.718-7.058-6.888,9.757-1.418Z" transform="translate(-166.459 -67.718)" fill="#ebebeb"/>
    <path id="Path_93" data-name="Path 93" d="M47.791,288.97l2.751,5.575,6.15.889-4.451,4.339,1.052,6.13-5.5-2.9-5.5,2.9,1.052-6.13-4.451-4.339,6.15-.889Z" transform="translate(-31.433 -128.267)" fill="#ebebeb"/>
    <path id="Path_94" data-name="Path 94" d="M47.249,214.66l6.111,12.378,13.659,1.987-9.881,9.633,2.333,13.607L47.249,245.84l-12.214,6.424,2.333-13.607-9.888-9.633,13.659-1.987Z" transform="translate(-27.48 -102.521)" fill="#ebebeb"/>
    <path id="Path_95" data-name="Path 95" d="M439.752,175.32l2.634,5.339,5.888.856-4.261,4.15,1.006,5.862-5.267-2.764-5.267,2.764,1.006-5.862-4.261-4.15,5.888-.856Z" transform="translate(-167.367 -88.891)" fill="#ebebeb"/>
    <path id="Path_96" data-name="Path 96" d="M307.532,43.07l2.634,5.333,5.888.856-4.261,4.156,1.006,5.862-5.267-2.771-5.267,2.771,1.006-5.862-4.261-4.156L304.9,48.4Z" transform="translate(-121.557 -43.07)" fill="#ebebeb"/>
    <path id="Path_97" data-name="Path 97" d="M401.265,130.41l1.725,3.49,3.856.562-2.791,2.719.66,3.836-3.451-1.81-3.444,1.81.66-3.836-2.791-2.719,3.856-.562Z" transform="translate(-155.053 -73.331)" fill="#ebebeb"/>
    <path id="Path_98" data-name="Path 98" d="M155.162,400.11l3.359,6.8,7.5,1.091-5.431,5.294,1.287,7.476-6.718-3.529-6.712,3.529,1.281-7.476L144.3,408l7.509-1.091Z" transform="translate(-67.955 -166.773)" fill="#ebebeb"/>
    <path id="Path_99" data-name="Path 99" d="M172.1,389.76l1.385,2.81,3.1.451-2.248,2.189.529,3.091-2.771-1.464-2.771,1.464.529-3.091-2.248-2.189,3.1-.451Z" transform="translate(-76.031 -163.187)" fill="#ebebeb"/>
  </g>
  <g id="freepik--Stars--inject-4" transform="translate(210.463 195.527)">
    <path id="Path_100" data-name="Path 100" d="M359.068,349.92l2.954,5.98,6.6.961-4.777,4.653,1.131,6.575-5.908-3.1-5.9,3.1,1.131-6.575-4.777-4.653,6.6-.961Z" transform="translate(-349.52 -344.62)" fill="#407bff"/>
    <path id="Path_101" data-name="Path 101" d="M383.293,341.81l1.392,2.817,3.1.451-2.248,2.2.529,3.1-2.778-1.464-2.784,1.464.536-3.1-2.255-2.2,3.111-.451Z" transform="translate(-359.661 -341.81)" fill="#407bff"/>
  </g>
  <g id="freepik--speech-bubble--inject-4" transform="translate(215.488 0)">
    <path id="Path_102" data-name="Path 102" d="M357.427,82.574l2.327-7.228A22.527,22.527,0,1,1,377.9,87.763a21.187,21.187,0,0,1-12.986-5.62h0Z" transform="translate(-357.276 -42.686)" fill="#fafafa"/>
    <path id="Path_103" data-name="Path 103" d="M357.36,82.513l.5-.039,1.444-.1,5.548-.379h0a20.769,20.769,0,0,0,9.8,5.071,22.559,22.559,0,0,0,3.438.49l1.83.072c.614,0,1.248-.072,1.882-.1a22.4,22.4,0,0,0,14.835-7.561,22.154,22.154,0,0,0,4.647-8.333,22.763,22.763,0,0,0,.562-10.136,20.011,20.011,0,0,0-.6-2.568,10.914,10.914,0,0,0-.425-1.255c-.163-.418-.307-.837-.484-1.248a23.1,23.1,0,0,0-2.745-4.679,21.224,21.224,0,0,0-1.771-2.052,10.974,10.974,0,0,0-.98-.928c-.333-.294-.654-.614-1.006-.882l-1.072-.8-.536-.392-.575-.34-1.131-.654c-.386-.216-.791-.379-1.183-.575A22.377,22.377,0,0,0,358.9,57.463c-.111.3-.216.6-.32.9a5.671,5.671,0,0,0-.281.9c-.15.6-.294,1.2-.438,1.778a31.368,31.368,0,0,0-.405,3.444,22.508,22.508,0,0,0,2.287,10.8h0l-1.751,5.346-.464,1.385c-.1.314-.163.477-.163.477s.039-.15.137-.457l.418-1.372,1.68-5.418v.052a22.416,22.416,0,0,1-2.379-10.855,30.351,30.351,0,0,1,.386-3.483c.144-.588.294-1.189.438-1.8a6.588,6.588,0,0,1,.274-.908c.111-.3.216-.6.327-.908a22.6,22.6,0,0,1,30.82-12.554c.4.19.81.359,1.2.582l1.15.686.575.346.549.4,1.085.8c.359.281.686.6,1.026.9a12.326,12.326,0,0,1,.993.941,21.966,21.966,0,0,1,1.8,2.091,23.3,23.3,0,0,1,2.8,4.712c.176.418.32.85.484,1.268a10.95,10.95,0,0,1,.438,1.307,20.073,20.073,0,0,1,.6,2.614,22.952,22.952,0,0,1-.575,10.287,22.462,22.462,0,0,1-4.7,8.5,22.7,22.7,0,0,1-15.031,7.62c-.654,0-1.307.091-1.908.091l-1.85-.078a23.088,23.088,0,0,1-3.47-.51,20.7,20.7,0,0,1-9.8-5.189h.052l-5.6.294-1.425.065C357.517,82.513,357.36,82.513,357.36,82.513Z" transform="translate(-357.209 -42.625)" fill="#263238"/>
    <path id="Path_104" data-name="Path 104" d="M372.31,71.513l3.706-3.215,6.241,6.411,14-11.659,2.96,3.692-17.933,14.6Z" transform="translate(-362.441 -49.702)" fill="#407bff"/>
  </g>
  <g id="freepik--Clipboard--inject-4" transform="translate(3.87 6.78)">
    <path id="Path_105" data-name="Path 105" d="M206.466,246.828,81.145,274.76a5.64,5.64,0,0,1-6.764-4.281L33.738,87.981a5.633,5.633,0,0,1,4.281-6.731L163.339,53.318a5.64,5.64,0,0,1,6.738,4.281l40.669,182.5a5.633,5.633,0,0,1-4.281,6.731Z" transform="translate(-33.471 -53.063)" fill="#e0e0e0"/>
    <path id="Path_106" data-name="Path 106" d="M206.4,246.765l.418-.118a6.353,6.353,0,0,0,1.17-.516,5.764,5.764,0,0,0,1.588-1.379,5.614,5.614,0,0,0,1.144-2.614,5.4,5.4,0,0,0,0-1.745c-.1-.608-.268-1.248-.412-1.915-.3-1.307-.654-2.8-.98-4.379l-2.451-10.934c-3.679-16.449-9-40.251-15.574-69.666-3.268-14.7-6.875-30.814-10.738-48.113q-2.889-12.966-5.98-26.795-1.536-6.914-3.124-14.018c-.536-2.366-1.065-4.751-1.608-7.15a5.49,5.49,0,0,0-5.352-4.176,7.62,7.62,0,0,0-1.817.261l-1.83.405-3.679.823-7.424,1.653-15.11,3.372L103.5,66.724,37.995,81.311a5.516,5.516,0,0,0-4.241,6.326c.595,2.778,1.235,5.562,1.843,8.333q1.856,8.3,3.679,16.5l7.189,32.291c4.718,21.168,9.267,41.558,13.6,61.033s8.444,37.9,12.3,55.23q.719,3.268,1.431,6.431c.242,1.059.457,2.131.712,3.17a5.536,5.536,0,0,0,1.621,2.66,5.621,5.621,0,0,0,2.771,1.359,5.88,5.88,0,0,0,1.549.046c.51-.065,1.026-.19,1.536-.307l6.084-1.353,23.089-5.137,69.679-15.482,18.952-4.2,4.928-1.085,1.68-.366-1.673.392-4.928,1.111-18.952,4.241-69.666,15.574L88.114,273.24,82.03,274.6c-.51.111-1.02.242-1.555.314a6.02,6.02,0,0,1-1.608-.052,5.757,5.757,0,0,1-4.575-4.176c-.261-1.052-.477-2.111-.719-3.17q-.712-3.183-1.438-6.431c-3.856-17.3-7.98-35.781-12.319-55.23S50.928,165.989,46.2,144.821l-7.189-32.284q-1.823-8.2-3.679-16.515c-.614-2.771-1.248-5.542-1.849-8.346a5.777,5.777,0,0,1,4.451-6.62L103.452,66.45l31.154-6.914,15.1-3.366,7.424-1.653,3.686-.863,1.83-.405A7.784,7.784,0,0,1,164.5,53a5.745,5.745,0,0,1,5.555,4.333c.536,2.4,1.072,4.784,1.6,7.156q1.6,7.11,3.15,14,3.065,13.822,5.967,26.795c3.849,17.3,7.431,33.408,10.7,48.119,6.535,29.409,11.829,53.23,15.489,69.686.908,4.111,1.719,7.77,2.425,10.934.346,1.588.654,3.045.967,4.385.144.654.307,1.307.405,1.915a5.332,5.332,0,0,1,0,1.765,5.64,5.64,0,0,1-1.163,2.66,5.881,5.881,0,0,1-1.6,1.379,5.779,5.779,0,0,1-1.189.5Z" transform="translate(-33.401 -53)" fill="#263238"/>
    <g id="Group_4" data-name="Group 4" transform="translate(48.896 154.214)" opacity="0.3">
      <path id="Path_107" data-name="Path 107" d="M113.35,349.99l114.185-26.1-3.608-22.377-6.477-12.541-109.231,42.9Z" transform="translate(-108.22 -288.97)"/>
    </g>
    <g id="Group_5" data-name="Group 5" transform="translate(101.702 6.947)" opacity="0.3">
      <path id="Path_108" data-name="Path 108" d="M189.02,63.63l4.32,7.13.836,3.784-2.928.654Z" transform="translate(-189.02 -63.63)"/>
    </g>
    <path id="Path_109" data-name="Path 109" d="M43.76,93.377l39.617,177.76,124.177-27.67-7.084-31.788L167.937,65.7Z" transform="translate(-36.99 -57.4)" fill="#fff"/>
    <path id="Path_110" data-name="Path 110" d="M43.757,93.322,167.927,65.54h.1v.111c11.019,49.4,24.762,111.048,39.637,177.76h0v.137h-.131L83.367,271.213h-.118v-.124c-23.324-104.97-39.258-176.7-39.5-177.76.242,1.085,16.279,72.8,39.741,177.76l-.15-.092,124.171-27.69-.1.163h0c-14.855-66.7-28.585-128.347-39.584-177.76l.131.085Z" transform="translate(-36.987 -57.345)" fill="#263238"/>
    <path id="Path_111" data-name="Path 111" d="M4.15,0H60.256a4.137,4.137,0,0,1,4.137,4.137V18.684H0V4.15A4.137,4.137,0,0,1,4.15,0Z" transform="matrix(0.976, -0.217, 0.217, 0.976, 37.686, 15.728)" fill="#263238"/>
    <path id="Path_112" data-name="Path 112" d="M140.592,53.15,124.6,56.712,129.521,70l12.045-2.686Z" transform="translate(-64.999 -53.052)" fill="#263238"/>
    <path id="Path_113" data-name="Path 113" d="M152.029,57c0,.072-12.228,2.862-27.344,6.235s-27.4,6.058-27.416,5.986,12.228-2.862,27.357-6.235S151.99,56.947,152.029,57Z" transform="translate(-55.53 -54.385)" fill="#455a64"/>
    <path id="Path_114" data-name="Path 114" d="M97.1,93.9c-.072,0-.706-2.549-1.412-5.725s-1.229-5.771-1.15-5.79.706,2.549,1.412,5.731S97.17,93.9,97.1,93.9Z" transform="translate(-54.58 -63.179)" fill="#455a64"/>
    <path id="Path_115" data-name="Path 115" d="M187.63,72.1a52.4,52.4,0,0,1-1.307-5.228,52.5,52.5,0,0,1-1.033-5.228,52.407,52.407,0,0,1,1.307,5.2A52.492,52.492,0,0,1,187.63,72.1Z" transform="translate(-86.026 -55.994)" fill="#455a64"/>
    <path id="Path_116" data-name="Path 116" d="M155.264,82.389c0,.072-12.554,2.934-28.069,6.392s-28.1,6.209-28.134,6.13,12.548-2.934,28.1-6.392S155.224,82.317,155.264,82.389Z" transform="translate(-56.15 -63.182)" fill="#455a64"/>
    <path id="Path_117" data-name="Path 117" d="M114.33,161.509c0,.078-8.463,2.026-18.952,4.366s-18.952,4.163-19,4.091,8.5-2.026,18.952-4.359S114.311,161.437,114.33,161.509Z" transform="translate(-48.292 -90.594)" fill="#263238"/>
    <path id="Path_118" data-name="Path 118" d="M178.67,150.62c0,.078-22.135,5.078-49.472,11.169s-49.525,10.973-49.538,10.9,22.129-5.078,49.479-11.169S178.657,150.548,178.67,150.62Z" transform="translate(-49.428 -86.822)" fill="#263238"/>
    <path id="Path_119" data-name="Path 119" d="M180.756,160c0,.072-22.142,5.071-49.479,11.169S81.76,182.141,81.74,182.063s22.135-5.071,49.479-11.162S180.737,159.908,180.756,160Z" transform="translate(-50.149 -90.072)" fill="#263238"/>
    <path id="Path_120" data-name="Path 120" d="M182.836,169.32c0,.072-22.135,5.071-49.472,11.162s-49.525,10.979-49.544,10.9,22.135-5.071,49.485-11.169S182.817,169.248,182.836,169.32Z" transform="translate(-50.87 -93.301)" fill="#263238"/>
    <path id="Path_121" data-name="Path 121" d="M184.92,178.669c0,.072-22.135,5.071-49.472,11.162S85.923,200.8,85.91,200.733s22.129-5.071,49.479-11.169S184.907,178.591,184.92,178.669Z" transform="translate(-51.594 -96.54)" fill="#263238"/>
    <path id="Path_122" data-name="Path 122" d="M187.01,188c0,.078-22.142,5.078-49.479,11.169S88,210.148,88,210.076s22.135-5.071,49.479-11.169S186.99,187.934,187.01,188Z" transform="translate(-52.318 -99.773)" fill="#263238"/>
    <path id="Path_123" data-name="Path 123" d="M110.352,248.059a1.019,1.019,0,0,1-.059-.2l-.144-.582c-.124-.529-.3-1.268-.516-2.189-.438-1.889-1.052-4.542-1.784-7.718l.144.092-10.718,2.4.1-.163h0v.137l.039.183.085.366.157.725c.111.484.216.961.32,1.438.209.941.418,1.869.614,2.771.4,1.8.771,3.5,1.118,5.058l-.144-.092,7.744-1.667,2.2-.457.588-.111.209-.039a.538.538,0,0,0-.183.059l-.555.137-2.157.51-7.764,1.85h-.118v-.118L98.4,245.4c-.2-.9-.412-1.83-.654-2.771-.1-.477-.216-.954-.32-1.438-.059-.235-.111-.484-.163-.725l-.085-.366-.039-.183v-.17h0c-.092.15.124-.2.1-.163l10.724-2.372h.118v.118l1.686,7.842c.19.915.34,1.647.451,2.17.046.235.078.418.111.569A.581.581,0,0,1,110.352,248.059Z" transform="translate(-55.476 -116.823)" fill="#263238"/>
    <rect id="Rectangle_60" data-name="Rectangle 60" width="76.607" height="6.392" transform="matrix(0.976, -0.217, 0.217, 0.976, 59.769, 121.473)" fill="#e0e0e0"/>
    <path id="Path_124" data-name="Path 124" d="M116.687,276.525a1.507,1.507,0,0,1-.059-.209c-.039-.15-.085-.346-.144-.582-.124-.529-.3-1.261-.516-2.183-.438-1.9-1.052-4.575-1.784-7.725l.144.092-10.718,2.4c0,.039.2-.307.1-.157h0v.17l.039.183.085.366c.052.248.1.49.163.732l.314,1.431c.209.948.418,1.869.614,2.771.4,1.8.771,3.5,1.118,5.058l-.144-.092,7.751-1.66,2.2-.457.588-.118a.91.91,0,0,1,.209-.033l-.176.052-.562.137-2.157.516-7.8,1.8h-.118V278.9l-1.137-5.052c-.2-.9-.412-1.83-.654-2.771-.1-.471-.216-.954-.32-1.431-.052-.242-.111-.484-.163-.732l-.085-.366-.039-.183v-.17h0l.1-.17,10.718-2.34h.118v.111c.693,3.222,1.307,5.882,1.686,7.842.19.915.34,1.647.451,2.17.046.235.078.418.111.569A.6.6,0,0,1,116.687,276.525Z" transform="translate(-57.667 -126.691)" fill="#263238"/>
    <rect id="Rectangle_61" data-name="Rectangle 61" width="76.607" height="6.392" transform="matrix(0.976, -0.217, 0.217, 0.976, 63.909, 140.073)" fill="#e0e0e0"/>
    <path id="Path_125" data-name="Path 125" d="M123,304.969a.57.57,0,0,0-.059-.209,4.7,4.7,0,0,1-.144-.582c-.124-.529-.3-1.261-.516-2.183-.438-1.889-1.052-4.575-1.784-7.725l.144.092-10.744,2.4c0,.039.2-.307.1-.157h0v.183l.039.183.085.366c.052.248.1.49.163.732l.314,1.431c.209.948.418,1.869.614,2.771l1.118,5.058-.144-.085,7.751-1.667,2.2-.457.588-.118a.958.958,0,0,1,.209,0l-.176.052-.562.137-2.157.516-7.8,1.8h-.118v-.118c-.346-1.555-.732-3.268-1.137-5.052-.2-.9-.412-1.823-.654-2.771-.1-.471-.216-.948-.32-1.431-.052-.242-.111-.484-.163-.725l-.078-.366-.046-.183v-.209h0c-.092.144.124-.2.1-.163l10.724-2.372h.118v.118l1.686,7.842c.19.915.34,1.647.451,2.176.046.229.085.412.111.562A.614.614,0,0,1,123,304.969Z" transform="translate(-59.838 -136.541)" fill="#263238"/>
    <rect id="Rectangle_62" data-name="Rectangle 62" width="76.607" height="6.392" transform="matrix(0.976, -0.217, 0.217, 0.976, 68.057, 158.672)" fill="#e0e0e0"/>
    <path id="Path_126" data-name="Path 126" d="M101.61,244.548l1.124-1.771,3.34,1.856,4.3-6.483,1.66,1.15-5.542,8.169Z" transform="translate(-57.033 -117.149)" fill="#407bff"/>
    <path id="Path_127" data-name="Path 127" d="M107.74,272.048l1.124-1.771,3.34,1.856,4.294-6.483,1.667,1.15-5.548,8.163Z" transform="translate(-59.157 -126.677)" fill="#407bff"/>
    <path id="Path_128" data-name="Path 128" d="M114.03,300.241l1.124-1.765,3.333,1.856,4.3-6.483,1.66,1.144-5.542,8.169Z" transform="translate(-61.337 -136.447)" fill="#407bff"/>
    <path id="Path_129" data-name="Path 129" d="M151.419,339c0,.078-6.3,1.549-14.1,3.268s-14.142,3.085-14.155,3.013,6.294-1.542,14.1-3.268S151.4,338.933,151.419,339Z" transform="translate(-64.5 -152.089)" fill="#263238"/>
    <path id="Path_130" data-name="Path 130" d="M182.417,333.856a51.413,51.413,0,0,1-5.189,1.307A53.274,53.274,0,0,1,172,336.189a52.091,52.091,0,0,1,5.182-1.307C180.051,334.248,182.4,333.784,182.417,333.856Z" transform="translate(-81.421 -150.305)" fill="#263238"/>
    <path id="Path_131" data-name="Path 131" d="M245.8,311.408c0,.072-5.666,1.405-12.685,2.967s-12.731,2.771-12.744,2.7,5.66-1.4,12.685-2.967S245.786,311.336,245.8,311.408Z" transform="translate(-98.18 -142.53)" fill="#263238"/>
    <path id="Path_132" data-name="Path 132" d="M238.663,331.391a4.5,4.5,0,0,0,.124-.516,3.431,3.431,0,0,0-.078-1.51,13.527,13.527,0,0,0-.9-2.255,7.509,7.509,0,0,1-.9-3.111,4.8,4.8,0,0,1,1.66-3.523,4.523,4.523,0,0,1,4.339-.8,4.4,4.4,0,0,1,2.065,1.353,2.1,2.1,0,0,1,.49,1.222,1.131,1.131,0,0,1-.765,1.1,9.263,9.263,0,0,1-1.307.32l-1.307.268c-.876.176-1.765.333-2.679.451a19.546,19.546,0,0,1-5.346.033,3.268,3.268,0,0,0-2.346.379,8.165,8.165,0,0,0-1.412,1.915,2.333,2.333,0,0,1-.915.81,1.647,1.647,0,0,1-1.2.052,10.66,10.66,0,0,1-1.908-1.1,2.183,2.183,0,0,0-.921-.346,1.307,1.307,0,0,0-.876.216,5.118,5.118,0,0,0-1.1,1.451,3.444,3.444,0,0,1-2.758,1.595,3.268,3.268,0,0,1-2.287-.81,3.379,3.379,0,0,1-.908-1.255,2.255,2.255,0,0,1-.15-.516s.059.176.2.5a3.314,3.314,0,0,0,.921,1.189,3.163,3.163,0,0,0,2.209.745,3.268,3.268,0,0,0,2.614-1.549,5.229,5.229,0,0,1,1.15-1.516,1.536,1.536,0,0,1,1.02-.268,2.615,2.615,0,0,1,1.006.373,11.024,11.024,0,0,0,1.869,1.065,1.424,1.424,0,0,0,1.026-.046,1.96,1.96,0,0,0,.8-.739,8.3,8.3,0,0,1,1.464-1.961,2.516,2.516,0,0,1,1.229-.457,6.176,6.176,0,0,1,1.307,0,19.64,19.64,0,0,0,5.287-.033c.9-.118,1.784-.281,2.66-.451l1.307-.261a10.785,10.785,0,0,0,1.242-.307.863.863,0,0,0,.6-.85,1.889,1.889,0,0,0-.431-1.065,4.208,4.208,0,0,0-1.961-1.307,4.313,4.313,0,0,0-4.117.745,4.575,4.575,0,0,0-1.608,3.346,7.51,7.51,0,0,0,.837,3.052,12.9,12.9,0,0,1,.869,2.287,3.431,3.431,0,0,1,.033,1.542A2.4,2.4,0,0,1,238.663,331.391Z" transform="translate(-97.109 -145.311)" fill="#263238"/>
    <path id="Path_133" data-name="Path 133" d="M252.73,324.93a2.107,2.107,0,0,1-.34.1l-.993.235-3.647.843c-3.072.719-7.32,1.725-11.992,2.908s-8.888,2.327-11.927,3.163l-3.607.993-.987.261a2.182,2.182,0,0,1-.346.078,1.433,1.433,0,0,1,.333-.131l.967-.307c.843-.268,2.065-.654,3.581-1.078,3.039-.889,7.241-2.059,11.92-3.268s8.927-2.163,12.018-2.823c1.542-.333,2.8-.595,3.666-.765l1-.19a1.961,1.961,0,0,1,.353-.026Z" transform="translate(-97.667 -147.215)" fill="#263238"/>
    <rect id="Rectangle_63" data-name="Rectangle 63" width="52.001" height="9.77" transform="matrix(0.976, -0.217, 0.217, 0.976, 50.701, 45.624)" fill="#e0e0e0"/>
  </g>
  <g id="freepik--Character--inject-4" transform="translate(58.145 13.823)">
    <path id="Path_134" data-name="Path 134" d="M262.12,337.674l16.4,86.632,14.985-27.69,28.4,16.672L291.758,328.93Z" transform="translate(-166.921 -155.644)" fill="#407bff"/>
    <g id="Group_6" data-name="Group 6" transform="translate(98.702 187.886)" opacity="0.3">
      <path id="Path_135" data-name="Path 135" d="M269.493,374.549a9.8,9.8,0,0,0,8.718-2.673c1.5-1.542,2.49-3.647,4.372-4.679a7.6,7.6,0,0,1,5.64-.281c1.863.516,3.614,1.372,5.477,1.856a14.293,14.293,0,0,0,10.927-1.621L299.9,354.015l-21.959-2.745L267.48,363.85Z" transform="translate(-267.48 -351.27)"/>
    </g>
    <path id="Path_136" data-name="Path 136" d="M302.9,405.887c-.092,0-2.536-8.979-5.457-20.1s-5.228-20.161-5.124-20.181,2.529,8.966,5.45,20.1S302.99,405.861,302.9,405.887Z" transform="translate(-177.382 -168.352)" fill="#263238"/>
    <path id="Path_137" data-name="Path 137" d="M234.095,344.564,217.7,431.2l-14.985-27.684-28.4,16.665,30.147-84.358Z" transform="translate(-136.497 -158.031)" fill="#407bff"/>
    <g id="Group_7" data-name="Group 7" transform="translate(58.941 189.187)" opacity="0.3">
      <path id="Path_138" data-name="Path 138" d="M206.64,367.1s4.666,3.836,10.228,2.072,9.019-2.144,12.031,0,11.162,9.117,11.162,9.117l1.889-9.992L231,353.26l-11.424,2.307-8.13.791-3.026,5.731Z" transform="translate(-206.64 -353.26)"/>
    </g>
    <path id="Path_139" data-name="Path 139" d="M310.286,178.231c0,6.215-7.94,11.568-9.1,17.443-1.2,6.052,4.072,14.031,1.765,19.606s-11.764,7.574-15.116,12.613-1.588,14.476-5.882,18.776-13.724,2.49-18.776,5.882-6.947,12.763-12.613,15.116c-5.568,2.307-13.548-2.961-19.606-1.765-5.882,1.163-11.228,9.1-17.443,9.1s-11.574-7.94-17.449-9.1c-6.052-1.2-14.031,4.072-19.606,1.765s-7.568-11.764-12.607-15.116-14.476-1.588-18.782-5.882-2.49-13.724-5.882-18.776-12.763-6.947-15.11-12.613,2.96-13.548,1.765-19.606c-1.163-5.882-9.11-11.228-9.11-17.443s7.947-11.574,9.11-17.449c1.2-6.052-4.078-14.031-1.765-19.606s11.764-7.574,15.11-12.607,1.588-14.476,5.882-18.782,13.724-2.49,18.782-5.882,6.94-12.763,12.607-15.11S190,91.756,196.062,90.56c5.882-1.163,11.234-9.11,17.449-9.11s11.568,7.947,17.443,9.11c6.052,1.2,14.031-4.078,19.606-1.765,5.666,2.346,7.574,11.764,12.613,15.11s14.476,1.588,18.776,5.882,2.49,13.724,5.882,18.782,12.763,6.941,15.116,12.607-2.961,13.548-1.765,19.606C302.346,166.657,310.286,172,310.286,178.231Z" transform="translate(-116.547 -69.899)" fill="#407bff"/>
    <path id="Path_140" data-name="Path 140" d="M224.152,131.1a1.959,1.959,0,0,1-.176-.268c-.1-.183-.268-.477-.444-.8-.386-.693-.915-1.712-1.542-2.98-1.261-2.536-2.9-6.1-4.47-10.13s-2.784-7.764-3.575-10.456c-.392-1.366-.693-2.47-.882-3.268-.085-.353-.157-.654-.209-.889A1.012,1.012,0,0,1,212.8,102a1.394,1.394,0,0,1,.118.3l.268.869c.255.8.588,1.889.987,3.2.85,2.7,2.1,6.4,3.66,10.456s3.17,7.587,4.372,10.149L223.649,130l.386.823A1.645,1.645,0,0,1,224.152,131.1Z" transform="translate(-149.833 -77.019)" fill="#263238"/>
    <path id="Path_141" data-name="Path 141" d="M241.5,131.448a3.084,3.084,0,0,1-.255-.719c-.137-.471-.32-1.157-.536-2.006-.431-1.693-.967-4.058-1.451-6.686s-.823-5.026-1.02-6.764c-.1-.869-.17-1.575-.209-2.065a3.2,3.2,0,0,1,0-.758,3.761,3.761,0,0,1,.15.745l.314,2.046c.261,1.732.654,4.117,1.118,6.738s.98,4.986,1.346,6.692c.176.8.32,1.477.438,2.026A3.81,3.81,0,0,1,241.5,131.448Z" transform="translate(-158.566 -80.64)" fill="#263238"/>
    <path id="Path_142" data-name="Path 142" d="M266.186,121.845c-.1,0-.34-7.333-.542-16.371s-.294-16.377-.2-16.384.34,7.326.542,16.377S266.278,121.845,266.186,121.845Z" transform="translate(-168.059 -72.546)" fill="#263238"/>
    <path id="Path_143" data-name="Path 143" d="M287.327,116.16c.092,0-.967,3.692-2.359,8.189s-2.614,8.11-2.679,8.084.967-3.692,2.359-8.189S287.229,116.134,287.327,116.16Z" transform="translate(-173.907 -81.925)" fill="#263238"/>
    <path id="Path_144" data-name="Path 144" d="M299.54,129.836a1.112,1.112,0,0,1,.085-.314l.294-.863c.261-.745.654-1.817,1.176-3.137,1.026-2.614,2.49-6.267,4.163-10.254s3.228-7.574,4.372-10.162c.562-1.255,1.026-2.287,1.379-3.059l.386-.823c.1-.183.15-.281.163-.274a1.815,1.815,0,0,1-.1.3l-.333.85-1.274,3.1c-1.118,2.653-2.614,6.235-4.281,10.2s-3.143,7.548-4.254,10.208l-1.274,3.1-.359.837A1.307,1.307,0,0,1,299.54,129.836Z" transform="translate(-179.885 -76.655)" fill="#263238"/>
    <path id="Path_145" data-name="Path 145" d="M312,143.618a3.35,3.35,0,0,1,.372-.654c.261-.418.654-1.013,1.137-1.738.98-1.444,2.392-3.418,4.032-5.522s3.215-3.921,4.379-5.228c.582-.654,1.065-1.17,1.405-1.523a3.2,3.2,0,0,1,.555-.523,3.09,3.09,0,0,1-.457.614c-.353.431-.8.961-1.307,1.588-1.118,1.346-2.653,3.209-4.294,5.313s-3.072,4.045-4.1,5.457l-1.222,1.666A3.554,3.554,0,0,1,312,143.618Z" transform="translate(-184.203 -86.177)" fill="#263238"/>
    <path id="Path_146" data-name="Path 146" d="M330.22,155.063c-.065-.065,5.111-4.98,11.548-10.973s11.718-10.8,11.764-10.731-5.1,4.986-11.548,10.979S330.285,155.135,330.22,155.063Z" transform="translate(-190.515 -87.884)" fill="#263238"/>
    <path id="Path_147" data-name="Path 147" d="M354.8,169.68a17.561,17.561,0,0,1-1.961,1.072c-1.229.654-2.9,1.562-4.738,2.614s-3.542,1.928-4.8,2.516c-.654.294-1.137.523-1.5.654a2.039,2.039,0,0,1-.569.2,17.558,17.558,0,0,1,1.961-1.072c1.229-.654,2.9-1.562,4.738-2.614s3.542-1.961,4.8-2.516c.654-.294,1.137-.523,1.5-.654A1.855,1.855,0,0,1,354.8,169.68Z" transform="translate(-194.33 -100.468)" fill="#263238"/>
    <path id="Path_148" data-name="Path 148" d="M376.769,181.869c.033.091-6.124,2.34-13.724,5.026s-13.829,4.784-13.855,4.7,6.117-2.34,13.724-5.026S376.736,181.784,376.769,181.869Z" transform="translate(-197.088 -104.691)" fill="#263238"/>
    <path id="Path_149" data-name="Path 149" d="M384.927,233.827c0,.092-6.7-.464-14.94-1.248s-14.92-1.5-14.907-1.595,6.692.471,14.94,1.255S384.933,233.736,384.927,233.827Z" transform="translate(-199.128 -121.705)" fill="#263238"/>
    <path id="Path_150" data-name="Path 150" d="M378.488,276.338c-.039.085-6.293-2.791-13.966-6.411s-13.861-6.633-13.822-6.718,6.293,2.784,13.966,6.411S378.527,276.253,378.488,276.338Z" transform="translate(-197.611 -132.873)" fill="#263238"/>
    <path id="Path_151" data-name="Path 151" d="M351.2,316.422c-.072.059-4.575-5.176-10.071-11.685s-9.888-11.848-9.8-11.907S335.9,298,341.4,304.515,351.275,316.357,351.2,316.422Z" transform="translate(-190.899 -143.136)" fill="#263238"/>
    <path id="Path_152" data-name="Path 152" d="M329.324,324.349a4.876,4.876,0,0,1-.542-.732c-.333-.484-.8-1.2-1.366-2.078-1.137-1.771-2.66-4.248-4.268-7.025s-2.98-5.339-3.921-7.189c-.477-.935-.863-1.693-1.111-2.222a4.982,4.982,0,0,1-.366-.843,5,5,0,0,1,.484.778c.314.575.719,1.307,1.209,2.176,1.013,1.836,2.425,4.372,4.026,7.15s3.091,5.267,4.176,7.065c.51.863.941,1.575,1.274,2.137A4,4,0,0,1,329.324,324.349Z" transform="translate(-186.195 -147.096)" fill="#263238"/>
    <path id="Path_153" data-name="Path 153" d="M313.527,342.475a2.6,2.6,0,0,1-.17-.268l-.425-.8c-.373-.7-.876-1.719-1.477-2.987-1.2-2.542-2.751-6.111-4.222-10.149s-2.581-7.764-3.268-10.456c-.359-1.359-.654-2.47-.8-3.235-.072-.353-.131-.654-.183-.889a1.536,1.536,0,0,1-.046-.314.975.975,0,0,1,.111.3l.248.869c.229.81.529,1.889.9,3.2.771,2.7,1.915,6.411,3.385,10.456s2.974,7.594,4.124,10.162l1.372,3.026q.216.49.372.823A1.064,1.064,0,0,1,313.527,342.475Z" transform="translate(-181.064 -150.256)" fill="#263238"/>
    <path id="Path_154" data-name="Path 154" d="M284.715,333.644a18.183,18.183,0,0,1-.281-2.274c-.15-1.405-.392-3.346-.745-5.47s-.765-4.032-1.078-5.411a17.683,17.683,0,0,1-.471-2.248,2.523,2.523,0,0,1,.222.575c.131.379.294.928.484,1.614.372,1.366.817,3.268,1.176,5.418a53.523,53.523,0,0,1,.654,5.5c.046.706.072,1.307.072,1.68a2.288,2.288,0,0,1-.033.614Z" transform="translate(-173.857 -151.94)" fill="#263238"/>
    <path id="Path_155" data-name="Path 155" d="M264.444,353.148a1.23,1.23,0,0,1,0-.333q0-.392,0-.961v-3.536c.052-2.987.189-7.1.425-11.646s.529-8.659.771-11.633c.118-1.49.229-2.693.314-3.523.046-.379.078-.7.1-.954a1.346,1.346,0,0,1,.065-.333,1.262,1.262,0,0,1,0,.34,7.729,7.729,0,0,1-.046.961c-.052.882-.118,2.072-.2,3.523-.176,3.026-.412,7.117-.654,11.633s-.412,8.659-.523,11.639c-.052,1.451-.1,2.614-.131,3.529,0,.386-.039.7-.052.961A1.159,1.159,0,0,1,264.444,353.148Z" transform="translate(-167.722 -152.629)" fill="#263238"/>
    <path id="Path_156" data-name="Path 156" d="M245.488,320.23a7.779,7.779,0,0,1-.2,1.673c-.17,1.019-.444,2.425-.8,3.96s-.738,2.921-1.039,3.921a7.585,7.585,0,0,1-.569,1.582,8.778,8.778,0,0,1,.333-1.647l.941-3.921c.34-1.47.654-2.8.9-3.921A8.864,8.864,0,0,1,245.488,320.23Z" transform="translate(-160.255 -152.629)" fill="#263238"/>
    <path id="Path_157" data-name="Path 157" d="M211.906,305a35.434,35.434,0,0,1-2.856,4.052,38.237,38.237,0,0,1-3.13,3.849,34.778,34.778,0,0,1,2.856-4.052A36.349,36.349,0,0,1,211.906,305Z" transform="translate(-147.449 -147.353)" fill="#263238"/>
    <path id="Path_158" data-name="Path 158" d="M188.667,293.76c.065.059-3.987,4.823-9.058,10.633s-9.247,10.457-9.319,10.411,3.987-4.823,9.058-10.633S188.595,293.694,188.667,293.76Z" transform="translate(-135.104 -143.458)" fill="#263238"/>
    <path id="Path_159" data-name="Path 159" d="M184.617,281.35a64.331,64.331,0,0,1-5.039,4.379c-2.843,2.34-5.2,4.183-5.228,4.111a65.177,65.177,0,0,1,5.039-4.372,66.186,66.186,0,0,1,5.228-4.117Z" transform="translate(-136.511 -139.159)" fill="#263238"/>
    <path id="Path_160" data-name="Path 160" d="M166.843,262.639c.039.085-5.607,2.9-12.62,6.267s-12.718,6.045-12.763,5.96,5.607-2.889,12.62-6.267S166.8,262.554,166.843,262.639Z" transform="translate(-125.115 -132.675)" fill="#263238"/>
    <path id="Path_161" data-name="Path 161" d="M168.221,253.31a2.315,2.315,0,0,1-.588.17c-.386.091-.941.209-1.627.333-1.379.261-3.3.549-5.431.765s-4.072.307-5.477.327h-1.66a1.9,1.9,0,0,1-.608-.059,19.367,19.367,0,0,1,2.261-.176c1.4-.085,3.326-.216,5.45-.431s4.039-.464,5.424-.654A16.03,16.03,0,0,1,168.221,253.31Z" transform="translate(-129.055 -129.444)" fill="#263238"/>
    <path id="Path_162" data-name="Path 162" d="M157.827,231.374a6.92,6.92,0,0,1-1.144,0l-3.111-.157c-2.614-.131-6.248-.248-10.254-.229s-7.64.183-10.26.34l-3.1.19a7.191,7.191,0,0,1-1.144.039,6.631,6.631,0,0,1,1.131-.17c.732-.085,1.791-.189,3.1-.3,2.614-.216,6.261-.412,10.274-.438s7.653.137,10.28.327c1.307.1,2.372.19,3.1.268A8.106,8.106,0,0,1,157.827,231.374Z" transform="translate(-120.733 -121.591)" fill="#263238"/>
    <path id="Path_163" data-name="Path 163" d="M165.2,210.055c0,.091-4.254-1.013-9.45-2.464s-9.385-2.693-9.359-2.784,4.254,1.006,9.45,2.457S165.225,209.964,165.2,210.055Z" transform="translate(-126.824 -112.637)" fill="#263238"/>
    <path id="Path_164" data-name="Path 164" d="M164.676,189.769a1.046,1.046,0,0,1-.307-.065l-.869-.261c-.745-.235-1.823-.6-3.137-1.078a104.414,104.414,0,0,1-10.077-4.313,102.819,102.819,0,0,1-9.561-5.359c-1.183-.752-2.131-1.379-2.771-1.83l-.732-.529c-.163-.124-.248-.19-.242-.2a1.478,1.478,0,0,1,.281.15l.771.471c.654.418,1.621,1.013,2.817,1.738,2.4,1.451,5.758,3.366,9.587,5.228s7.4,3.379,10.012,4.4c1.307.5,2.359.9,3.1,1.176l.843.32a1.956,1.956,0,0,1,.288.157Z" transform="translate(-123.563 -102.703)" fill="#263238"/>
    <path id="Path_165" data-name="Path 165" d="M181.043,175.552c-.052.072-3.359-2.163-7.385-5s-7.248-5.2-7.189-5.274,3.359,2.163,7.391,5S181.1,175.494,181.043,175.552Z" transform="translate(-133.78 -98.943)" fill="#263238"/>
    <path id="Path_166" data-name="Path 166" d="M168.879,132.42a2.264,2.264,0,0,1,.248.176l.654.575,2.412,2.131,7.914,7.065,7.947,7.025,2.4,2.137.654.595a1.2,1.2,0,0,1,.209.222,1.847,1.847,0,0,1-.255-.17l-.654-.542c-.595-.477-1.438-1.183-2.477-2.059-2.078-1.751-4.915-4.2-8.019-6.954s-5.882-5.287-7.842-7.143c-.993-.928-1.791-1.68-2.34-2.215l-.621-.614C168.958,132.5,168.866,132.427,168.879,132.42Z" transform="translate(-134.615 -87.559)" fill="#263238"/>
    <path id="Path_167" data-name="Path 167" d="M200.07,133.33a4.15,4.15,0,0,1,.444.451c.268.307.654.758,1.1,1.307.908,1.137,2.117,2.745,3.372,4.575s2.307,3.542,3.032,4.8c.366.654.653,1.144.836,1.5a2.307,2.307,0,0,1,.261.575,17.584,17.584,0,0,1-1.307-1.961c-.778-1.229-1.863-2.908-3.111-4.738s-2.425-3.444-3.268-4.614A19.652,19.652,0,0,1,200.07,133.33Z" transform="translate(-145.422 -87.874)" fill="#263238"/>
    <g id="Group_8" data-name="Group 8" transform="translate(28.526 33.856)" opacity="0.2">
      <path id="Path_168" data-name="Path 168" d="M160.1,121.619l28.435,24.893,7.065-5.653L179.1,115.58a15.8,15.8,0,0,1-4.575,1.869C171.373,118.358,162,118.6,160.1,121.619Z" transform="translate(-160.1 -115.58)"/>
    </g>
    <g id="Group_9" data-name="Group 9" transform="translate(60.177 18.294)" opacity="0.2">
      <path id="Path_169" data-name="Path 169" d="M208.53,92.312l13.881,34.748,8.875-2.778-2.96-30.141a15.551,15.551,0,0,1-4.915-.072C220.124,93.652,212.157,90.534,208.53,92.312Z" transform="translate(-208.53 -91.769)"/>
    </g>
    <g id="Group_10" data-name="Group 10" transform="translate(97.193 11.551)" opacity="0.3">
      <path id="Path_170" data-name="Path 170" d="M265.17,81.464,266.1,119.2l8.313.4,8.417-28.964a13.574,13.574,0,0,1-4.895-2.026C275.064,86.764,269.2,81.156,265.17,81.464Z" transform="translate(-265.17 -81.451)"/>
    </g>
    <g id="Group_11" data-name="Group 11" transform="translate(119.654 18.694)" opacity="0.2">
      <path id="Path_171" data-name="Path 171" d="M313.336,92.38l-13.8,34.787,7.489,3.588,18.985-23.436a16.862,16.862,0,0,1-3.6-4.241C320.623,100.183,317.538,93.537,313.336,92.38Z" transform="translate(-299.54 -92.38)"/>
    </g>
    <g id="Group_12" data-name="Group 12" transform="translate(140.156 40.397)" opacity="0.2">
      <path id="Path_172" data-name="Path 172" d="M356.607,125.59l-25.7,26.795,5.725,7.718,25.109-16.757a15.137,15.137,0,0,1-1.653-4.888C359.489,135.19,359.4,129.256,356.607,125.59Z" transform="translate(-330.91 -125.59)"/>
    </g>
    <g id="Group_13" data-name="Group 13" transform="translate(151.534 70.63)" opacity="0.2">
      <path id="Path_173" data-name="Path 173" d="M382.924,171.85l-34.6,14.24,2.869,8.842,30.108-3.268a17.422,17.422,0,0,1,.209-4.32C381.885,184.058,385.362,176.712,382.924,171.85Z" transform="translate(-348.32 -171.85)"/>
    </g>
    <g id="Group_14" data-name="Group 14" transform="translate(155.762 108.332)" opacity="0.2">
      <path id="Path_174" data-name="Path 174" d="M392.832,229.54,355.1,230.847l-.314,8.319,28.755,8.417a11.2,11.2,0,0,1,1.137-3.431C386.826,240.153,392.832,234.507,392.832,229.54Z" transform="translate(-354.79 -229.54)"/>
    </g>
    <g id="Group_15" data-name="Group 15" transform="translate(148.599 130.467)" opacity="0.2">
      <path id="Path_175" data-name="Path 175" d="M382.075,276.945,347.339,263.41l-3.509,7.574,23.638,18.711a22.547,22.547,0,0,1,4.1-3.111C374.441,284.748,381.277,281.774,382.075,276.945Z" transform="translate(-343.83 -263.41)"/>
    </g>
    <g id="Group_16" data-name="Group 16" transform="translate(0.183 58.01)" opacity="0.2">
      <path id="Path_176" data-name="Path 176" d="M319.62,283.3l-8.6,7.189c.654.654,12.11,20.155,19.175,32.193a3.33,3.33,0,0,1,.288-.222c4.647-3.111,12.92-1.863,17.587-4.941Z" transform="translate(-184.046 -197.844)"/>
      <path id="Path_177" data-name="Path 177" d="M293.2,304.18l-12.835,4.379,6.078,34.846a8.971,8.971,0,0,1,1.209-.333c6.052-1.2,14.031,4.071,19.606,1.765a8.247,8.247,0,0,0,2.1-1.307Z" transform="translate(-173.423 -205.079)"/>
      <path id="Path_178" data-name="Path 178" d="M254.959,351.972,257,306.447l-11.11-2.817-8.254,39.212.3.052C243.692,344.012,248.926,351.58,254.959,351.972Z" transform="translate(-158.622 -204.888)"/>
      <path id="Path_179" data-name="Path 179" d="M209.6,296.11s-14.665,19.645-22.338,30.219a10.6,10.6,0,0,1,1.033.595c5.039,3.372,6.94,12.763,12.607,15.116.261.1.529.19.8.268l20.488-38.781Z" transform="translate(-141.166 -202.283)"/>
      <path id="Path_180" data-name="Path 180" d="M181.828,271.91,150.55,293.4c.118.157.248.307.353.471,3.4,5.071,1.588,14.476,5.882,18.776a7.5,7.5,0,0,0,1.307,1.026c11.051-12.456,30.892-34.82,31.611-35.6Z" transform="translate(-128.448 -193.898)"/>
      <path id="Path_181" data-name="Path 181" d="M166.521,248.42l-36.983,5.973c.595,5.934-4.085,13.424-1.882,18.73a6.286,6.286,0,0,0,.477.935c12.94-6.444,39.976-19.848,41.1-19.92Z" transform="translate(-120.31 -185.759)"/>
      <path id="Path_182" data-name="Path 182" d="M160.922,211.554,125.964,201.47c-.033.3-.072.6-.124.9-1.163,5.882-9.11,11.234-9.11,17.449a7.745,7.745,0,0,0,.1,1.235H159.5Z" transform="translate(-116.73 -169.493)"/>
      <path id="Path_183" data-name="Path 183" d="M128.19,165.539c13.071,7,38.6,21.161,38.6,21.161l6.287-11.94-29.527-22.22a6.184,6.184,0,0,1-.4.654C139.829,158.154,130.726,160.088,128.19,165.539Z" transform="translate(-120.701 -152.54)"/>
    </g>
    <path id="Path_184" data-name="Path 184" d="M310.189,178.181l-.039-.418a6.092,6.092,0,0,0-.17-1.216,13.188,13.188,0,0,0-1.961-4.379c-1.124-1.8-2.823-3.823-4.575-6.378a15.378,15.378,0,0,1-2.248-4.477,12.855,12.855,0,0,1,0-5.692c.366-1.993.961-4.045,1.477-6.222a16.077,16.077,0,0,0,.516-6.934,7.915,7.915,0,0,0-1.627-3.313,15.266,15.266,0,0,0-2.9-2.575c-2.17-1.542-4.666-2.771-7.052-4.379a16.337,16.337,0,0,1-3.333-2.849,10.816,10.816,0,0,1-2.046-4.045c-.837-2.974-1.026-6.15-1.66-9.326a14.711,14.711,0,0,0-1.614-4.614,7.8,7.8,0,0,0-3.719-3.222,20.5,20.5,0,0,0-5-1.307c-1.732-.288-3.509-.49-5.287-.8a16.888,16.888,0,0,1-5.228-1.653,12.273,12.273,0,0,1-4.026-3.921c-1.085-1.555-2.019-3.228-3.013-4.882a25.707,25.707,0,0,0-3.4-4.705,8.006,8.006,0,0,0-5.156-2.529,19.665,19.665,0,0,0-5.973.7c-1.961.477-3.973,1.059-6.032,1.444a12.757,12.757,0,0,1-6.313-.118,21.514,21.514,0,0,1-5.575-3.222c-1.745-1.307-3.444-2.614-5.307-3.777a9.738,9.738,0,0,0-6.169-1.758h-.412a2.061,2.061,0,0,0-.4.085c-.268.065-.542.111-.8.19a12.992,12.992,0,0,0-1.542.6,20.774,20.774,0,0,0-2.9,1.68c-1.856,1.307-3.614,2.732-5.522,4.026a20.1,20.1,0,0,1-3.006,1.738,10.123,10.123,0,0,1-3.4.856A24,24,0,0,1,187.8,89.8a47.375,47.375,0,0,0-6.947-1.431,10.679,10.679,0,0,0-3.5.235,7.7,7.7,0,0,0-3.078,1.686,23.488,23.488,0,0,0-4.313,5.771,39.862,39.862,0,0,1-4.137,6.156,10.339,10.339,0,0,1-2.941,2.333,16.73,16.73,0,0,1-3.562,1.216c-2.457.542-4.967.771-7.444,1.216s-5.006,1.144-6.8,2.882a9.274,9.274,0,0,0-1.961,3.2,20,20,0,0,0-.948,3.692c-.457,2.523-.654,5.111-1.307,7.653a13.468,13.468,0,0,1-1.392,3.686,10.515,10.515,0,0,1-2.614,2.96,61.193,61.193,0,0,1-6.659,4.261,30.065,30.065,0,0,0-3.235,2.248,10.457,10.457,0,0,0-2.536,2.954,7.659,7.659,0,0,0-.915,3.764,19.724,19.724,0,0,0,.464,3.921c.549,2.614,1.379,5.182,1.823,7.842a13.619,13.619,0,0,1,.157,4.143,11.064,11.064,0,0,1-1.307,3.921c-1.366,2.385-3.143,4.483-4.718,6.705a21.807,21.807,0,0,0-2.1,3.49,8.182,8.182,0,0,0,0,7.79,21.62,21.62,0,0,0,2.1,3.49c1.575,2.222,3.353,4.32,4.718,6.705a11.221,11.221,0,0,1,1.307,3.843,13.41,13.41,0,0,1-.131,4.091c-.438,2.686-1.268,5.261-1.823,7.875a20.089,20.089,0,0,0-.464,3.921,7.659,7.659,0,0,0,.908,3.771,10.332,10.332,0,0,0,2.529,2.96,30.064,30.064,0,0,0,3.235,2.248,66.135,66.135,0,0,1,6.666,4.261,10.62,10.62,0,0,1,2.614,2.96,13.071,13.071,0,0,1,1.392,3.679c.614,2.549.823,5.137,1.307,7.659a20.55,20.55,0,0,0,.954,3.692,9.286,9.286,0,0,0,1.928,3.2c1.81,1.758,4.359,2.457,6.8,2.9s4.986.654,7.444,1.216a16.909,16.909,0,0,1,3.568,1.216,10.457,10.457,0,0,1,2.941,2.333,40.309,40.309,0,0,1,4.1,6.156,23.487,23.487,0,0,0,4.313,5.771,7.719,7.719,0,0,0,3.072,1.686,10.732,10.732,0,0,0,3.542.288,48.255,48.255,0,0,0,6.934-1.457,23.824,23.824,0,0,1,6.973-.993,10.209,10.209,0,0,1,3.4.863,20.439,20.439,0,0,1,3.006,1.738c1.908,1.307,3.66,2.751,5.522,4.019a20.112,20.112,0,0,0,2.9,1.686,13.434,13.434,0,0,0,1.542.6c.268.072.536.124.8.19l.405.085h.405a10.107,10.107,0,0,0,6.176-1.758c1.856-1.1,3.562-2.5,5.3-3.777a21.569,21.569,0,0,1,5.581-3.222,12.836,12.836,0,0,1,6.313-.118c2.059.392,4.045.974,6.032,1.451a20.1,20.1,0,0,0,5.98.7,8.045,8.045,0,0,0,5.15-2.536,26.382,26.382,0,0,0,3.4-4.712c.987-1.647,1.921-3.32,3.006-4.882a12.417,12.417,0,0,1,4.032-3.921,16.7,16.7,0,0,1,5.228-1.647c1.784-.32,3.555-.523,5.287-.8a20.516,20.516,0,0,0,5-1.34,7.842,7.842,0,0,0,3.719-3.222,14.859,14.859,0,0,0,1.608-4.614c.654-3.176.823-6.359,1.666-9.332a10.647,10.647,0,0,1,2.046-4.039,15.993,15.993,0,0,1,3.333-2.849c2.385-1.608,4.882-2.836,7.045-4.379a14.922,14.922,0,0,0,2.908-2.581,7.842,7.842,0,0,0,1.621-3.307,10.892,10.892,0,0,0,.1-3.562,27.708,27.708,0,0,0-.614-3.372c-.523-2.176-1.111-4.228-1.477-6.222a12.855,12.855,0,0,1,0-5.692,15.541,15.541,0,0,1,2.248-4.477c1.771-2.555,3.477-4.575,4.575-6.378a13.135,13.135,0,0,0,1.961-4.379,6.029,6.029,0,0,0,.17-1.216l.039-.412v.412a6.351,6.351,0,0,1-.157,1.222,12.984,12.984,0,0,1-1.961,4.411c-1.118,1.817-2.81,3.843-4.575,6.4a15.032,15.032,0,0,0-2.215,4.451,12.6,12.6,0,0,0,0,5.633c.366,1.961.961,4.032,1.49,6.209a29.218,29.218,0,0,1,.653,3.4,11.189,11.189,0,0,1-.1,3.607,8.025,8.025,0,0,1-1.647,3.385,15.215,15.215,0,0,1-2.934,2.614c-2.183,1.555-4.673,2.791-7.045,4.392a16.007,16.007,0,0,0-3.268,2.817,10.457,10.457,0,0,0-2,3.973c-.83,2.941-1.013,6.117-1.653,9.313a14.875,14.875,0,0,1-1.627,4.686,8.058,8.058,0,0,1-3.817,3.32,20.677,20.677,0,0,1-5.052,1.359c-1.738.288-3.516.49-5.287.81a16.626,16.626,0,0,0-5.163,1.627,12.149,12.149,0,0,0-3.921,3.823c-1.072,1.549-2.006,3.215-3,4.875a26.4,26.4,0,0,1-3.424,4.758,8.274,8.274,0,0,1-5.32,2.614,19.888,19.888,0,0,1-6.065-.7c-1.993-.477-3.98-1.052-6.019-1.438a12.587,12.587,0,0,0-6.176.111,21.347,21.347,0,0,0-5.5,3.183c-1.732,1.274-3.438,2.647-5.32,3.8-.49.261-.954.569-1.464.784-.255.118-.5.242-.758.346l-.791.281a7.921,7.921,0,0,1-3.34.392l-.425-.033a2.5,2.5,0,0,1-.418-.085c-.274-.065-.555-.118-.823-.2a12.279,12.279,0,0,1-1.588-.614,20.614,20.614,0,0,1-2.941-1.706c-1.876-1.307-3.634-2.732-5.522-4.019a20.865,20.865,0,0,0-2.96-1.712,9.935,9.935,0,0,0-3.3-.83,23.751,23.751,0,0,0-6.882.987,47.325,47.325,0,0,1-7.012,1.5,11.11,11.11,0,0,1-3.621-.242,8.051,8.051,0,0,1-3.2-1.751,23.7,23.7,0,0,1-4.379-5.849,39.5,39.5,0,0,0-4.065-6.1,9.928,9.928,0,0,0-2.849-2.255,16.05,16.05,0,0,0-3.49-1.189c-2.431-.536-4.934-.765-7.431-1.216a20.917,20.917,0,0,1-3.692-.967,9.509,9.509,0,0,1-3.268-2.026,9.378,9.378,0,0,1-2.006-3.313,20.689,20.689,0,0,1-.974-3.751c-.457-2.542-.654-5.13-1.307-7.64a12.875,12.875,0,0,0-1.359-3.588,10.254,10.254,0,0,0-2.549-2.869,61.989,61.989,0,0,0-6.62-4.235,30.56,30.56,0,0,1-3.268-2.274,10.725,10.725,0,0,1-2.614-3.065,7.953,7.953,0,0,1-.941-3.921,19.29,19.29,0,0,1,.471-4.019c.556-2.614,1.385-5.228,1.817-7.842a13.012,13.012,0,0,0,.124-3.993,10.711,10.711,0,0,0-1.307-3.751,75.714,75.714,0,0,0-4.7-6.679,22.875,22.875,0,0,1-2.163-3.555,8.561,8.561,0,0,1,0-8.078,22.307,22.307,0,0,1,2.144-3.542c1.588-2.242,3.359-4.326,4.692-6.673a10.777,10.777,0,0,0,1.307-3.758,13.652,13.652,0,0,0-.131-3.993c-.438-2.614-1.268-5.228-1.823-7.842a19.678,19.678,0,0,1-.464-4.013,7.96,7.96,0,0,1,.948-3.921,10.913,10.913,0,0,1,2.614-3.059,29.638,29.638,0,0,1,3.268-2.274,65.13,65.13,0,0,0,6.62-4.235,10.228,10.228,0,0,0,2.542-2.869,12.979,12.979,0,0,0,1.353-3.594c.608-2.51.817-5.091,1.307-7.633a20.675,20.675,0,0,1,.967-3.751,8.208,8.208,0,0,1,5.294-5.333,20.913,20.913,0,0,1,3.692-.967c2.5-.451,5-.654,7.431-1.209a17.037,17.037,0,0,0,3.49-1.189,10.038,10.038,0,0,0,2.843-2.261,39.493,39.493,0,0,0,4.065-6.1,23.407,23.407,0,0,1,4.385-5.843,8,8,0,0,1,3.228-1.771,11.267,11.267,0,0,1,3.621-.242,48.178,48.178,0,0,1,6.973,1.464,23.528,23.528,0,0,0,6.882.993,9.908,9.908,0,0,0,3.268-.837,19.357,19.357,0,0,0,2.96-1.712c1.9-1.307,3.653-2.738,5.529-4.013a20.009,20.009,0,0,1,2.941-1.706,13.682,13.682,0,0,1,1.582-.621c.274-.078.556-.124.83-.19l.412-.091h.425a8.025,8.025,0,0,1,3.34.392l.791.281c.255.1.5.229.758.346.516.222.98.523,1.464.784,1.889,1.15,3.588,2.523,5.326,3.8a21.39,21.39,0,0,0,5.49,3.183,12.509,12.509,0,0,0,6.176.111c2.039-.379,4.026-.954,6.019-1.431a20.1,20.1,0,0,1,6.065-.706,8.3,8.3,0,0,1,5.32,2.614,26.579,26.579,0,0,1,3.431,4.764c.993,1.653,1.921,3.326,2.993,4.869a12.11,12.11,0,0,0,3.921,3.83,16.456,16.456,0,0,0,5.163,1.627c1.771.32,3.549.523,5.287.81a20.972,20.972,0,0,1,5.052,1.359,8.1,8.1,0,0,1,3.823,3.313,15.029,15.029,0,0,1,1.627,4.686c.654,3.2.823,6.372,1.647,9.313a10.607,10.607,0,0,0,2,3.973,15.841,15.841,0,0,0,3.268,2.823c2.372,1.6,4.869,2.836,7.045,4.392a15.215,15.215,0,0,1,2.934,2.614,8.051,8.051,0,0,1,1.653,3.379,11.219,11.219,0,0,1,.1,3.614,28.842,28.842,0,0,1-.654,3.392c-.523,2.183-1.124,4.228-1.49,6.215a12.6,12.6,0,0,0,0,5.633,15.029,15.029,0,0,0,2.215,4.451c1.758,2.562,3.451,4.575,4.575,6.4a13.071,13.071,0,0,1,1.961,4.411,6.346,6.346,0,0,1,.157,1.222A1.332,1.332,0,0,1,310.189,178.181Z" transform="translate(-116.451 -69.849)" fill="#263238"/>
    <path id="Path_185" data-name="Path 185" d="M231.112,367c.092,0-2.32,9.8-5.385,21.841s-5.627,21.782-5.718,21.763,2.32-9.8,5.385-21.848S231.047,366.948,231.112,367Z" transform="translate(-152.329 -168.834)" fill="#263238"/>
    <circle id="Ellipse_7" data-name="Ellipse 7" cx="59.328" cy="59.328" r="59.328" transform="translate(37.636 49.004)" fill="#fff"/>
    <path id="Path_186" data-name="Path 186" d="M205.831,186.238c-.817.817-5.313,9-5.725,15.75s.562,44.643.562,44.643l.176,2.516c10.679,12.489,49.5,31.075,84.462-.065h0l1.961-23.311L281.5,176.422l-20.063-4.908-4.7-7.614-31.317,7.333-2.8,6.6Z" transform="translate(-145.4 -98.466)" fill="#455a64"/>
    <path id="Path_187" data-name="Path 187" d="M281.241,114.053a92.36,92.36,0,0,0,3.209-15.58,32.18,32.18,0,0,0-2.065-15.626c-.32-.738-2.967-5.673-3.764-5.548-.569.085,1.144,4.725.882,5.228-2.516,4.882-2.974,10.613-2.248,16.057a71.628,71.628,0,0,0,3.987,15.463" transform="translate(-172.056 -68.46)" fill="#263238"/>
    <path id="Path_188" data-name="Path 188" d="M259.368,89.995c-.248-13.312-8.208-24.259-21.508-23.638l-1.229.131A23.808,23.808,0,0,0,215.326,90.74c.288,11.535.745,24.279,1.47,30.409,1.5,12.685,14.378,13.326,14.378,13.326l.595,8.346,5.457,5.928,25.3-15.685Z" transform="translate(-150.706 -64.661)" fill="#ffbf9d"/>
    <path id="Path_189" data-name="Path 189" d="M239.63,167.233a30.835,30.835,0,0,0,16.025-6.633,15.818,15.818,0,0,1-15.463,11.7Z" transform="translate(-159.129 -97.322)" fill="#ff9a6c"/>
    <path id="Path_190" data-name="Path 190" d="M226.519,118.537a1.823,1.823,0,0,0,1.961,1.647,1.745,1.745,0,0,0,1.7-1.83,1.83,1.83,0,0,0-1.961-1.647,1.738,1.738,0,0,0-1.7,1.83Z" transform="translate(-154.585 -82.113)" fill="#263238"/>
    <path id="Path_191" data-name="Path 191" d="M220.319,110.084c.248.209,1.516-.948,3.47-1.15s3.483.654,3.673.359c.091-.111-.183-.516-.856-.908a5.026,5.026,0,0,0-2.967-.582,4.836,4.836,0,0,0-2.732,1.209C220.352,109.542,220.195,109.986,220.319,110.084Z" transform="translate(-152.424 -79.019)" fill="#263238"/>
    <path id="Path_192" data-name="Path 192" d="M252.909,116.294a1.823,1.823,0,0,0,1.961,1.647,1.745,1.745,0,0,0,1.7-1.83,1.83,1.83,0,0,0-1.961-1.653,1.752,1.752,0,0,0-1.7,1.836Z" transform="translate(-163.729 -81.334)" fill="#263238"/>
    <path id="Path_193" data-name="Path 193" d="M249.711,108.207c.248.216,1.523-.948,3.47-1.15s3.49.654,3.673.366c.091-.118-.176-.523-.85-.908a5.006,5.006,0,0,0-2.974-.582,4.771,4.771,0,0,0-2.732,1.209C249.75,107.665,249.593,108.115,249.711,108.207Z" transform="translate(-162.608 -78.371)" fill="#263238"/>
    <path id="Path_194" data-name="Path 194" d="M238.719,124.861a12.939,12.939,0,0,0-3.228-.242c-.5,0-.987-.046-1.1-.379a2.51,2.51,0,0,1,.176-1.51l1.072-3.921c1.477-5.62,2.49-10.221,2.268-10.28s-1.614,4.451-3.091,10.077l-1.006,3.954a2.882,2.882,0,0,0-.052,1.961,1.255,1.255,0,0,0,.9.654,3.516,3.516,0,0,0,.856,0A12.5,12.5,0,0,0,238.719,124.861Z" transform="translate(-157.041 -79.282)" fill="#263238"/>
    <path id="Path_195" data-name="Path 195" d="M247.433,134.659c-.32,0-.1,2.13-1.751,3.83s-3.921,1.7-3.921,2c0,.131.542.359,1.5.281a5.287,5.287,0,0,0,3.268-1.549,4.607,4.607,0,0,0,1.307-3.2C247.87,135.13,247.576,134.633,247.433,134.659Z" transform="translate(-159.867 -88.335)" fill="#263238"/>
    <path id="Path_196" data-name="Path 196" d="M248.61,96.291c.248.51,2.17.052,4.49.091s4.241.464,4.49-.046c.111-.242-.261-.706-1.065-1.144a7.842,7.842,0,0,0-6.842,0C248.858,95.586,248.5,96.05,248.61,96.291Z" transform="translate(-162.233 -74.389)" fill="#263238"/>
    <path id="Path_197" data-name="Path 197" d="M220.491,99.973c.386.405,1.686-.2,3.3-.392s3.019,0,3.268-.51c.118-.242-.144-.654-.784-1.02a4.823,4.823,0,0,0-5.313.725C220.452,99.293,220.315,99.77,220.491,99.973Z" transform="translate(-152.472 -75.482)" fill="#263238"/>
    <path id="Path_198" data-name="Path 198" d="M282.65,116.716c.209-.118,8.457-3.5,9.1,5.228s-8.215,7.542-8.274,7.293S282.65,116.716,282.65,116.716Z" transform="translate(-174.034 -81.861)" fill="#ffbf9d"/>
    <path id="Path_199" data-name="Path 199" d="M287.607,127.2c.039,0,.157.091.425.19a1.516,1.516,0,0,0,1.137-.059c.9-.405,1.562-1.921,1.49-3.5a4.986,4.986,0,0,0-.582-2.144,1.758,1.758,0,0,0-1.229-1.078.765.765,0,0,0-.863.477c-.1.255-.033.425-.078.444s-.2-.137-.157-.5a.986.986,0,0,1,.307-.575,1.15,1.15,0,0,1,.823-.281,2.111,2.111,0,0,1,1.68,1.235,5.11,5.11,0,0,1,.706,2.392c.072,1.758-.706,3.47-1.961,3.921a1.627,1.627,0,0,1-1.405-.124C287.64,127.407,287.581,127.211,287.607,127.2Z" transform="translate(-175.749 -83.317)" fill="#ff9a6c"/>
    <path id="Path_200" data-name="Path 200" d="M222.375,75.032c-1.457-.693,2.483-5.535,5.882-7.333,5.091-2.712,13-4.692,17.92-3.634,5.928,1.307,10.947,3.856,14.208,8.966a34.419,34.419,0,0,1,4.98,17.266,10.4,10.4,0,0,1-.889,5.4c-1.091,2.006-3.353,3.372-3.078,6.026a3.627,3.627,0,0,1-.732,2.719c-1.49,1.8-3.542.333-4.542-1.209-2.137-3.268-2.614-7.352-3.032-11.26a25.975,25.975,0,0,1,0-8.326c.327-1.484.928-2.9,1.176-4.4a4.3,4.3,0,0,0-1.653-4.967,9.1,9.1,0,0,0-9.149-1.137c-4.8,2.052-13.018,5.189-15.319,3.66-3.3-2.2-4.163-3.738-4.163-3.738Z" transform="translate(-153.042 -63.776)" fill="#263238"/>
    <path id="Path_201" data-name="Path 201" d="M199.655,198.08c-.5.7-7.646,3.072-10.358,7.587s-5.392,24.788-5.392,24.788l-1.725,13.319c3.4,5.372,7.96,12.489,12.8,17.508Z" transform="translate(-139.224 -110.308)" fill="#455a64"/>
    <g id="Group_17" data-name="Group 17" transform="translate(114.106 107.325)" opacity="0.3">
      <path id="Path_202" data-name="Path 202" d="M291.05,228a34.482,34.482,0,0,0,1.542,8.045,11.582,11.582,0,0,0,4.973,6.313,13.912,13.912,0,0,1,2.974,1.7c.843.784,1.353,2.052,2.17,2.974a8.561,8.561,0,0,0,3.666,2.15,32.343,32.343,0,0,0,12.169,1.961c.131-1.4.137-6.535.268-7.94Z" transform="translate(-291.05 -228)"/>
    </g>
    <path id="Path_203" data-name="Path 203" d="M319.07,183.06s9.006,2.666,11.646,6.5,7.313,18.711,8.274,21.468.118,9.149-1.68,13.724S332.389,233.31,327,233.9s-13.914-2.516-15.835-4.575-2.712-6.614-2.712-6.614a50.549,50.549,0,0,0,7.065-1.771" transform="translate(-182.973 -105.104)" fill="#455a64"/>
    <path id="Path_204" data-name="Path 204" d="M315.473,220.977l-.111.046-.34.124c-.3.1-.752.255-1.346.431a48.9,48.9,0,0,1-5.228,1.255l.072-.1a21.576,21.576,0,0,0,.922,3.3,13.069,13.069,0,0,0,.778,1.771,6.228,6.228,0,0,0,1.209,1.64,8.77,8.77,0,0,0,1.817,1.2,21.823,21.823,0,0,0,2.124.974,34.174,34.174,0,0,0,4.784,1.516,23.886,23.886,0,0,0,5.372.686,12.837,12.837,0,0,0,1.412-.065,11.723,11.723,0,0,0,1.405-.248,9.731,9.731,0,0,0,2.706-1.052,12.182,12.182,0,0,0,4.294-4.189,22.283,22.283,0,0,0,2.549-5.79,32.869,32.869,0,0,0,1.039-4.79,22.838,22.838,0,0,0,.235-4.745,8.352,8.352,0,0,0-.464-2.235q-.373-1.1-.725-2.176l-1.405-4.2c-.928-2.732-1.843-5.313-2.758-7.712a47.945,47.945,0,0,0-2.9-6.49,7.632,7.632,0,0,0-2.039-2.274,17.074,17.074,0,0,0-2.287-1.536,35.871,35.871,0,0,0-3.993-1.961c-1.124-.464-2.013-.791-2.614-1.006l-.686-.242a1.149,1.149,0,0,1-.235-.091,1.136,1.136,0,0,1,.242.059l.7.209c.614.2,1.516.5,2.653.948a35.906,35.906,0,0,1,4.032,1.889,17.644,17.644,0,0,1,2.333,1.536,7.842,7.842,0,0,1,2.1,2.32,46.968,46.968,0,0,1,2.954,6.535c.935,2.392,1.856,4.98,2.791,7.712.464,1.366.935,2.771,1.418,4.2.242.712.484,1.438.725,2.17a8.641,8.641,0,0,1,.49,2.314,22.981,22.981,0,0,1-.229,4.816,33.592,33.592,0,0,1-1.052,4.843,22.4,22.4,0,0,1-2.614,5.882,12.449,12.449,0,0,1-4.418,4.294,10.118,10.118,0,0,1-2.791,1.078,12.421,12.421,0,0,1-1.444.255c-.484,0-.967.085-1.438.065a24.326,24.326,0,0,1-5.444-.719,33.629,33.629,0,0,1-4.823-1.549,22.17,22.17,0,0,1-2.137-1,9.054,9.054,0,0,1-1.869-1.248A6.458,6.458,0,0,1,310,227.911a13.213,13.213,0,0,1-.778-1.8,22.811,22.811,0,0,1-.9-3.353v-.085h.085c2.3-.4,4.065-.85,5.261-1.176l1.359-.386.346-.1C315.434,220.977,315.473,220.971,315.473,220.977Z" transform="translate(-182.931 -105.09)" fill="#263238"/>
    <path id="Path_205" data-name="Path 205" d="M337.021,227.4c-.065,0-.274-1.111-1.026-2.771a19.227,19.227,0,0,0-4.065-5.771,13.631,13.631,0,0,0-3.163-2.248l-.791-.353c-.261-.118-.536-.17-.784-.255a7.4,7.4,0,0,0-1.444-.3l-.327-.046h-.889a4.576,4.576,0,0,0-.915.078,4.359,4.359,0,0,1-.8.085,3.347,3.347,0,0,1,.771-.216,3.627,3.627,0,0,1,.935-.137h.908l.34.039a7.357,7.357,0,0,1,1.5.261,8.173,8.173,0,0,1,.81.248l.823.353a13.168,13.168,0,0,1,3.268,2.287,17.775,17.775,0,0,1,4.045,5.921,10.566,10.566,0,0,1,.431,1.163,7.9,7.9,0,0,1,.248.908A3.992,3.992,0,0,1,337.021,227.4Z" transform="translate(-187.951 -116.333)" fill="#263238"/>
    <path id="Path_206" data-name="Path 206" d="M342.8,217.126a17.262,17.262,0,0,0-1.359-2.738,10.711,10.711,0,0,0-5.738-4.346,18.533,18.533,0,0,0-7.326-.405l-2.242.268a4.523,4.523,0,0,1-.823.072,3.316,3.316,0,0,1,.8-.2c.523-.1,1.307-.242,2.235-.373a17.469,17.469,0,0,1,7.45.314,10.247,10.247,0,0,1,3.634,1.961,10.555,10.555,0,0,1,2.209,2.6,9.2,9.2,0,0,1,.961,2.059,3.536,3.536,0,0,1,.2.791Z" transform="translate(-188.814 -114.14)" fill="#263238"/>
    <path id="Path_207" data-name="Path 207" d="M336.033,206.094a19.927,19.927,0,0,0-10.653.418,5.058,5.058,0,0,1,1.47-.654,15.1,15.1,0,0,1,3.81-.654,15.274,15.274,0,0,1,3.849.353A5.42,5.42,0,0,1,336.033,206.094Z" transform="translate(-188.838 -112.773)" fill="#263238"/>
    <path id="Path_208" data-name="Path 208" d="M319.065,186.5c.052,0-.078.921-.183,2.4a35.942,35.942,0,0,0,.967,11.267l-.235.078c-.268-.752-.477-1.366-.614-1.8a3.022,3.022,0,0,1-.183-.654,2.73,2.73,0,0,1,.314.654c.176.412.418,1.013.719,1.758l-.235.072a29.547,29.547,0,0,1-1.026-5.535,30.062,30.062,0,0,1,.052-5.823c.085-.739.183-1.307.261-1.745a2.425,2.425,0,0,1,.163-.673Z" transform="translate(-186.445 -106.296)" fill="#263238"/>
    <path id="Path_209" data-name="Path 209" d="M295,160.85s-4.673,0-5.261,5.614a77.476,77.476,0,0,0,0,10.391c0,1.9-.83,8.607-.83,8.607s-3.189,2.83-3.137,6.228a4.785,4.785,0,0,0,2.483,4.457,5.771,5.771,0,0,0,1.346,6.209s-1.353,3.13-.242,5.228a5.026,5.026,0,0,0,2.81,2.176,3.183,3.183,0,0,0,1.961,4.385,13.776,13.776,0,0,0,4.856.595l3.49-.065,3.072,1.7s5.267-2.294,5.4-5.4l.137-3.1a58.615,58.615,0,0,1-1.634-6.731c-.124-1.634,1.216-5.535.405-7.287s-3.64-2.784-3.372-5.228A5.84,5.84,0,0,0,305,183.469c-1.216-1.353-6.581-4.045-6.581-4.045a25.433,25.433,0,0,1-1.379-6.607C297.037,170.13,299.723,161.876,295,160.85Z" transform="translate(-175.114 -97.409)" fill="#ffbf9d"/>
    <path id="Path_210" data-name="Path 210" d="M299.8,190.83a6.675,6.675,0,0,1-1.307.837c-.823.484-1.961,1.124-3.268,1.817s-2.444,1.307-3.268,1.732a7.077,7.077,0,0,1-1.412.654,6.482,6.482,0,0,1,1.307-.843c.823-.484,1.961-1.124,3.268-1.817s2.444-1.307,3.268-1.732A6.769,6.769,0,0,1,299.8,190.83Z" transform="translate(-176.771 -107.796)" fill="#ff9a6c"/>
    <path id="Path_211" data-name="Path 211" d="M302.64,207a3.058,3.058,0,0,1-.412.366,14.3,14.3,0,0,1-1.216.856,23.918,23.918,0,0,1-4.379,2.209,24.4,24.4,0,0,1-4.738,1.307c-.654.1-1.131.157-1.477.176a1.49,1.49,0,0,1-.549,0c0-.052.758-.157,1.961-.412a31.652,31.652,0,0,0,4.66-1.359,30.839,30.839,0,0,0,4.379-2.1A20.116,20.116,0,0,1,302.64,207Z" transform="translate(-176.535 -113.399)" fill="#ff9a6c"/>
    <path id="Path_212" data-name="Path 212" d="M314.576,201.849c.085.033-.092.654-.654,1.131s-1.163.621-1.183.536.464-.333.954-.791S314.485,201.81,314.576,201.849Z" transform="translate(-184.459 -111.613)" fill="#ff9a6c"/>
    <path id="Path_213" data-name="Path 213" d="M305.2,221.15a10.383,10.383,0,0,1-1.961.719,38.7,38.7,0,0,1-4.9,1.118,37.1,37.1,0,0,1-5.006.471,9.644,9.644,0,0,1-2.085-.065,17.48,17.48,0,0,1,2.072-.17c1.307-.091,3.039-.261,4.967-.569s3.647-.706,4.888-1.019A17.836,17.836,0,0,1,305.2,221.15Z" transform="translate(-177.013 -118.301)" fill="#ff9a6c"/>
    <path id="Path_214" data-name="Path 214" d="M318.714,216.44a8.644,8.644,0,0,1,.359-1,5.934,5.934,0,0,0,.255-2.477,5.751,5.751,0,0,0-.837-2.346,8.7,8.7,0,0,1-.582-.889,2.36,2.36,0,0,1,.784.752,5.143,5.143,0,0,1,.6,5.045A2.671,2.671,0,0,1,318.714,216.44Z" transform="translate(-186.25 -114.343)" fill="#ff9a6c"/>
    <path id="Path_215" data-name="Path 215" d="M306.885,235.613a7.057,7.057,0,0,1-1.66.392,26.215,26.215,0,0,1-4.1.32,25.1,25.1,0,0,1-4.111-.346,6.939,6.939,0,0,1-1.66-.4,10.823,10.823,0,0,1,1.693.163,38.328,38.328,0,0,0,4.078.242,38.874,38.874,0,0,0,4.072-.222,10.648,10.648,0,0,1,1.693-.15Z" transform="translate(-178.434 -123.301)" fill="#ff9a6c"/>
    <path id="Path_216" data-name="Path 216" d="M297.791,178.965a1.362,1.362,0,0,1-.654.373,4.111,4.111,0,0,1-3.49-.418c-.392-.255-.575-.477-.549-.51a8.633,8.633,0,0,0,2.287.771A8.495,8.495,0,0,0,297.791,178.965Z" transform="translate(-177.653 -103.493)" fill="#ff9a6c"/>
    <path id="Path_217" data-name="Path 217" d="M319.674,220.57a1.307,1.307,0,0,1,.078.5,5.877,5.877,0,0,1-.163,1.379c-.124.569-.34,1.229-.549,1.961a5.53,5.53,0,0,0-.242,2.379c.111.83.732,1.5.83,2.34a3.092,3.092,0,0,1-.516,2.019,6.915,6.915,0,0,1-.843,1.1c-.222.242-.359.359-.379.346s.451-.575,1.013-1.562a2.955,2.955,0,0,0,.412-1.856c-.078-.712-.706-1.379-.856-2.327a5.635,5.635,0,0,1,.281-2.523c.229-.738.464-1.385.614-1.961A12.412,12.412,0,0,0,319.674,220.57Z" transform="translate(-186.243 -118.1)" fill="#ff9a6c"/>
    <path id="Path_218" data-name="Path 218" d="M320.229,226.85a2.045,2.045,0,0,1,.222.614c.118.4.275.987.418,1.719a15.736,15.736,0,0,1,.314,2.614,7.057,7.057,0,0,1-.588,3.2,9.228,9.228,0,0,1-2.013,2.555,18.032,18.032,0,0,1-2.072,1.627c-.621.425-1.144.738-1.51.941a2.4,2.4,0,0,1-.582.288c-.033-.046.752-.542,1.961-1.425a20.392,20.392,0,0,0,2-1.66,9.248,9.248,0,0,0,1.921-2.477,7.038,7.038,0,0,0,.582-3.052,17.707,17.707,0,0,0-.235-2.581C320.393,227.758,320.177,226.863,320.229,226.85Z" transform="translate(-185.04 -120.276)" fill="#263238"/>
    <path id="Path_219" data-name="Path 219" d="M241.89,190.771a4.459,4.459,0,0,1-.758-.562l-1.961-1.64-1.359-1.144a3.719,3.719,0,0,0-.771-.556.961.961,0,0,0-.876,0c-.562.294-.941,1.013-1.418,1.614s-.948,1.307-1.444,1.961c-.784,1.059-1.549,2.072-2.248,3.013l-.425.562.137-.693a33.835,33.835,0,0,1,1.627-5.7c.261-.653.5-1.216.654-1.575a2.326,2.326,0,0,1,.294-.542,3.267,3.267,0,0,1-.19.582c-.137.373-.34.915-.575,1.608a39.69,39.69,0,0,0-1.5,5.692l-.294-.131,2.242-3.019,1.444-1.961.693-.921a2.438,2.438,0,0,1,.863-.784,1.307,1.307,0,0,1,1.144.046,4.027,4.027,0,0,1,.817.608l1.307,1.176,1.908,1.719a5.976,5.976,0,0,1,.686.647Z" transform="translate(-156.01 -105.953)" fill="#263238"/>
    <path id="Path_220" data-name="Path 220" d="M276.329,185.109a1.474,1.474,0,0,1-.255.229l-.771.6L272.42,188.1l-9.613,7.078-.144.1-.1-.15c-.078-.118-.157-.248-.242-.373l-4.823-7.62.176.059a35.452,35.452,0,0,0-5.359,2.673c-.614.373-1.091.654-1.418.9a2.881,2.881,0,0,1-.51.307,2.857,2.857,0,0,1,.457-.386c.314-.229.778-.562,1.385-.961a32.1,32.1,0,0,1,5.333-2.8l.111-.046.065.1c1.418,2.2,3.085,4.81,4.869,7.594.085.124.163.255.242.373l-.248-.046,9.679-6.993,2.941-2.085.81-.549C276.224,185.155,276.322,185.1,276.329,185.109Z" transform="translate(-162.857 -105.814)" fill="#263238"/>
    <path id="Path_221" data-name="Path 221" d="M200.316,224.88a2.089,2.089,0,0,1,.039.457c0,.34,0,.778.033,1.307,0,1.183.059,2.836.091,4.862.078,4.1.242,9.8.457,16.044s.34,11.94.353,16.051v4.869c0,.542,0,.987-.033,1.307a2.011,2.011,0,0,1-.033.464,3.784,3.784,0,0,1,0-.464c0-.333,0-.778-.039-1.307,0-1.189-.052-2.843-.091-4.862-.072-4.111-.242-9.8-.451-16.051s-.34-11.94-.353-16.051v-6.169a3.569,3.569,0,0,1,.026-.457Z" transform="translate(-145.498 -119.594)" fill="#263238"/>
    <path id="Path_222" data-name="Path 222" d="M247.4,276.212a.653.653,0,0,1-.039-.183,2.079,2.079,0,0,0-.059-.556c-.052-.516-.124-1.229-.209-2.137-.183-1.856-.392-4.575-.6-7.875s-.386-7.3-.5-11.7-.124-9.261,0-14.378.353-9.934.654-14.332.654-8.359,1.006-11.672.654-6,.941-7.842c.131-.908.229-1.614.3-2.124.039-.229.065-.412.091-.555a.588.588,0,0,1,.039-.183.6.6,0,0,1,0,.189c0,.144-.033.327-.052.556-.059.51-.137,1.222-.242,2.13-.222,1.856-.51,4.536-.83,7.842s-.654,7.274-.935,11.672-.5,9.241-.614,14.325-.085,9.927,0,14.332.248,8.365.431,11.692.346,6.026.49,7.882c.059.908.111,1.627.144,2.144a2.719,2.719,0,0,0,.033.555A1.39,1.39,0,0,1,247.4,276.212Z" transform="translate(-161.303 -111.898)" fill="#263238"/>
    <path id="Path_223" data-name="Path 223" d="M202.964,148.738l-.693.457-2.039,1.307c-.9.582-1.961,1.412-3.2,2.327-.654.471-1.255,1.039-1.961,1.614l-1.065.9c-.366.314-.712.654-1.085,1.013a58.819,58.819,0,0,0-9.45,11.352l-1.163,1.869c-.412.621-.725,1.307-1.1,1.961s-.752,1.359-1.091,2.078-.654,1.457-1.006,2.2c-.163.373-.346.738-.5,1.124s-.294.778-.444,1.176c-.294.784-.608,1.575-.9,2.392-.484,1.653-1.1,3.326-1.464,5.111a59.955,59.955,0,0,0-.915,23.573,59.171,59.171,0,0,0,94.357,37.519,62.5,62.5,0,0,0,5.843-5.1l1.307-1.385c.444-.457.876-.921,1.307-1.412l1.242-1.431c.392-.5.778-.993,1.17-1.484a58.654,58.654,0,0,0,11.483-26.069,60.426,60.426,0,0,0,.778-6.666c.065-1.1.065-2.2.1-3.268s-.078-2.163-.118-3.228c0-.529-.046-1.065-.065-1.595s-.118-1.046-.17-1.568c-.131-1.039-.255-2.072-.379-3.091s-.392-2.013-.588-3.006a27.112,27.112,0,0,0-.654-2.921l-.81-2.83a11.984,11.984,0,0,0-.464-1.366c-.17-.451-.34-.9-.5-1.346-.346-.882-.654-1.784-1.026-2.614s-.778-1.673-1.163-2.49a58.649,58.649,0,0,0-11.28-15.946,61.616,61.616,0,0,0-11.646-9.078l-2.5-1.431a12.318,12.318,0,0,0-1.163-.6l-1.1-.523-1.961-.928a14.388,14.388,0,0,0-1.66-.654l-2.274-.876-.771-.314.784.281,2.281.85c.5.2,1.078.366,1.673.654l1.961.915,1.1.523a12.238,12.238,0,0,1,1.17.588l2.5,1.425a60.975,60.975,0,0,1,11.718,9.058,58.709,58.709,0,0,1,11.358,15.953c.386.83.778,1.66,1.176,2.51s.654,1.745,1.033,2.614l.51,1.346a12.1,12.1,0,0,1,.464,1.372c.274.941.549,1.882.823,2.843a26.978,26.978,0,0,1,.686,2.934c.2.993.431,1.961.6,3.013s.248,2.065.379,3.111c.059.523.144,1.046.176,1.575s.046,1.065.065,1.6c.039,1.072.1,2.15.124,3.268s-.033,2.189-.1,3.268A59.033,59.033,0,0,1,280.361,236.1l-1.189,1.49-1.255,1.444a18.972,18.972,0,0,1-1.307,1.418l-1.307,1.4a62.238,62.238,0,0,1-5.882,5.124,59.471,59.471,0,0,1-94.814-37.683,57.451,57.451,0,0,1-.654-12.371,56.705,56.705,0,0,1,1.64-11.306c.366-1.791.987-3.464,1.47-5.13.294-.81.614-1.608.915-2.4.15-.392.3-.784.444-1.176s.346-.752.51-1.131c.346-.745.654-1.477,1.013-2.2s.745-1.4,1.1-2.085.7-1.366,1.111-1.993l1.176-1.869a57.764,57.764,0,0,1,9.522-11.339c.372-.346.719-.7,1.085-1.013l1.072-.9c.706-.569,1.307-1.131,1.961-1.6,1.274-.915,2.32-1.732,3.228-2.307l2.059-1.307C202.709,148.875,202.964,148.738,202.964,148.738Z" transform="translate(-136.343 -91.394)" fill="#263238"/>
  </g>
</svg>
