<svg xmlns="http://www.w3.org/2000/svg" width="36" height="36" viewBox="0 0 36 36">
  <g id="Group_704" data-name="Group 704" transform="translate(-322.333 -212.333)">
    <circle id="Ellipse_44" data-name="Ellipse 44" cx="18" cy="18" r="18" transform="translate(322.333 212.333)" fill="#f55d67"/>
    <path id="Icon_metro-cross" data-name="Icon metro-cross" d="M21.369,17.169h0l-5.755-5.755,5.755-5.755h0a.594.594,0,0,0,0-.838L18.65,2.1a.594.594,0,0,0-.838,0h0L12.056,7.857,6.3,2.1h0a.594.594,0,0,0-.838,0L2.744,4.82a.594.594,0,0,0,0,.838h0L8.5,11.414,2.744,17.169h0a.594.594,0,0,0,0,.838l2.719,2.719a.594.594,0,0,0,.838,0h0l5.755-5.755,5.755,5.755h0a.594.594,0,0,0,.838,0l2.719-2.719a.594.594,0,0,0,0-.838Z" transform="translate(328.276 218.919)" fill="#fff"/>
  </g>
</svg>
